<svg width="16" height="16" viewBox="0 0 54 65" xmlns="http://www.w3.org/2000/svg">
    <g transform="matrix(1,0,0,1,-63.708,13.3661)">
        <path d="M94.866,31.747L94.889,23.304L110.569,23.304L110.569,43.265C108.45,45.316 105.379,47.122 101.357,48.683C97.335,50.244 93.262,51.024 89.138,51.024C83.897,51.024 79.328,49.925 75.432,47.726C71.536,45.527 68.607,42.382 66.648,38.292C64.688,34.202 63.708,29.753 63.708,24.945C63.708,19.727 64.802,15.09 66.99,11.034C69.177,6.978 72.379,3.868 76.594,1.703C79.807,0.039 83.806,-0.792 88.591,-0.792C94.812,-0.792 103.169,3.121 103.169,3.121L95.889,9.991C95.889,9.991 91.508,7.855 88.591,7.855C84.171,7.855 80.656,9.257 78.047,12.059C75.438,14.862 74.133,19.021 74.133,24.535C74.133,30.482 75.455,34.943 78.098,37.916C80.741,40.89 84.205,42.377 88.489,42.377C90.608,42.377 92.733,41.961 94.863,41.129C96.994,40.297 98.822,39.289 100.349,38.104L100.349,31.747L94.866,31.747Z" style="fill:rgb(26,28,26);fill-rule:nonzero;"/>
    </g>
    <g transform="matrix(0.850731,0,0,1.02684,-40.3658,-2.72659)">
        <rect x="82.3" y="38.322" width="27.9" height="8.467" style="fill:rgb(26,28,26);"/>
    </g>
    <g id="g8171" transform="matrix(-0.282039,0,0,0.282039,70.2746,-18.8373)">
        <g id="rect8173" transform="matrix(0.912195,0.409756,-0.409756,0.912195,0,0)">
            <rect x="151.738" y="6.821" width="15.036" height="131.925" style="fill:rgb(26,28,26);stroke:white;stroke-width:0.78px;"/>
        </g>
        <g id="rect8175" transform="matrix(0.900702,0.434438,-0.402871,0.915257,0,0)">
            <rect x="144.088" y="33.443" width="28.964" height="86.68" style="fill:rgb(26,28,26);stroke:white;stroke-width:0.98px;"/>
        </g>
        <circle id="circle8177" cx="143.08" cy="132.429" r="22.553" style="fill:rgb(26,28,26);stroke:white;stroke-width:0.78px;"/>
    </g>
</svg>
