<?xml version="1.0" encoding="utf-8"?>
<!-- Generator: Adobe Illustrator 14.0.0, SVG Export Plug-In . SVG Version: 6.00 Build 43363)  -->
<!DOCTYPE svg PUBLIC "-//W3C//DTD SVG 1.1//EN" "http://www.w3.org/Graphics/SVG/1.1/DTD/svg11.dtd">
<svg version="1.1" id="insect" xmlns="http://www.w3.org/2000/svg" xmlns:xlink="http://www.w3.org/1999/xlink" x="0px" y="0px"
	 width="389.392px" height="389.387px" viewBox="0 0 389.392 389.387" enable-background="new 0 0 389.392 389.387"
	 xml:space="preserve">
<g id="Shape_64_copy_29">
	<g>
		<circle fill-rule="evenodd" clip-rule="evenodd" fill="#B3DCDF" cx="194.694" cy="194.693" r="194.693"/>
	</g>
</g>
<g>
	<path fill="#02A4BD" d="M308.987,142.701c2.533,0.319,4.279,1.188,5.23,2.615c0.951,1.426,1.262,3.016,0.951,4.754
		c-0.32,1.746-0.795,3.491-1.428,5.229c-0.639,1.746-1.27,3.09-1.9,4.041l-0.951,1.901c-8.557,9.508-13.949,14.425-16.164,14.737
		l-10.934,1.426c0.313,0.319,0.631,0.795,0.951,1.426c0.313,0.639,0.713,1.746,1.188,3.328c0.477,1.589,0.551,2.696,0.238,3.328
		c-0.639,1.589-3.254,3.646-7.844,6.18c-4.598,2.54-7.533,3.967-8.795,4.278c-9.508,1.271-14.9,1.746-16.164,1.427
		c-0.318-0.313-2.777-1.664-7.369-4.041c-4.598-2.377-7.688-3.722-9.27-4.041l-6.18-0.476l-1.426,5.705
		c8.236,2.221,12.99,3.646,14.262,4.278l8.082,8.557c4.754,5.074,7.605,8.082,8.557,9.033c0.951,0.319,1.9,1.27,2.852,2.853
		c0.951,1.589,1.264,2.696,0.951,3.327c0,1.271,1.107,2.377,3.328,3.328l2.377,3.803c1.902,0.319,2.852,0.951,2.852,1.901
		l2.854,3.804c0.311,0.319,0.631,0.639,0.951,0.95c0.311,0.319,0.713,0.795,1.188,1.427c0.475,0.639,0.551,1.27,0.238,1.901
		c-0.639,2.54-1.426,3.491-2.377,2.853c-0.951-0.313-3.016-3.328-6.18-9.032l-2.379-3.328c-1.588-0.632-2.852-1.901-3.803-3.803
		c-0.639-0.951-1.426-1.583-2.377-1.902c-0.951-0.312-1.746-0.787-2.377-1.426c-0.951-0.313-2.303-1.501-4.041-3.565
		c-1.744-2.058-3.252-4.041-4.516-5.942l-1.902-2.377c-3.803-0.313-6.498-0.951-8.082-1.901c-0.639-0.313-1.588-0.951-2.852-1.902
		c-1.27-0.95-2.377-1.819-3.328-2.614c-0.951-0.787-1.59-1.188-1.9-1.188l-5.23-2.377v5.229c2.854,0.319,4.91,1.114,6.18,2.377
		c1.584,0.95,5.148,4.836,10.697,11.647c5.541,6.818,8.475,11.171,8.795,13.073c0.313,1.27,0.313,2.303,0,3.09
		c-0.32,0.795-0.639,1.352-0.951,1.664l-0.951,0.475l3.328,14.737l0.477,6.655l1.426,4.755c0,0.319,0.156,0.639,0.475,0.95
		c0.313,0.319,0.713,0.795,1.189,1.427c0.475,0.639,0.713,1.27,0.713,1.901l-0.477,1.426c0,0.319,0.156,0.558,0.477,0.713
		c0.313,0.164,0.631,0.639,0.951,1.427c0.311,0.795,0.311,1.508,0,2.139c-0.32,0.639,0.074,1.827,1.188,3.565
		c1.107,1.746,1.5,2.935,1.189,3.565c-0.639,0.951-1.428,1.508-2.377,1.664c-0.951,0.164-1.746-0.394-2.377-1.664l-1.428-8.557
		c-1.588-0.632-2.377-2.058-2.377-4.278c0-0.951-0.639-3.009-1.9-6.181c-0.639-2.532-1.271-4.115-1.902-4.754
		c-0.639-0.95-1.352-3.164-2.139-6.655c-0.795-3.483-1.426-6.655-1.902-9.508c-0.475-2.853-0.713-4.435-0.713-4.754
		c-1.9-2.214-3.328-4.115-4.279-5.705l-9.031-17.114l-0.477-2.852l-3.326-0.476c0.631,0.639,1.188,1.352,1.664,2.139
		c0.475,0.795,0.787,1.427,0.949,1.902c0.156,0.475,0.395,1.114,0.713,1.901c0.313,0.795,0.313,1.188,0,1.188
		c0,0.319-0.318,0.639-0.949,0.951l-0.477,0.475c1.582,5.705,2.377,9.196,2.377,10.459c0,2.221-0.639,4.598-1.9,7.131
		c0.311,5.073-0.238,9.909-1.664,14.499c-1.428,4.599-2.936,7.688-4.518,9.271c-0.949,0.319-1.59,0.476-1.9,0.476
		c0,0.639-1.746,3.016-5.23,7.131c-1.59,2.221-6.893,3.328-15.926,3.328c-9.031,0-14.344-1.107-15.926-3.328
		c-3.491-4.115-5.392-6.492-5.705-7.131c-0.639,0-1.27-0.156-1.901-0.476c-1.59-1.263-3.09-4.278-4.516-9.032
		s-1.983-9.664-1.664-14.737c-1.27-2.533-1.901-4.91-1.901-7.131c0.312-2.853,1.107-6.336,2.377-10.459l-0.951-1.426
		c-0.319-0.313-0.238-1.106,0.238-2.377c0.475-1.263,1.025-2.377,1.664-3.328l0.951-1.426l-2.853,0.476l-0.476,2.852
		c-5.393,10.147-8.557,15.852-9.508,17.114l-3.803,5.705c-1.902,12.048-3.647,19.016-5.229,20.917
		c-0.319,0.639-0.951,2.222-1.901,4.754c0,0.639-0.238,1.508-0.713,2.615c-0.475,1.114-0.713,2.303-0.713,3.565
		c0,0.95-0.238,1.827-0.713,2.614c-0.475,0.795-0.876,1.188-1.188,1.188l-0.475,0.476c-0.639,3.803-1.271,6.655-1.902,8.557
		c-0.639,2.853-2.065,2.853-4.278,0c-0.319-0.631,0.074-1.819,1.188-3.565c1.107-1.738,1.5-2.927,1.188-3.565
		c-0.319-0.631-0.401-1.263-0.238-1.901c0.156-0.631,0.394-1.106,0.713-1.426l0.476-0.951v-1.426
		c-0.319-0.632-0.238-1.263,0.238-1.901c0.476-0.632,0.869-1.107,1.188-1.427l0.951-0.95l0.951-4.755l0.476-6.655l3.328-14.737
		c-0.319,0-0.557-0.155-0.713-0.475c-0.164-0.313-0.401-0.869-0.713-1.664c-0.319-0.787-0.319-1.82,0-3.09
		c0.312-1.902,3.246-6.255,8.795-13.073c5.542-6.812,9.107-10.697,10.697-11.647l5.704-2.377v-5.705
		c-2.852,1.59-4.598,2.377-5.229,2.377c-2.221,1.59-3.966,2.853-5.229,3.804c-1.271,0.95-2.221,1.745-2.853,2.377l-8.082,1.426
		c-5.073,6.655-8.401,10.778-9.983,12.36c-0.639,0.319-1.508,0.639-2.614,0.951c-1.114,0.319-1.828,0.95-2.14,1.901
		c-0.639,0.95-1.188,1.745-1.664,2.377c-0.476,0.639-1.033,0.95-1.664,0.95l-0.476,0.476c-1.27,1.901-2.065,3.016-2.377,3.328
		c-0.319,0-1.27,1.508-2.852,4.516c-1.59,3.017-2.697,4.68-3.328,4.992c-0.639,0-1.188-0.313-1.664-0.951
		c-0.476-0.631-0.876-1.426-1.188-2.377c0-0.631,0.156-1.263,0.475-1.901c0.312-0.632,0.788-1.106,1.426-1.426l0.476-0.951
		c1.901-1.901,2.852-3.164,2.852-3.803l3.328-1.902c0.631-2.213,1.263-3.327,1.901-3.327c2.533-1.263,3.64-2.533,3.328-3.804
		c-0.639-1.582,0.787-3.64,4.278-6.18l8.082-9.032c4.115-4.754,6.968-7.606,8.558-8.558l13.786-4.278l-0.951-5.705
		c-1.901-0.312-4.123-0.155-6.655,0.476c-1.271,0.319-4.205,1.664-8.795,4.041c-4.598,2.377-7.213,3.729-7.844,4.041
		c-1.589,0.639-6.819,0.163-15.688-1.427c-1.59,0-4.598-1.344-9.033-4.04c-4.442-2.689-6.975-4.828-7.606-6.418
		c-0.319-0.951-0.319-1.976,0-3.09c0.312-1.107,0.788-2.139,1.426-3.09l0.476-0.951c-5.074-0.312-8.721-0.787-10.934-1.426
		c-0.951,0-2.778-1.263-5.467-3.803c-2.696-2.533-5.155-5.066-7.369-7.606l-2.853-3.328c-0.319-0.631-0.713-1.263-1.188-1.901
		c-0.475-0.632-1.188-1.976-2.139-4.041c-0.951-2.058-1.589-3.877-1.901-5.467c-0.32-1.582-0.082-3.09,0.713-4.516
		c0.788-1.426,2.451-2.451,4.992-3.09c2.853,0,5.304,0,7.369,0c2.058,0,4.435,0.401,7.131,1.188c2.689,0.795,4.754,1.426,6.18,1.901
		c1.426,0.476,3.09,1.188,4.992,2.139c1.902,0.951,3.008,1.426,3.328,1.426c0.951,0.319,4.435,1.902,10.459,4.754
		c6.017,2.853,13.467,6.344,22.344,10.459c8.869,4.123,15.369,7.131,19.491,9.032c0-0.631,0.476-3.008,1.426-7.131
		c-0.319,0-0.951-0.476-1.902-1.426c-0.319,0-2.221-2.377-5.705-7.131v-3.803c-5.073-5.705-8.082-8.869-9.033-9.508l-0.475-2.852
		l-3.328-4.279c-1.27-1.901-2.458-3.246-3.565-4.041c-1.114-0.787-0.713-1.5,1.188-2.139c0.951-0.631,1.738-0.713,2.377-0.238
		c0.631,0.476,1.188,1.352,1.664,2.615c0.476,1.271,1.025,2.221,1.664,2.853c0.631,0.639,1.025,1.426,1.188,2.377
		c0.156,0.951,0.394,1.426,0.713,1.426c1.582,0.639,2.853,1.589,3.803,2.852l4.754,9.033c1.263,0.319,2.689,1.114,4.279,2.377
		c0.631,0.639,1.263,1.664,1.901,3.09c0.631,1.426,1.188,2.853,1.664,4.279s0.713,2.303,0.713,2.615
		c0-0.951,0.313-1.426,0.951-1.426c1.582-0.951,2.853-2.058,3.803-3.328c0-0.312,0.476-1.025,1.427-2.14
		c0.95-1.106,1.263-1.976,0.95-2.615c0-4.434,0.156-7.131,0.476-8.082c0.312-0.631,0.713-1.106,1.188-1.426
		c0.475-0.312,1.026-0.631,1.665-0.951h0.949c1.902-2.852,3.641-4.59,5.23-5.229c-0.32-0.632-0.713-1.263-1.189-1.902
		c-0.475-0.631-0.875-1.188-1.188-1.664c-0.32-0.476-0.639-0.869-0.951-1.188c-2.221-1.902-4.917-3.328-8.082-4.279
		c-2.54-0.631-5.705-2.213-9.508-4.754c-2.221-1.263-5.868-2.377-10.934-3.328c-1.902-0.312-3.328-0.788-4.279-1.426
		c-0.951-0.631-0.639-1.107,0.951-1.426c1.583,0,3.008,0.164,4.279,0.476c4.754,0.951,7.606,1.589,8.557,1.901
		c0.631,0,1.901,0.557,3.803,1.664c1.901,1.114,3.164,1.827,3.803,2.139c0.951,0,1.977,0.319,3.091,0.951
		c1.106,0.639,2.377,1.426,3.803,2.377c1.426,0.951,2.614,1.59,3.565,1.902c0.951,0.319,2.689,1.746,5.23,4.278
		c0.951,0.951,1.582,2.065,1.9,3.328l4.754-0.475c2.215,0,3.805,0.163,4.754,0.475c1.264-1.582,2.059-2.689,2.377-3.328
		c2.215-2.213,3.961-3.64,5.23-4.278c0.951-0.312,2.615-1.263,4.992-2.853c2.377-1.582,4.041-2.451,4.99-2.615
		c0.951-0.156,2.377-0.713,4.279-1.664c1.902-0.951,3.008-1.583,3.328-1.902c0.631-0.312,1.5-0.55,2.615-0.713
		c1.105-0.156,2.295-0.394,3.564-0.713c1.264-0.312,2.059-0.475,2.377-0.475h5.705l-0.475,0.951
		c-0.951,0.639-2.379,1.114-4.279,1.426c-5.074,0.951-8.557,2.065-10.459,3.328c-4.123,2.541-7.451,4.123-9.982,4.754
		c-4.123,1.59-6.82,3.016-8.082,4.279c0,0.319-1.115,1.901-3.328,4.754c0.951,0.319,1.82,0.876,2.615,1.664
		c0.787,0.795,1.5,1.508,2.139,2.139l0.475,1.426c2.215,0.639,3.484,1.426,3.805,2.377c0.311,0.951,0.549,2.377,0.713,4.279
		c0.154,1.901,0.074,3.171-0.238,3.803c0,0.639,0.393,1.508,1.188,2.615c0.789,1.114,1.189,1.828,1.189,2.14
		c1.582,1.589,3.008,2.696,4.279,3.328c0.311,0.639,0.475,1.114,0.475,1.426c0.313-0.312,0.951-1.82,1.902-4.517
		c0.949-2.689,1.9-4.516,2.852-5.467l3.803-2.377c3.484-4.435,5.705-7.606,6.656-9.508c0.313-0.312,0.787-0.713,1.426-1.188
		c0.631-0.476,1.107-0.869,1.426-1.188l0.951-0.476c0-1.582,0.631-2.852,1.902-3.803c0.311-0.631,0.713-1.582,1.188-2.852
		c0.477-1.263,1.189-2.058,2.141-2.377c1.9-0.951,3.164-0.476,3.803,1.426c0.313,0.32,0.156,0.639-0.477,0.951l-3.326,3.803
		l-3.328,4.278c0.631,1.27,0.475,2.221-0.477,2.853c-0.639,0.319-1.744,1.27-3.328,2.852c-1.588,1.59-3.016,3.016-4.277,4.279
		l-1.902,2.377c0.313,0,0.551,0.163,0.713,0.475c0.156,0.319,0.313,0.876,0.477,1.664c0.156,0.795-0.082,1.352-0.713,1.664
		c-2.541,4.442-4.443,6.975-5.705,7.606c-0.951,0.639-1.59,0.951-1.902,0.951c0.951,4.123,1.426,6.5,1.426,7.131
		c4.115-1.901,10.533-4.91,19.254-9.032c8.713-4.115,16.164-7.606,22.344-10.458c6.18-2.853,9.746-4.435,10.697-4.754
		c0.313,0,1.426-0.476,3.328-1.426c1.9-0.951,3.564-1.664,4.99-2.139c1.428-0.476,3.484-1.107,6.182-1.902
		c2.688-0.787,5.064-1.188,7.131-1.188C303.677,142.225,306.136,142.389,308.987,142.701z M108.846,172.175
		c0.951,0.319,2.214,0.401,3.803,0.238c1.582-0.156,4.115-0.55,7.606-1.188c0.312,0,4.197-0.312,11.647-0.951
		c7.443-0.631,11.647-0.951,12.598-0.951c4.435,0,8.082,0.319,10.934,0.951c-3.803-1.582-8.245-3.484-13.311-5.705l-35.655-15.213
		c-0.639-0.312-1.589-0.713-2.853-1.188c-1.27-0.475-3.171-0.951-5.705-1.426c-2.541-0.475-4.279-0.549-5.229-0.237
		c-1.27,0.639-2.303,1.746-3.09,3.328c-0.795,1.589-0.876,3.016-0.238,4.278c0.312,1.271,1.025,2.541,2.139,3.803
		c1.107,1.27,1.82,2.377,2.139,3.328c0.632,1.271,2.853,3.172,6.656,5.705C104.092,169.486,106.944,171.224,108.846,172.175z
		 M171.598,183.584c0.951-1.263,1.426-2.689,1.426-4.279c-5.392-2.533-10.146-4.754-14.261-6.655h-14.737
		c-2.853,0-6.344,0.475-10.459,1.426c-7.606,3.171-12.204,4.754-13.787,4.754c-0.639,0-1.114,1.114-1.426,3.328
		c-0.639,2.221,0.951,4.278,4.754,6.18c1.263,0.64,3.803,1.59,7.606,2.853c1.902,0.639,4.353,1.032,7.369,1.188
		c3.009,0.164,4.992,0.238,5.943,0.238c0.631-0.313,2.926-1.427,6.893-3.328c3.959-1.901,6.254-2.853,6.893-2.853l4.279,0.476
		c-1.27-1.901-1.27-3.165,0-3.803c1.263-0.631,2.689-1.025,4.278-1.188c1.583-0.156,2.377,0.082,2.377,0.713
		c0,0.951,0.312,1.508,0.951,1.664C170.328,184.461,170.959,184.223,171.598,183.584z M225.794,227.32
		c-0.32-2.214-1.271-4.115-2.854-5.704c-1.27,0.639-2.539,1.113-3.803,1.426c-14.262,3.172-27.736,3.172-40.409,0
		c-1.27-0.313-2.54-0.787-3.803-1.426c-1.59,3.171-2.541,5.073-2.853,5.704c-0.639,3.804-0.319,7.295,0.95,10.459
		c3.165,1.59,6.492,2.696,9.983,3.327c9.51,1.902,20.279,1.902,32.328,0c3.164-0.631,6.336-1.737,9.508-3.327
		C225.474,236.517,225.794,233.025,225.794,227.32z M176.352,166.47c0.313,0.639,0,1.664-0.95,3.09
		c-0.951,1.426-1.271,2.459-0.951,3.09c0.312,0.639,1.426,1.27,3.328,1.901c0-1.263,1.582-2.533,4.754-3.803
		c1.902-0.951,7.525-1.426,16.876-1.426c9.344,0,15.131,0.475,17.352,1.426c3.164,1.271,4.754,2.541,4.754,3.803
		c0,0.951,0.787,0.639,2.377-0.951c0.631-0.312,0.951-0.631,0.951-0.951c0-0.631-0.557-1.664-1.664-3.09
		c-1.113-1.426-1.508-2.451-1.188-3.09c-1.59-1.901-2.854-3.008-3.805-3.328c-0.318,0-2.221-1.263-5.705-3.803
		c-4.121-1.902-8.557-2.853-13.311-2.853s-9.195,0.951-13.311,2.853c-3.492,2.541-5.393,3.803-5.705,3.803
		C178.885,163.781,177.615,164.888,176.352,166.47z M184.909,214.96c8.869,2.541,18.221,2.541,28.049,0
		c0.951-0.312,2.057-0.869,3.328-1.664c1.262-0.787,2.377-1.663,3.328-2.614l1.426-0.951l-11.41,0.951
		c-6.975-0.631-14.262-0.631-21.867,0c-0.951,0-2.379,0-4.279,0c-1.902,0-3.492-0.156-4.754-0.476l-1.901-0.476
		C179.992,212.271,182.688,214.01,184.909,214.96z M208.679,269.155c4.115-2.533,6.492-4.91,7.131-7.131
		c-0.639-0.313-1.664-0.476-3.09-0.476s-2.615-0.156-3.564-0.476c-6.977-2.533-13.631-2.533-19.967,0
		c-0.639,0.319-1.664,0.558-3.09,0.713c-1.428,0.164-2.459,0.238-3.092,0.238c0.633,3.803,2.689,6.18,6.182,7.131
		C195.204,271.376,201.704,271.376,208.679,269.155z M274.759,188.338c3.484-1.901,5.066-4.115,4.754-6.655
		c-0.639-2.213-1.27-3.328-1.9-3.328c-0.32,0-2.541-0.713-6.656-2.139c-4.123-1.426-6.344-2.295-6.656-2.615
		c-0.318,0-1.188-0.074-2.613-0.238c-1.426-0.156-2.936-0.394-4.518-0.713c-1.588-0.312-2.695-0.476-3.326-0.476H238.63
		c-8.877,4.123-13.475,6.344-13.787,6.656c0,2.221,0.475,3.803,1.426,4.754c0.631,0.639,1.264,0.876,1.902,0.713
		c0.631-0.156,0.951-0.713,0.951-1.664c0-0.632,0.787-0.869,2.377-0.713c1.582,0.164,3.008,0.557,4.277,1.188v3.803l4.279-0.476
		c0.631,0.319,2.926,1.353,6.893,3.09c3.959,1.746,6.256,2.778,6.895,3.091c2.852,0.319,7.131-0.156,12.834-1.427
		C269.53,190.56,272.22,189.608,274.759,188.338z M308.987,154.11c1.264-3.164,0-5.86-3.803-8.082
		c-0.951-0.312-2.615-0.238-4.992,0.238c-2.377,0.475-4.516,1.032-6.418,1.664l-2.377,0.951
		c-11.729,4.754-23.613,9.827-35.654,15.212c-5.393,2.541-9.826,4.598-13.311,6.18c2.852-0.951,6.492-1.426,10.934-1.426
		c0.631,0,2.928,0.238,6.895,0.713c3.959,0.476,7.762,0.876,11.408,1.188c3.641,0.32,5.623,0.32,5.943,0
		c6.967,1.271,10.934,1.59,11.885,0.951c1.582-0.312,4.277-1.902,8.082-4.754c3.803-2.853,6.18-4.91,7.131-6.18
		C307.243,157.282,308.669,155.061,308.987,154.11z"/>
</g>
</svg>
