<?xml version="1.0" encoding="utf-8"?>
<!-- Generator: Adobe Illustrator 14.0.0, SVG Export Plug-In . SVG Version: 6.00 Build 43363)  -->
<!DOCTYPE svg PUBLIC "-//W3C//DTD SVG 1.1//EN" "http://www.w3.org/Graphics/SVG/1.1/DTD/svg11.dtd">
<svg version="1.1" id="human" xmlns="http://www.w3.org/2000/svg" xmlns:xlink="http://www.w3.org/1999/xlink" x="0px" y="0px"
	 width="449.786px" height="449.781px" viewBox="0 0 449.786 449.781" enable-background="new 0 0 449.786 449.781"
	 xml:space="preserve">
<g id="Shape_64_copy_30">
	<g>
		<circle fill-rule="evenodd" clip-rule="evenodd" fill="#B3DCDF" cx="224.893" cy="224.89" r="224.89"/>
	</g>
</g>
<g>
	<path fill="#02A4BD" d="M316.979,198.098c6.351,10.593,10.841,17.204,13.495,19.846c0.521,0.533,1.451,1.724,2.778,3.572
		c1.314,1.86,2.245,3.051,2.778,3.572c0.521,2.121,0.261,3.175-0.794,3.175c0.521,1.588,1.314,4.106,2.382,7.542
		c1.054,3.448,1.848,5.954,2.382,7.542c0,1.588-0.273,2.382-0.794,2.382c-1.067,0-1.861-0.261-2.382-0.794
		c-1.066-2.109-1.588-3.436-1.588-3.969l2.382,8.732c0,1.588-0.273,2.382-0.794,2.382c-1.066,0-2.121-0.794-3.176-2.382
		c-0.533-1.587-1.86-4.49-3.969-8.732c0.521,1.587,1.314,4.502,2.382,8.732c0,1.067-0.273,1.588-0.794,1.588
		c-1.067,0.533-1.861,0.136-2.382-1.191c-0.533-1.314-0.794-2.245-0.794-2.778c-0.533-1.054-1.19-2.778-1.984-5.16
		c-0.794-2.381-1.464-4.093-1.984-5.16c0,1.066,0.124,2.518,0.396,4.366c0.261,1.86,0.397,3.051,0.397,3.572
		c0,1.587-0.137,2.381-0.397,2.381c-0.272,0-0.931-0.521-1.984-1.587c-0.533-0.521-0.794-1.191-0.794-1.985
		s-0.272-1.451-0.794-1.984c-0.533-2.109-1.464-5.284-2.778-9.526c-1.327-4.229-2.258-7.405-2.778-9.526l-2.382-7.938
		c-1.588-2.109-4.242-5.42-7.938-9.923c-3.709-4.49-6.351-8.062-7.938-10.717c-5.829-6.872-9.005-10.58-9.526-11.114l-1.587-1.587
		c-0.533-0.521-1.464-1.985-2.778-4.366c-1.327-2.382-2.258-4.093-2.779-5.16c-1.066-1.587-2.518-3.833-4.365-6.748
		c-1.861-2.902-3.313-5.16-4.366-6.748c-3.176-5.817-6.091-11.635-8.732-17.465c-0.533,0-1.067-1.054-1.588-3.175
		c-0.533,4.242-1.588,10.457-3.176,18.655c-1.587,8.211-2.778,13.893-3.572,17.068s-0.669,9.799,0.397,19.846
		c0.521,2.654,1.451,7.145,2.778,13.495c1.314,6.351,1.984,11.387,1.984,15.083c0,6.351,0.261,15.356,0.794,26.991
		c0.521,6.351,0.261,12.701-0.794,19.052c-1.066,3.175-2.381,8.472-3.969,15.876c-1.588,7.417-2.654,13.235-3.176,17.465
		c-2.121,11.646-1.86,22.76,0.794,33.341c1.055,5.296,0.794,13.234-0.794,23.815c-3.709,15.877-6.09,27.264-7.145,34.135
		c0,2.108,0,4.229,0,6.351c0,5.284,0.794,10.047,2.382,14.289c0.521,1.055,1.588,2.382,3.175,3.97
		c1.588,1.588,2.643,2.642,3.176,3.175c0.521,2.109,0.794,3.696,0.794,4.764c-0.533,0.521-1.327,0.794-2.382,0.794h-10.319
		c-1.067,0-2.382-0.273-3.97-0.794c-2.654-2.121-4.503-3.709-5.557-4.764c-0.533-1.066-0.794-2.654-0.794-4.763
		c0-4.763,0.261-7.938,0.794-9.526c0-1.066,0.124-2.381,0.396-3.969c0.261-1.588,0.397-2.654,0.397-3.176
		c0-10.06-0.273-17.464-0.794-22.228c0-2.108-0.67-6.475-1.984-13.098c-1.327-6.611-1.725-11.771-1.191-15.48
		c1.055-7.405,1.588-12.701,1.588-15.877c0-1.054-0.794-5.023-2.382-11.907c-1.066-4.229-1.587-7.665-1.587-10.32
		c0-10.58,0-18.519,0-23.815l-2.382-30.96c0-4.229,0.261-7.666,0.794-10.32c0-1.588-0.533-2.382-1.588-2.382v19.846
		c0,2.121-0.272,5.557-0.794,10.32c-0.533,4.763-0.794,8.211-0.794,10.32c-1.066,6.351-1.588,11.114-1.588,14.289
		c0,11.647-1.066,21.434-3.175,29.372c-1.066,2.121-1.066,6.09,0,11.907c1.054,10.06,0.794,19.325-0.794,27.785l-2.382,14.289
		c0,1.066-0.136,2.654-0.396,4.763c-0.273,2.108-0.67,3.696-1.191,4.763c0,1.055,0.124,2.506,0.397,4.366
		c0.261,1.849,0.396,3.3,0.396,4.366v7.938c0,1.055,0.124,2.382,0.397,3.97c0.261,1.588,0.396,2.642,0.396,3.175
		c0,2.643-0.272,4.229-0.794,4.764l-7.938,6.351c-0.533,0-1.19,0-1.984,0s-2.257,0-4.366,0h-5.557l-2.382-0.794
		c0-2.121,0.261-3.448,0.794-3.97l3.97-3.969c3.696-3.709,5.284-7.418,4.763-11.114c0-2.654,0.261-4.502,0.794-5.557
		c0.521-2.654,0.261-7.938-0.794-15.877c0-1.054-0.931-5.557-2.778-13.495c-1.86-7.938-3.052-14.289-3.572-19.052
		c-0.533-4.764,0-12.168,1.588-22.229c0.521-0.521,0.794-1.711,0.794-3.572c0-1.848,0.26-3.299,0.793-4.365
		c0.521-9.526-0.793-21.434-3.969-35.723c-1.588-7.405-2.915-14.81-3.969-22.228c0-2.642,0-6.611,0-11.908
		c0-2.642,0.26-6.475,0.793-11.511c0.521-5.023,0.794-8.856,0.794-11.511v-3.175c0-7.405,1.055-14.289,3.176-20.64l1.588-14.29
		c0-0.521,0.124-1.711,0.396-3.572c0.261-1.848,0.397-3.299,0.397-4.366c-1.067-8.993-1.861-15.876-2.382-20.64
		c-2.121-8.993-3.709-15.877-4.763-20.64v-2.381c-2.121,4.242-5.297,10.593-9.526,19.052c-1.067,1.588-2.915,4.242-5.557,7.938
		c-2.654,3.708-4.502,6.351-5.557,7.938c-0.534,1.066-1.588,2.915-3.176,5.557c-1.587,2.655-2.915,4.503-3.969,5.557
		c0,0.533-2.915,4.502-8.732,11.908c-9.005,10.593-14.289,17.464-15.877,20.64c-0.533,0.533-0.93,1.724-1.191,3.572
		c-0.272,1.861-0.669,3.312-1.19,4.366c-0.534,2.121-1.464,5.296-2.779,9.526c-1.327,4.242-2.257,7.417-2.778,9.526
		c-0.533,0.533-0.93,1.191-1.191,1.984c-0.272,0.794-0.396,1.464-0.396,1.985c0,0.533-0.273,0.93-0.794,1.191
		c-0.534,0.272-1.067,0.396-1.588,0.396v-2.381c0-1.054,0-2.505,0-4.366c0-1.848,0-3.039,0-3.572c0,1.067-0.397,2.654-1.19,4.763
		c-0.794,2.121-1.464,3.969-1.985,5.557c0,2.655-1.067,3.969-3.175,3.969c-0.533,0-0.794-0.793-0.794-2.381
		c1.054-3.696,1.848-6.611,2.382-8.732c-2.121,4.763-3.709,7.938-4.763,9.526c-1.067,1.587-1.861,2.381-2.382,2.381
		c-0.533-0.521-0.793-1.587-0.793-3.175l2.381-7.938c-0.533,0.533-0.794,1.191-0.794,1.985c0,0.793-0.273,1.19-0.794,1.19
		c-1.066,1.067-1.86,1.588-2.381,1.588c-0.533-0.521-0.794-1.588-0.794-3.175c0.521-1.055,1.315-3.299,2.382-6.748
		c1.054-3.436,1.848-5.954,2.381-7.542c-2.121,0-2.381-1.315-0.794-3.969c0.521-0.521,1.054-1.315,1.588-2.382
		c0.521-1.054,1.054-1.984,1.587-2.778c0.521-0.794,1.315-1.451,2.382-1.985c4.229-3.175,8.732-9.786,13.495-19.846
		c5.284-10.581,8.732-17.192,10.32-19.846c0-0.521,3.176-5.284,9.526-14.289c1.054-1.054,2.381-2.778,3.969-5.16
		c1.587-2.381,2.642-4.093,3.175-5.16c5.284-8.993,10.32-19.573,15.083-31.754c3.175-9.526,9.787-15.604,19.846-18.258
		c5.284-1.054,11.113-3.696,17.464-7.938c1.055-1.587,1.849-3.175,2.382-4.763V86.96c0-0.521-0.137-1.054-0.396-1.588
		c-0.273-0.521-0.397-1.054-0.397-1.587c0-0.521-0.272-1.588-0.794-3.175c-0.533-1.588-0.794-2.642-0.794-3.176h-0.793
		c-1.588-0.521-2.915-2.505-3.97-5.954c-1.066-3.436-1.066-5.681,0-6.748l0.794-0.794c0.521,0,1.055,0,1.588,0
		c-1.067-6.351-0.273-11.374,2.381-15.083c2.109-3.696,5.817-6.078,11.114-7.145h2.382c2.642,0,4.49,0.273,5.557,0.794
		c4.229,1.066,7.405,3.448,9.526,7.145c3.175,4.763,3.969,9.799,2.381,15.083l2.382,0.794c1.055,1.066,1.055,3.175,0,6.351
		c-1.066,3.175-2.382,5.296-3.969,6.351h-0.794c0,1.588-0.534,3.709-1.588,6.351c-2.654,6.884-1.327,11.647,3.969,14.29
		c8.993,4.763,14.289,7.417,15.877,7.938c10.047,2.654,16.932,9.266,20.64,19.846c3.697,12.181,9.526,24.349,17.465,36.517
		c0.521,1.066,1.849,2.654,3.97,4.763c2.108,2.121,3.436,3.969,3.969,5.557C306.919,176.665,310.627,184.876,316.979,198.098z"/>
</g>
</svg>
