<?xml version="1.0" encoding="utf-8"?>
<!-- Generator: Adobe Illustrator 14.0.0, SVG Export Plug-In . SVG Version: 6.00 Build 43363)  -->
<!DOCTYPE svg PUBLIC "-//W3C//DTD SVG 1.1//EN" "http://www.w3.org/Graphics/SVG/1.1/DTD/svg11.dtd">
<svg version="1.1" id="Cavewater" xmlns="http://www.w3.org/2000/svg" xmlns:xlink="http://www.w3.org/1999/xlink" x="0px" y="0px"
	 width="745px" height="729.89px" viewBox="0 0 745 729.89" enable-background="new 0 0 745 729.89" xml:space="preserve">
<circle id="bgd_15_" fill-rule="evenodd" clip-rule="evenodd" fill="#3B6B5F" cx="363.234" cy="369.574" r="347.232"/>
<g>
	<defs>
		<circle id="bgd_17_" cx="363.234" cy="369.574" r="293.992"/>
	</defs>
	<clipPath id="bgd_1_">
		<use xlink:href="#bgd_17_"  overflow="visible"/>
	</clipPath>
	<g id="lac_4_" clip-path="url(#bgd_1_)">
		<path fill-rule="evenodd" clip-rule="evenodd" fill="#02A4BD" d="M175.854,350.947c10.172,42.842,104.741,25.377,75.846,73.312
			c-14.446,19.738-55.982,15.508-59.593,43.705c-3.612,33.836,85.454,22.046,88.488,47.936
			c4.544,38.763-84.848,40.877-27.992,78.246c28.178,18.519,241.831,40.467,317.677-0.418c55.78-30.07,79.444-76.108,75.833-118.404
			c-7.226-39.475-260.516-48.906-271.585-59.53c-19.835-19.04,16.813-32.205,35.216-54.984c0.074-18.42-95.77-30.297-98.449-40.878
			c-2.68-10.581,44.273-22.564,30.729-31.023c-18.718-11.689-97.547-13.386-146.306,21.859
			C195.718,310.767,173.174,339.662,175.854,350.947z"/>
	</g>
	<path id="AP" clip-path="url(#bgd_1_)" fill-rule="evenodd" clip-rule="evenodd" fill="#FFFFFF" d="M693.995,263.921
		c0,6.3-5.108,11.409-11.408,11.409H-32.354c-6.3,0-11.408-5.108-11.408-11.409V-44.112c0-6.3,5.108-11.409,11.408-11.409h714.941
		c6.3,0,11.408,5.108,11.408,11.409V263.921z"/>
	<g clip-path="url(#bgd_1_)">
		<polygon fill-rule="evenodd" clip-rule="evenodd" fill="#B3DCDF" points="231.945,274.379 313.708,79.481 260.467,66.171 
			96.943,170.75 47.506,274.379 		"/>
		<path id="_x34_th_level_2_" fill-rule="evenodd" clip-rule="evenodd" fill="#B3DCDF" d="M588.961-9.867
			c0,0-23.586,26.104,40.007,49.513c23.153,32.456,36.139,68.424,36.139,106.329c0,43.884,13.47,93.639-17.011,129.871
			l-318.761-0.283L588.961-9.867z"/>
		<path id="_x33_d_level_1_" fill-rule="evenodd" clip-rule="evenodd" fill="#B3DCDF" d="M428.669,175.217
			c-11.27,7.247-8.507,33.741-15.517,34.922c-6.324,1.062-7.6-37.797-22.441-39.437c-0.086,0.034-0.164,0.064-0.247,0.098
			c-0.823,4.887-12.981,138.208-23.579,11.709c-0.076-0.913-0.349-1.525-0.705-2.007c-21.546,8.56-47.38,18.488-65.424,23.358
			c-0.752,8.272-4.233,15.896-5.729,19.307c-2.851,6.505-7.302-6.222-8.995-16.406c-1.377,0.103-2.648,0.142-3.677,0.034
			c-17.961-1.883-12.965,34.618-19.979,30.08c-3.241-2.096-3.74-42.351-22.142-42.351c-6.958,0-10.01,73.69-18.198,0.256
			c-2.132-19.136-6.041,21.24-13.488,21.24c-6.376,0-147.438-16.023-180.057-20.365c3.079-12.388-1.291-36.856,4.016-48.187
			c29.099-35.872,70.874-69.32,105.743-78.973c51.809-6.857,105.187-16.682,133.852-10.708c2.544-8.421,38.873,19.715,64.388,15.928
			c1.375-0.012,197.298,23.519,197.784,24.78C543.781,123.214,456.315,157.44,428.669,175.217z M328.396,164.553
			c-0.932,1.118-0.956,2.416,1.361,3.687C329.316,167.042,328.858,165.814,328.396,164.553z"/>
	</g>
</g>
<g>
	<path fill="#3B6B5F" d="M461.479,611.723c-7.918-10.416-21.852-23.544-36.543-12.932c-30.48,22.015-22.984-102.865-41.169-99.833
		c-20.42,3.405,1.347,127.709-38.764,109.113c-25.804-11.963,0.116,4.12-36.553-46.477c-16.941-23.375-36.576,31.274-60.141,39.056
		c-0.805,0.266-22.101-112.449-29.28-15.696c-0.61,8.213-24.729,8.561-54.322,6.139c54.061,69.899,138.735,114.922,233.94,114.922
		c102.898,0,193.499-52.593,246.434-132.35C599.495,582.822,524.566,598.466,461.479,611.723z"/>
	<path fill="#3B6B5F" d="M202.126,170.477c5.729-1.146,11.334-2.045,16.757-2.614c79.54-8.333,57.406,153.293,88.472,133.198
		c14.354-9.287,16.563-187.53,98.045-187.53c30.82,0,44.331,326.302,80.582,1.129c9.448-84.738,26.758,94.057,59.734,94.057
		c6.623,0,39.657-3.373,88.16-8.783C581.166,111.063,484.28,51.475,373.46,51.475c-111.877,0-209.562,60.725-261.921,151.003
		c10.664-4.903,21.419-9.577,32.096-13.822c6.077,22.541,14.636,41.448,19.132,51.709
		C175.134,268.582,194.304,215.07,202.126,170.477z"/>
</g>
</svg>
