<?xml version="1.0" encoding="utf-8"?>
<!-- Generator: Adobe Illustrator 14.0.0, SVG Export Plug-In . SVG Version: 6.00 Build 43363)  -->
<!DOCTYPE svg PUBLIC "-//W3C//DTD SVG 1.1//EN" "http://www.w3.org/Graphics/SVG/1.1/DTD/svg11.dtd">
<svg version="1.1" id="River" xmlns="http://www.w3.org/2000/svg" xmlns:xlink="http://www.w3.org/1999/xlink" x="0px" y="0px"
	 width="673.471px" height="673.466px" viewBox="0 0 673.471 673.466" enable-background="new 0 0 673.471 673.466"
	 xml:space="preserve">
<circle id="bgd" fill-rule="evenodd" clip-rule="evenodd" fill="#B3DCDF" cx="336.736" cy="336.733" r="336.733"/>
<g id="fool">
	<defs>
		<circle id="SVGID_1_" cx="336.736" cy="336.733" r="336.733"/>
	</defs>
	<clipPath id="SVGID_2_">
		<use xlink:href="#SVGID_1_"  overflow="visible"/>
	</clipPath>
	<path id="hill" clip-path="url(#SVGID_2_)" fill-rule="evenodd" clip-rule="evenodd" fill="#7DC47A" d="M668.177,235.709
		c-21.481-50.743-103.758-83.06-165.895-83.06c-124.273,0-196.77,114.147-196.77,114.147s-67.64-43.996-141.401-43.996
		c-83.9,0-182.09,51.63-190.849,101.417c-5.993,34.574,5.354,68.28,5.354,68.28C7.235,549.454,162.082,681.021,327.301,681.021
		s312.511-95.664,341.13-252.62C668.431,428.401,689.656,286.452,668.177,235.709z"/>
	<g id="river" clip-path="url(#SVGID_2_)">
		<g>
			<g>
				<path fill="#02A4BD" d="M201.805,650.666l-105.582,9.398c-0.667-26.624,1.499-47.825,6.314-72.462
					c5.153-23.851,12.867-49.259,30.981-74.293c9.069-12.33,21.407-24.291,36.44-32.73c14.964-8.546,31.919-12.933,47.279-13.796
					c7.512-0.637,15.729-0.089,21.641,0.412c5.563,0.594,10.463,1.226,15.53,1.854c10.025,1.264,19.901,2.54,29.77,3.783
					c19.667,2.467,39.433,4.915,58.34,6.717c4.667,0.436,9.328,0.82,13.369,1.064c1.771,0.117,4.077,0.173,4.21,0.269
					c2.189-0.087,4.969-0.244,7.316-0.36c9.718-0.508,18.979-1.009,27.077-2.055c8.093-0.908,15.335-2.759,18.403-3.991
					c0.506-0.255,1.172-0.43,1.098-0.305c1.321,1.295,2.364,2.373,3.025,2.995c0.97,0.832,2.049,1.486,2.098,1.583l0.639,0.375
					l0.188,0.089l0.099,0.042c5.395-0.158,1.507-0.033,2.716-0.064l0.108,0.077c0.054,0.084,0.856,0.33,0.156,0.104
					c-0.408-0.094-1.974-0.415-4.785-0.261c-1.255,0.064-2.795,0.402-4.356,0.597c0.036-0.034,0.222-0.049,0.108-0.358
					c0.057-0.405-0.207-1.256-0.51-2.19c-0.65-1.941-2.243-4.543-4.114-7.086c-3.659-5.1-9.635-10.547-14.813-14.053
					c-9.899-6.776-29.483-11.532-48.14-15.372c-19.21-4.042-39.471-7.275-60.869-13.987c-10.675-3.57-21.941-7.691-33.155-16.359
					c-5.63-4.558-10.699-9.599-14.955-17.851c-3.25-6.61-5.954-16.407-3.44-26.388c2.433-9.924,8.565-16.727,13.906-21.088
					c5.508-4.488,10.937-7.38,16.216-9.828c10.575-4.816,20.763-7.757,30.85-10.418c20.083-5.215,39.966-8.557,58.67-13.252
					c4.641-1.18,9.185-2.472,13.292-3.987c3.937-1.254,8.113-3.922,8.344-4.105c1.94,1.107,2.598,1.079,2.435,1.071
					c0.489-0.305-3.253,0.867-2.268,0.492c0.2-0.321-1.348-2.052-2.969-3.79c-2.902-3.419-6.329-6.438-9.922-9.289
					c-29.95-22.755-72.036-27.6-111.15-31.971c39.506,0.345,81.429-0.651,118.693,21.077c4.499,2.808,8.925,5.917,12.887,9.611
					c1.883,1.751,4.221,3.284,6.426,7.114c2.332,3.395,2.68,10.31,0.004,14.189c-4.923,7.545-10.238,9.433-15.1,12.257
					c-4.944,2.481-9.821,4.447-14.674,6.278c-19.363,7.189-38.581,12.642-56.685,19.572c-8.979,3.438-17.781,7.191-25.12,11.621
					c-7.49,4.041-12.649,10.598-11.437,11.34c0.183,0.286,0.398,1.136,1.881,3.411c0.742,0.784,3.009,3.082,5.562,4.476
					c5.305,3.242,13.451,5.709,22.041,7.434c17.471,3.46,37.107,4.598,57.387,6.505c20.544,2.467,41.465,3.093,66.945,14.861
					c12.087,6.25,21.915,13.416,31.404,23.196c8.92,9.872,18.907,21.474,21.552,42.969c0.511,5.269,0.174,11.297-1.364,17.194
					c-0.616,2.979-1.834,5.791-3.044,8.608l-0.956,2.087c0.28-0.527-0.975,1.911,0.565-1.053l-0.236,0.468l-0.479,0.935
					l-2.029,3.698c-5.745,9.706-13.591,16.313-20.636,20.872c-14.184,8.688-26.509,11.988-37.936,14.897
					c-11.485,2.802-22.107,4.493-32.248,6.175c-2.618,0.422-4.814,0.796-7.591,1.222c-4.797,0.597-7.492,0.705-10.703,0.917
					c-5.937,0.317-11.265,0.449-16.583,0.548c-21.033,0.322-41.164,0.04-61.38-0.246c-10.073-0.15-20.134-0.333-30.052-0.481
					c-4.906-0.066-9.975-0.15-14.398-0.123c-4.06,0.185-5.935,0.356-8.359,0.96c-9.007,2.44-10.875,5.162-15.743,13.304
					C200.417,582.213,197.451,621.845,201.805,650.666z"/>
			</g>
		</g>
	</g>
</g>
<g id="tree">
	<path fill="#3B6B5F" d="M500.497,325.843c-1.016-7.102-9.466-8.115-12.614-9.545c5.34,2.427,4.903-18.424-19.908-24.224
		c-15.555-3.636-21.787,2.877-21.665,3.005c0.128,0.125-24.072-10.1-26.155,12.774c-26.359-6.048-35.667,36.704-14.381,47.268
		c4.79,2.376,11.639,4.839,14.746-0.633l27.937,19.287c4.647,10.097-1.547,23.048-1.549,24.36
		c2.769,3.611,13.546,1.853,19.495,0.566c5.563-1.202-0.158-23.146-0.789-24.641c-1.831-4.348,7.056-5.51,0.051-8.686
		c-3.819-1.729-4.462,0.395-4.645,0.96c-0.342,1.077-4.202-10.14-4.202-10.14s2.531,0.914,3.344,0.987
		c13.918,4.912,23.386,2.945,31.114-6.443c3.321-4.033,3.872-12.213,0.557-16.498C494.758,335.101,501.51,332.948,500.497,325.843z
		 M427.935,353.525c-1.903-4.657,8.275-1.749,8.275-1.749l11.716,16.659C447.926,368.436,429.494,357.337,427.935,353.525z"/>
	<path fill="#3B6B5F" d="M268.339,224.373c9.758-2.688,13.667,2.128,13.591,2.222c-0.08,0.093,20.221-14.766,21.529,2.147
		c38.311,5.302,12.908,51.938,3.9,42.249c-3.004,1.756-15.597,2.656-17.547-1.39l-0.008,15.183
		c-0.47,1.201,0.972,18.012,0.972,18.012s-7.577,1.37-11.31,0.418c0.022-1.636-0.821-17.114-0.426-18.22
		c1.149-3.214-9.959-5.917-5.563-8.265c2.396-1.279,4.643,0.291,4.756,0.709c0.215,0.797,0.794-9.341,0.794-9.341
		s-5.276,4.364-5.786,4.418c-8.731,3.632-14.671,2.178-19.52-4.764c-2.083-2.983-2.428-9.031-0.349-12.2
		C251.537,256.188,236.616,233.583,268.339,224.373z"/>
</g>
</svg>
