<?xml version="1.0" encoding="utf-8"?>
<!-- Generator: Adobe Illustrator 14.0.0, SVG Export Plug-In . SVG Version: 6.00 Build 43363)  -->
<!DOCTYPE svg PUBLIC "-//W3C//DTD SVG 1.1//EN" "http://www.w3.org/Graphics/SVG/1.1/DTD/svg11.dtd">
<svg version="1.1" id="porifera" xmlns="http://www.w3.org/2000/svg" xmlns:xlink="http://www.w3.org/1999/xlink" x="0px" y="0px"
	 width="389.391px" height="389.387px" viewBox="0 0 389.391 389.387" enable-background="new 0 0 389.391 389.387"
	 xml:space="preserve">
<g id="Shape_64_copy_29">
	<g>
		<circle fill-rule="evenodd" clip-rule="evenodd" fill="#B3DCDF" cx="194.695" cy="194.693" r="194.693"/>
	</g>
</g>
<path display="none" fill-rule="evenodd" clip-rule="evenodd" fill="#02A4BD" d="M261.779,97.637
	c3.875,2.259,8.305,4.582,10.375,7.383c1.49,2.019,2.275,4.493,2.713,6.843c0.418,1.901,0.857,3.801,1.281,5.718
	c0.316,5.743-2.125,10.959-4.58,17.543c-0.99,2.675-2.598,6.342-4.441,8.933c-2.459,3.397-4.707,7.778-7.252,10.579
	c-0.912,1.49-1.836,2.972-2.752,4.441c-1.299,1.541-2.131,2.126-3.438,3.49c-0.705,0.956-1.41,1.913-2.123,2.879
	c-1.521,1.549-3.295,1.858-4.91,2.744c-1.104,0.597-1.578,1.877-2.645,2.836c-1.115,0.993-2.75,1.244-4.012,2.588
	c-1.314,1.408-1.318,3.231-1.199,4.378c0.291,2.994,1.463,6.42,1.52,9.729c0.096,2.552-0.703,7.522,0.615,9.458
	c2.018-4.813,7.666,3.393,10.434-0.867c-0.176-1.257-0.338-2.51-0.521-3.757c-0.758-1.385-1.781-1.239-1.771-2.842
	c0.098-0.082,0.188-0.153,0.271-0.244c0.297-0.107,0.584-0.202,0.895-0.3c1.58,0.888,3.059,1.608,4.098,2.83
	c2.295,2.712,3.746,7.441,8.283,3.665c0.852-0.886,1.689-1.747,2.541-2.633c0.49-1.146,2.08-2.936,2.412-4.08
	c0.172-0.632-0.133-1.356,0.451-1.947c0.576-0.659,1.109-0.608,1.846-0.563c0.494,0.433,0.727,0.835,0.691,1.391
	c-0.146,4.921-6.613,11.316-3.09,15.256c4.182,4.609,11.006-2.791,14.52,3.887c-0.156,0.314-0.293,0.654-0.455,0.979
	c-0.381,0.383-0.367,0.359-0.865,0.301c-0.898-0.219-1.354-0.876-1.92-1.398c-1.184,0.609-2.367-0.028-3.535,0.388
	c-0.914,0.599-1.834,1.228-2.729,1.82c-0.717,0.184-1.428,0.356-2.115,0.542c-1.281,0.899-2.547,1.802-3.811,2.727
	c-2.236,1.721-2.766,4.619-4.885,6.861c-4.502,4.763-14.596,14.006-19.338,14.057c-1.525,0.02-5.059-2.318-6.178-3.511
	c-0.758-0.775-0.395-1.84-0.947-2.621c-0.756-0.726-1.512-1.452-2.283-2.177c-1.705-3.581-3.387-7.149-5.092-10.73
	c-0.797-2.03-0.727-5.873-2.943-7.372c-3.641,1.701-5.928,5.622-8.805,10.487c-0.801,1.354-1.613,2.729-2.414,4.083
	c-1.586,1.495-3.16,2.998-4.725,4.505c-1.004,1.28-2.01,2.587-3.006,3.872c-2.506,2.309-6.273,5.68-7.953,9.073
	c2.643,2.262,6.762,1.705,9.465,2.146c10.387,1.696,21.42,4.88,22.924,15.769c0.285,2.184,1.301,5.685-0.957,8.373
	c-1.322,1.527-2.926,2.281-4.25,3.415c4.426,0.403,10.016,1.898,13.963,0.394c2.586-0.968,5.477-4.486,8.26-4.603
	c2.941-0.148,4.248,3.742,3.201,5.748c-0.793,0.495-1.475,0.593-2.307,0.833c-0.889-0.524-0.809-0.819-1.223-1.408
	c-1.174,1.429-2.727,5.268-1.961,6.563c1.213,2.433,5.551,2.299,7.617,2.288c5.168-0.035,10.115-0.011,15.441,0.188
	c1.855,0.052,2.855-1.321,5.105-0.009c0.246,0.35,0.33,0.447,0.318,0.861c0.074,0.4,0.025,0.56-0.258,1.097
	c-1.613,0.807-2.705,0.458-4.5,0.646c-2.693,0.279-5.564,0.86-8.32,1.273c-3.414,0.524-7.754,3.403-10.76,5.354
	c-0.785,0.535-2.303,1.992-2.346,3.278c-0.063,3.38,5.234,7.401,9.053,9.627c0.092,0.476,0.174,0.943,0.26,1.403
	c-0.189,0.744-0.49,0.831-1.012,1.054c-1.34-0.293-2.717-1.498-4.436-2.078c-2.1-0.693-4.324-1.572-6.736-2.328
	c-2.814-0.884-5.572-0.656-8.271-1.178c-1.795-0.343-4.086-2.274-5.854-2.212c-0.979,0.046-1.852,0.625-2.783,0.993
	c-1.775,0.308-3.578,0.613-5.361,0.934c-5.479,0.612-11.148,0.256-16.609,0.787c-4.211,0.443-7.664,1.771-12.195,2.023
	c-5.997,0.326-12.29,0.208-18.232-0.589c-3.483-0.783-6.976-1.551-10.466-2.32c-5.4-0.867-12.528-5.938-15.563-10.04
	c-0.899-0.752-1.778-1.505-2.675-2.255c-2.796-3.586-5.094-10.327-0.4-15.398c1.182-1.282,2.679-2.363,3.898-3.342
	c-0.152-0.09-0.324-0.191-0.5-0.295c-1.139-0.395-2.284-0.807-3.435-1.207c-1.179-1.038-2.732-2.395-4.559-2.976
	c-4.184-1.317-7.686-0.642-11.682-2.615c-0.658-0.342-0.733-1.135-1.003-1.578c-0.42-0.371-0.824-0.767-1.255-1.146
	c-0.249-1.429-0.492-2.865-0.75-4.298c-1.855-4.28-5.826-7.671-7.885-11.838c-0.134,0.016-0.279,0.023-0.436,0.025
	c-2.85,2.182-12.113,2.493-16.537-1.37c-2.083-1.809-3.001-3.709-4.489-5.681c-1.437-1.926-1.528-4.038-2.336-6.075
	c-0.865-1.807-1.728-3.597-2.6-5.393c-2.033-5.084-1.114-13.761-0.639-19.657c0.332-1.224,0.631-2.468,0.947-3.715
	c-0.034-1.159-0.071-2.335-0.127-3.508c0.945-5.37-0.548-9.31,0.231-14.323c0.338-2.312,2.862-3.177,4.613-1.548
	c3-5.339,4.576-7.293,8.834-9.114c1.693-3.257,2.219-6.285,2.501-9.112c1.194-0.963,3.075-0.741,3.873,0.917
	c-0.995,2.421-0.451,4.88-0.666,7.17c3.281,1.256,6.6,3.638,8.589,6.188c0.899,1.141,1.99,3.52,3.396,4.067
	c1.03-0.499,2.039-0.993,3.068-1.495c2.149-1.365,3.408-4.443,6.403-2.673c0.779,1.134,1.193,2.174,1.1,3.522
	c-0.217,0.152-0.449,0.279-0.67,0.445c-0.44-0.152-0.812-0.26-1.175-0.146c-1.399,2.15-2.815,4.309-4.213,6.462
	c2.174,2.049,3.171,4.636,4.873,6.876c0.09-0.044,0.153-0.098,0.229-0.147c1.349-1.465,4.59-8.345,4.635-9.925
	c0.646-0.727,1.288-1.439,1.951-2.141c0.276-1.1,0.537-2.176,0.811-3.248c0.938-0.74,1.881-1.463,2.81-2.192
	c0.85-0.933-0.07-3.205,0.72-3.987c1.156-1.19,2.454-2.513,3.656-3.626c1.017-0.927,0.413-2.174,0.992-2.863
	c1.142-0.666,2.253-1.333,3.39-1.989c1.298-1.323,0.057-3.101,1.304-4.313c0.48-0.262,0.971-0.537,1.44-0.804
	c0.281-0.475,0.566-0.958,0.847-1.433c0.69-0.402,1.712-0.283,2.361-0.96c0.929-0.935,0.623-1.629,1.566-2.648
	c0.026-0.357,0.044-0.706,0.062-1.053c2.278-1.557,5.07-1.98,6.999-3.443c0.985-0.745,1.297-2.619,2.393-3.548
	c0.835-0.755,1.952-0.639,2.848-2.046c-7.298-1.114-12.158-4.505-13.825-11.339c1.37-2.108,2.846-6.398,5.583-7.574
	c1.368-0.594,3.482,0.048,5.088,0.262c1.107-0.187,2.215-0.343,3.33-0.513c2.007-0.043,4.369,0.212,6.346,0.429
	c0.741,0.222,1.49,0.432,2.242,0.641c0.814-0.111,1.594-0.243,2.408-0.355c1.945,0.324,3.109,1.497,4.671,0.703
	c2.264-1.142,5.316-3.69,7.396-5.969c1.389-1.504,0.709-3.151,3.203-3.754c1.502,0.812,2.006,2.015,1.289,3.384
	c-1.949,0.845-2.508,3.929-2.48,5.834c0.646,0.382,0.828,0.365,1.307,0.349c0.813-1.11,1.615-2.257,2.412-3.395
	c0.854-0.68,1.803-0.539,2.729-1.552c1.65-1.895,1.932-4.114,3.654-5.969c2.592-2.803,4.607-5.37,7.232-7.563
	c1.102-0.941,2.494-0.63,3.857-1.169c1.23-0.659,2.439-1.304,3.641-1.963c1.652-0.552,3.309-1.085,4.955-1.626
	c0.506-0.621,1.008-1.229,1.51-1.868c1.518-1.536,3.311-2.91,5.158-3.13c1.109-0.137,2.641-0.061,3.807,0.316
	c0.646,0.382,1.293,0.765,1.93,1.142c0.627-0.192,1.236-0.377,1.869-0.548c1.719-0.138,3.443-0.258,5.162-0.397
	C251.998,95.786,256.417,97.023,261.779,97.637z"/>
<g id="ice-shape">
	<g>
		<polygon fill-rule="evenodd" clip-rule="evenodd" fill="#02A4BD" points="306.22,253.762 305.878,244.186 286.419,233.861 
			299.742,225.355 299.41,216.064 291.195,211.71 270.083,225.188 262.486,221.162 273.777,213.96 273.445,204.665 265.23,200.306 
			255.601,206.457 254.599,178.42 264.638,183.86 272.525,178.924 272.181,169.634 260.402,163.253 267.687,158.69 289.724,170.626 
			297.601,165.689 297.263,156.399 283.363,148.87 302.027,137.185 301.685,127.603 293.214,123.108 274.552,134.8 273.845,119.009 
			265.634,114.655 257.757,119.591 258.871,144.62 251.585,149.183 250.994,135.792 242.783,131.438 234.9,136.374 235.416,147.79 
			210.625,134.644 220.357,128.657 220.025,119.368 211.816,115.019 200.392,122.028 200.085,113.439 221.439,100.324 
			221.105,91.039 212.89,86.68 199.423,94.952 198.632,72.941 190.164,68.452 182.037,73.544 182.827,95.549 168.8,88.264 
			160.923,93.195 161.255,102.491 183.492,114.037 183.804,122.62 171.91,116.447 164.033,121.384 164.369,130.674 174.507,135.938 
			150.726,150.829 150.414,139.413 142.205,135.054 134.325,139.99 134.689,153.38 127.097,149.354 126.417,124.313 
			118.205,119.954 110.322,124.891 110.753,140.687 91.296,130.372 83.17,135.46 83.519,145.041 102.972,155.36 89.652,163.866 
			89.99,173.151 98.2,177.511 119.316,164.021 126.908,168.049 115.617,175.266 115.952,184.552 124.162,188.905 133.79,182.764 
			134.8,210.801 124.753,205.361 116.876,210.297 117.212,219.582 128.992,225.963 121.707,230.53 99.675,218.595 91.8,223.531 
			92.133,232.816 106.031,240.346 87.367,252.036 87.707,261.618 96.179,266.107 114.842,254.416 115.549,270.207 123.761,274.561 
			131.638,269.63 130.519,244.601 137.804,240.039 138.401,253.419 146.616,257.778 154.494,252.847 153.986,241.432 
			178.774,254.577 169.037,260.558 169.372,269.849 177.582,274.202 188.998,267.188 189.308,275.782 167.956,288.892 
			168.291,298.182 176.503,302.536 189.968,294.27 190.763,316.279 199.234,320.764 207.357,315.682 206.568,293.667 
			220.597,300.951 228.474,296.021 228.14,286.725 205.902,275.185 205.589,266.596 217.478,272.769 225.361,267.832 
			225.033,258.547 214.89,253.278 238.667,238.387 238.98,249.808 247.195,254.161 255.072,249.23 254.708,235.83 262.298,239.862 
			262.974,264.907 271.189,269.261 279.072,264.33 278.646,248.529 298.099,258.849 		"/>
	</g>
</g>
</svg>
