<?xml version="1.0" encoding="utf-8"?>
<!-- Generator: Adobe Illustrator 14.0.0, SVG Export Plug-In . SVG Version: 6.00 Build 43363)  -->
<!DOCTYPE svg PUBLIC "-//W3C//DTD SVG 1.1//EN" "http://www.w3.org/Graphics/SVG/1.1/DTD/svg11.dtd">
<svg version="1.1" id="grass" xmlns="http://www.w3.org/2000/svg" xmlns:xlink="http://www.w3.org/1999/xlink" x="0px" y="0px"
	 width="394.112px" height="394.109px" viewBox="0 0 394.112 394.109" enable-background="new 0 0 394.112 394.109"
	 xml:space="preserve">
<g id="bgd">
	<g>
		<circle fill-rule="evenodd" clip-rule="evenodd" fill="#7DC47A" cx="197.056" cy="197.054" r="197.054"/>
	</g>
</g>
<g id="ico_grassland_copy_10">
	<g>
		<path fill-rule="evenodd" clip-rule="evenodd" fill="#FFFFFF" d="M92.368,242.93c66.214,63.242,44.195,57.093,60.762,87.309
			l1.027-9.899C154.157,320.339,169.021,291.836,92.368,242.93z M213.033,290.554c17.936-52.81,26.08-77.743,57.063-123.212
			C216.293,183.483,213.033,290.554,213.033,290.554z M172.958,331.187c-0.496,0.791-0.968,1.579-1.409,2.365
			C171.549,333.552,172.108,332.817,172.958,331.187z M158.268,308.431c0,0,23.562-43.796-43.448-119.796
			C131.613,222.179,151.601,265.554,158.268,308.431z M259.079,292.422c-31.226,10.175-30.271,29.209-30.271,29.209
			C252.228,301.49,265.325,287.875,259.079,292.422z M213.61,320.496c15.984-17.973,20.452-32.929,35.111-55.763
			C199.123,294.519,213.61,320.496,213.61,320.496z M172.958,331.187c16.185-25.817,59.307-55.226-14.324-175.11
			C194.889,276.053,178.254,321.039,172.958,331.187z"/>
	</g>
</g>
<g id="ico_grassland_copy_11">
	<g>
		<path fill-rule="evenodd" clip-rule="evenodd" fill="#FFFFFF" d="M231.713,331.464c-0.373-1.187-0.79-2.386-1.24-3.598
			C231.154,330.302,231.713,331.464,231.713,331.464z M307.63,104.71c-143.509,130.198-91.796,183.782-77.157,223.156
			C226.236,312.732,217.225,248.208,307.63,104.71z"/>
	</g>
</g>
<g id="ico_grassland_copy_12">
	<g>
		<path fill-rule="evenodd" clip-rule="evenodd" fill="#FFFFFF" d="M105.396,76.82c79.998,110.118,72.022,159.63,68.273,171.241
			C186.622,217.848,232.385,176.729,105.396,76.82z M173.67,248.061c-0.398,0.93-0.767,1.85-1.097,2.76
			C172.573,250.821,173.067,249.929,173.67,248.061z"/>
	</g>
</g>
<g id="ico_grassland_copy_13">
	<g>
		<path fill-rule="evenodd" clip-rule="evenodd" fill="#FFFFFF" d="M253.335,315.591c0,0,6.646-16.626,59.898-98.313
			C226.954,280.548,242.788,294.957,253.335,315.591z"/>
	</g>
</g>
<g id="ico_grassland_copy_3">
	<g>
		<path fill-rule="evenodd" clip-rule="evenodd" fill="#3B6B5F" d="M230.332,224.6c28.177-70.326,40.972-103.531,89.649-164.082
			C235.453,82.012,230.332,224.6,230.332,224.6z M40.754,161.179c104.028,84.22,83.665,135.024,96.691,178.807l10.845-27.959
			C148.29,312.027,161.183,226.307,40.754,161.179z M86.668,110.152c26.382,44.67,57.785,102.432,68.26,159.531
			C154.928,269.683,212.102,184.508,86.668,110.152z M302.081,258.638c-65.901,11.998-47.557,71.658-47.557,71.658
			C287.771,292.835,311.896,252.582,302.081,258.638z M231.237,328.193c14.476-55.849,38.634-95.751,54.573-124.977
			C207.886,242.881,231.237,328.193,231.237,328.193z M171.065,334.942c40.51-31.222,112.105-150.154-20.29-300.064
			C216.878,220.292,171.065,334.942,171.065,334.942z"/>
	</g>
</g>
</svg>
