<?xml version="1.0" encoding="utf-8"?>
<!-- Generator: Adobe Illustrator 14.0.0, SVG Export Plug-In . SVG Version: 6.00 Build 43363)  -->
<!DOCTYPE svg PUBLIC "-//W3C//DTD SVG 1.1//EN" "http://www.w3.org/Graphics/SVG/1.1/DTD/svg11.dtd">
<svg version="1.1" id="gut" xmlns="http://www.w3.org/2000/svg" xmlns:xlink="http://www.w3.org/1999/xlink" x="0px" y="0px"
	 width="467.943px" height="467.938px" viewBox="0 0 467.943 467.938" enable-background="new 0 0 467.943 467.938"
	 xml:space="preserve">
<g id="bgd">
	<g id="Shape_64_copy_23">
		<g>
			<circle fill="#B3DCDF" cx="233.972" cy="233.969" r="233.969"/>
		</g>
	</g>
	<g id="Shape_40_copy_2">
		<g>
			<ellipse fill="#02A4BD" cx="235.25" cy="225.509" rx="150.343" ry="189.269"/>
		</g>
	</g>
</g>
<g id="Big_intestine">
	<g id="Shape_68_copy_1_">
		<g>
			<path fill="#FFFFFF" d="M377.219,264.365c-1.556-14.046-18.254-16.769-18.254-16.769s16.205-2.502,15.157-16.039
				c-1.014-13.111-15.175-18.067-15.175-18.067s12.904-5.782,10.836-17.44s-15.537-11.969-15.537-11.969s15.404-9.205,4.847-26.911
				c-8.055-13.507-15.464-11.879-18.528-10.349c-0.862,0.637-1.49,0.943-1.49,0.943s0.537-0.467,1.49-0.943
				c3.104-2.289,9.239-8.849,0.03-20.744c-10.112-13.065-18.391-7.811-20.517-6.075c-0.333,0.304-0.536,0.476-0.536,0.476
				s0.188-0.192,0.536-0.476c2.66-2.431,14.063-13.802,4.112-21.932c-11.194-9.146-21.777,3.277-21.777,3.277
				s-3.339-10.241-15.579-9.681c-9.946,0.455-11.524,12.623-11.768,17.172c0.003,1.049-0.04,1.695-0.04,1.695
				s-0.016-0.646,0.04-1.695c-0.013-4.875-1.045-18.622-12.288-18.481c-12.514,0.156-12.657,18.802-12.593,21.935
				c0.012,0.287,0.014,0.456,0.014,0.456s-0.008-0.168-0.014-0.456c-0.125-3.159-1.482-22.124-16.127-22.329
				c-15.973-0.225-19.167,17.164-19.167,17.164s3.547-22.003-13.902-21.999c-17.449,0.004-18.375,16.952-18.375,16.952
				s-4.257-14.654-14.595-12.9c-10.338,1.753-10.882,13.896-10.882,13.896s-7.545-9.665-19.34,3.406
				c-11.796,13.072,4.238,19.852,4.238,19.852s-16.764-1.988-21.687,11.994c-2.821,8.013,6.665,17.229,6.665,17.229
				s-13.258-0.932-16.087,10.574c-2.829,11.507,9.517,17.043,9.517,17.043s-18.947,1.368-18.004,21.159s15.836,19.914,15.836,19.914
				s-16.779,2.639-14.551,20.53c2.228,17.895,15.646,19.209,15.646,19.209s-18.817,34.698,25.827,47.998
				c2.741-0.223,14.034,16.722,16.952,15.987c6.622-7.19-9.566-15.697-7.826-20.931c35.354-27.228,9.669-53.142,9.669-53.142
				s8.084-7.574,6.352-18.729c-2.358-15.189-15.065-14.141-15.065-14.141s11.764-9.334,11.221-18.969s-7.819-17.045-7.819-17.045
				s4.118-0.937,5.442-11.558c1.327-10.646-8.869-15.153-8.869-15.153s9.432-2.301,15.053-11.067
				c2.569-4.006,3.456-5.794,3.665-6.558c-0.299-0.228-0.464-0.37-0.464-0.37s0.711-0.539,0.464,0.37
				c1.913,1.455,9.849,6.703,22.795,4.881c10.83-1.523,16.482-12.521,16.482-12.521s8.495,12.838,20.986,11.606
				c12.49-1.229,15.646-11.423,15.646-11.423s5.814,8.972,15.172,9.202c9.355,0.229,15.861-16.076,15.861-16.076
				s-0.226,9.862,6.519,9.396c3.567-0.247,5.864-2.292,7.245-4.166c0.887-1.956,1.732-3.197,1.732-3.197s-0.506,1.53-1.732,3.197
				c-2.028,4.468-4.276,12.684,2.834,18.465c10.222,8.31,12.282,5.701,12.282,5.701s-6.942,11.303-0.604,24.127
				c4.131,8.355,11.487,8.495,16.114,7.576c2.393-0.917,4.168-1.281,4.168-1.281s-1.694,0.792-4.168,1.281
				c-5.62,2.153-14.667,7.369-12.257,18.183c2.744,12.311,13.157,12.037,17.246,11.427c1.026-0.245,1.667-0.329,1.667-0.329
				s-0.637,0.175-1.667,0.329c-4.421,1.056-16.043,5.124-15.023,18.568c1.258,16.568,15.06,17.933,15.06,17.933
				s-6.041,1.321-7.443,13.262c-1.44,12.253,4.965,18.885,4.965,18.885c-3.17-2.584-5.738-9.632-21.405-9.025
				c-11.41,0.441-17.084,8.53-17.084,8.53s-10.916-18.469-30.65-11.313c-19.735,7.156-14.776,24.126-14.776,24.126
				s-12.053,0.989-15.322,4.907c-13.258,15.892,11.646,29.185,11.646,29.185s-28.328-5.482-28.328,18.941
				s18.247,20.945,18.937,25.102c3.631,21.887,4.645,25.149,9.385,22.14c1.797-1.142,3.135-2.098,6.582-4.088
				c4.799-2.771-2.592-4.622-1.073-14.667c0.831-5.486,20.198,2.935,26.386-17.003c3.977-12.81-0.511-17.057-4.229-18.46
				c-2.271-0.196-3.898-0.686-3.898-0.686s1.831-0.097,3.898,0.686c4.5,0.391,11.537-0.364,13.529-8.338
				c2.889-11.554-0.145-15.581-2.074-16.933c-0.854-0.359-1.338-0.646-1.338-0.646s0.586,0.12,1.338,0.646
				c2.028,0.856,6.188,2.142,11.217,1.051c7.142-1.548,8.774-9.806,8.774-9.806s0.416,10.688,14.244,10.681
				c13.828-0.006,17.61-11.999,17.61-11.999s11.802,9.154,22.43,7.488c9.466-1.482,15.132-8.482,18.146-17.882
				c3.014-9.399-4.012-16.626-4.012-16.626S378.774,278.412,377.219,264.365z"/>
		</g>
	</g>
</g>
<g id="small_intestine">
	<g id="Shape_68_copy_2_">
		<g>
			<path fill="#FFFFFF" d="M295.256,225.772c-9.741-10.917-100.039-8.715-103.643-13.241c-13.91-17.468,89.645-4.702,99.756-6.82
				c15.768-3.305,19.363-29.241,4.742-43.234c-16.064-15.375-88.827,11.594-108.468-12.692
				c-20.655-21.066,49.541-114.468,49.541-114.468l-21.265,1.699c0,0-40.296,71.115-45.103,76.894
				c-4.807,5.777-15.341,27.031,6.57,49.131c21.912,22.099,73.345,1.179,106.423,12.524c7.346,2.521,8.489,9.972,2.047,12.479
				c-9.914,4.788-77.946-1.34-95.505,4.287c-10.816,1.458-22.352,17.067-12.965,31.074c8.131,12.134,84.88,1.792,109.838,13.092
				c1.154,0.522,5.297,4.979,3.709,10.32c-1.59,5.342-85.861-2.438-101.604,0c-18.889,2.928-22.34,14.832-21.76,42.04
				c0.069,3.25,0.055,1.575,18.12-21.083c13.596-14.04,92.28,2.239,109.525-3.029C306.497,261.297,307.009,231.421,295.256,225.772z
				"/>
		</g>
	</g>
	<g display="none">
		<path display="inline" fill="#FFFFFF" d="M263.292,272.919c-7.227-9.343-3.435-75.384-2.217-83.5
			c1.217-8.117,8.547-31.433-8.498-40.653c-14.188-7.677-48.953-8.758-45.48,13.669c2.902,16.853,37.551-0.925,45.328,4.19
			c5.088,3.346,5.283,31.005-0.025,36.068c-4.412,9.97-45.16,6.686-46.791,10.824c-6.299,15.978,40.45,5.589,45.01,7.688
			c7.112,3.276,8.705,27.332,2.09,40.081c-7.269,14.009-120.134-0.313-120.134-0.313c-1.982-5.385-3.583-12.72-3.583-12.72
			s103.24,10.794,118.182,0.751c3.315-2.231,3.843-9.11,0.938-11.521c-4.469-4.568-35.179,0.166-43.096-5.283
			c-4.88-1.502-10.067-16.105-5.814-28.94c3.683-11.118,38.309-0.487,49.585-10.6c0.521-0.471,2.396-4.536,1.686-9.5
			c-0.71-4.968-34.833,2.609-41.791-1.279c-3.07-1.715-13.27-12.572-7.992-35.158c3.121-13.354,25.313-14.523,25.313-14.523
			s17.776-2.649,34.601,7.533c8.339,5.047,14.188,13.761,14.002,25.404c-0.292,18.12-3.02,17.458-4.943,47.705
			c-5.86,74.491,20.931,47.646,41.416,36.035c6.996-13.915-19.824-0.501-26.884-5.145c-4.616-3.038-4.794-28.143,0.023-32.738
			c6.211-14.036,40.492-4.807,42.471-9.826c5.718-14.5-36.716-5.073-40.854-6.979c-6.457-2.974-7.9-24.809-1.896-36.381
			c6.596-12.715,25.752-21.542,25.752-21.542c1.798,4.887-7.166,23.573-20.729,32.691c-3.012,2.024-3.486,8.268-0.852,10.457
			c4.057,4.146,31.932-0.15,39.117,4.796c4.43,1.363,9.137,14.619,5.277,26.269c-3.344,10.091-34.771,0.442-45.008,9.622
			c-1.145,1.03-1.009,9.379-1.009,9.379l-0.522-0.757c1.231,8.598,0.728,5.509,0.522,0.757c4.148,2.879,27.677-0.977,33.571,2.317
			c2.787,1.559,4.665,12.249-2.516,31.32C313.738,273.218,274.866,287.884,263.292,272.919z"/>
		<path display="inline" fill="#FFFFFF" d="M262.467,288.884c0-0.028,0.052-0.066,0.129-0.109
			C262.731,290.115,262.793,290.473,262.467,288.884z"/>
	</g>
</g>
</svg>
