<?xml version="1.0" encoding="utf-8"?>
<!-- Generator: Adobe Illustrator 14.0.0, SVG Export Plug-In . SVG Version: 6.00 Build 43363)  -->
<!DOCTYPE svg PUBLIC "-//W3C//DTD SVG 1.1//EN" "http://www.w3.org/Graphics/SVG/1.1/DTD/svg11.dtd">
<svg version="1.1" xmlns="http://www.w3.org/2000/svg" xmlns:xlink="http://www.w3.org/1999/xlink" x="0px" y="0px"
	 width="300.973px" height="300.969px" viewBox="0 0 300.973 300.969" enable-background="new 0 0 300.973 300.969"
	 xml:space="preserve">
<g id="bgd_1_">
	<g>
		<g>
			<g>
				<circle fill-rule="evenodd" clip-rule="evenodd" fill="#B1DCDF" cx="150.486" cy="150.485" r="150.485"/>
			</g>
		</g>
	</g>
</g>
<g id="mouth">
	<path display="none" fill="#00A4BD" d="M57.905,166.805l18.596,1.979l-0.012,14.526l7.816,0.326l2.259,7.138l-10.081,0.682
		l-0.024,31.511h46.801v41.187l80.5-16.849v-31.99c0,0,79.648-44.059,37.229-129.823c-19.484-23.001-27.472-39.029-89.859-40.37
		C61.944,48.065,57.905,166.805,57.905,166.805z"/>
	<path fill="#00A4BD" d="M98.169,50.533c-3.712,3.693-15.578,14.852-18.813,26.403c-4.621,16.503-7.838,26.816-0.66,41.916
		c3.407,7.166-19.803,37.295-17.163,43.236c2.641,5.94,18.309,6.293,18.309,6.293s2.319,7.155-0.366,14.834
		c-0.68,1.942-1.522,3.956,7.957,4.452c2.299,0.119-6.181,0.783-6.609,3.241c-0.338,1.941,4.435,5.922,4.384,7.897
		c-0.175,6.735-3.832,14.174-2.434,16.973c4.834,9.678,42.38,3.96,42.38,3.96s-3.801,8.454-1.406,12.979
		c4.456,8.416,14.278,24.079,14.278,24.079l78.282-21.91c0,0-11.336-26.14-11.786-36.345c-0.677-15.354,1.674-35.089,6.836-35.563
		C316.328,111.261,195.532-29.337,98.169,50.533z"/>
	<path fill-rule="evenodd" clip-rule="evenodd" fill="#FFFFFF" d="M107.16,181.99c0,0,36.618,4.814,42.629,10.398
		c7.105,5.122,9.739,15.521,11.581,25.62c3.454,16.851,6.088,30.791,6.088,30.791l-12.019,3.249c0,0-3.684-25.655-7.194-39.765
		c-2.063-8.294-5.564-10.344-9.536-12.566c-9.273-5.19-30.358-7.349-30.358-7.349L107.16,181.99z"/>
	<g id="cavite">
		<path fill-rule="evenodd" clip-rule="evenodd" fill="#FFFFFF" d="M110.186,192.74c0,6.514-4.118,8.201-9.886,8.825
			c-5.77,0.623-13.352-3.172-10.343-9.815l-0.787-5.083c-4.202-7.746,2.321-14.581,11.13-13.567
			c6.121,0.705,9.886,2.312,9.886,8.825V192.74z"/>
	</g>
	<g id="Layer_5">
	</g>
</g>
</svg>
