<?xml version="1.0" encoding="utf-8"?>
<!-- Generator: Adobe Illustrator 14.0.0, SVG Export Plug-In . SVG Version: 6.00 Build 43363)  -->
<!DOCTYPE svg PUBLIC "-//W3C//DTD SVG 1.1//EN" "http://www.w3.org/Graphics/SVG/1.1/DTD/svg11.dtd">
<svg version="1.1" id="groundwater" xmlns="http://www.w3.org/2000/svg" xmlns:xlink="http://www.w3.org/1999/xlink" x="0px"
	 y="0px" width="774px" height="744px" viewBox="0 0 774 744" enable-background="new 0 0 774 744" xml:space="preserve">
<ellipse id="bgd" display="none" fill-rule="evenodd" clip-rule="evenodd" fill="#C8E9EB" cx="374.921" cy="371.232" rx="360.827" ry="358.401"/>
<g>
	<defs>
		<ellipse id="SVGID_1_" cx="375.921" cy="373.232" rx="360.827" ry="358.401"/>
	</defs>
	<clipPath id="SVGID_2_">
		<use xlink:href="#SVGID_1_"  overflow="visible"/>
	</clipPath>
	
		<rect x="8.367" y="126.501" clip-path="url(#SVGID_2_)" fill-rule="evenodd" clip-rule="evenodd" fill="#3B6B5F" width="765.077" height="765.076"/>
	
		<circle display="none" opacity="0.19" clip-path="url(#SVGID_2_)" fill-rule="evenodd" clip-rule="evenodd" fill="#0E93D2" cx="400.14" cy="886.444" r="696"/>
	<circle clip-path="url(#SVGID_2_)" fill-rule="evenodd" clip-rule="evenodd" fill="#02A4BD" cx="400.14" cy="886.444" r="536"/>
	
		<circle display="none" clip-path="url(#SVGID_2_)" fill-rule="evenodd" clip-rule="evenodd" fill="#0E93D2" cx="400.14" cy="886.444" r="344"/>
	<g id="herb_4_" clip-path="url(#SVGID_2_)">
		<g>
			<path fill="#3B6B5F" d="M552.404,172.162c-0.016-0.234-0.03-0.469-0.045-0.705c0.114,1.625,0.212,3.255,0.292,4.89
				c-0.007-0.141-0.01-0.283-0.017-0.424C552.572,174.665,552.488,173.414,552.404,172.162z M552.843,181.448
				c-0.023-0.935-0.068-1.864-0.104-2.796c-0.01-0.278-0.022-0.556-0.032-0.835c0.054,1.268,0.106,2.536,0.138,3.809
				C552.844,181.567,552.844,181.507,552.843,181.448z M551.948,166.417c0.146,1.587,0.28,3.178,0.395,4.774
				c-0.015-0.238-0.028-0.477-0.046-0.715C552.196,169.119,552.074,167.768,551.948,166.417z M103.533,176.163
				c-0.013,0.259-0.019,0.519-0.03,0.778c0.061-1.31,0.132-2.616,0.215-3.919c-0.003,0.056-0.007,0.111-0.011,0.167
				C103.646,174.179,103.581,175.168,103.533,176.163z M103.333,181.562c-0.002,0.101-0.001,0.203-0.004,0.304
				c0.023-0.985,0.062-1.966,0.099-2.948c-0.004,0.122-0.01,0.244-0.014,0.366C103.387,180.043,103.352,180.801,103.333,181.562z
				 M551.304,160.316c-0.021-0.18-0.04-0.361-0.063-0.541c-0.206-1.677-0.433-3.348-0.676-5.013
				c-0.014-0.092-0.025-0.184-0.039-0.276c-0.252-1.71-0.524-3.414-0.815-5.111c-0.009-0.05-0.017-0.101-0.025-0.152
				c-0.291-1.691-0.602-3.376-0.931-5.056c-0.01-0.047-0.019-0.095-0.027-0.143h-0.05c-0.715-3.904-1.652-7.976-2.895-11.965
				c-1.949-6.258-6.109-9.612-6.109-9.612s-12.508,11.042-13.5,16.958s-10.564-71.294-64.918-87.947
				c41.955,46.938,42.781,77.446,39.486,95.748c-0.596,0.123-1.195,0.249-1.807,0.378c-0.857-5.746-3.473-13.187-13.07-30.593
				c-14.035-25.452-21.484-27.214-31.369-33.904c21.74,24.518,15.453,43.36,13.857,55.92
				c-15.068-11.168-35.207-35.919-18.857-79.471c-5.941,10.604-20.998,14.095-23.338,47.951
				c-1.457,21.084-1.094,30.837,0.084,37.702c-13.492-6.486-52.214-30.042-58.571-86.213c-1.662,12.024-12.025,23.746-1.832,56.138
				c4.354,13.838,7.555,22.389,10.301,28.329l-3.697-0.227c-15.069-6.624-63.443-34.592-43.406-114.634
				c-20.026,21.075-16.825,73.208-16.825,73.208S307,101.496,281.39,71.473c11.316,28.396,15.885,54.92,13.698,65.962
				c-0.069,0.349-14.036,0.177-14.036,0.177c-9.968-9.065-36.443-37.128-21.827-81.719c-6.63,9.33-17.013,15.282-18.04,41.947
				c-0.957,24.855,0.665,28.986,4.171,35.507c-15.101-11.04-35.681-35.832-19.202-79.726c-5.943,10.604-20.999,14.095-23.338,47.952
				c-1.057,15.283-1.154,24.604-0.682,31.196c0,0-18.992-21.323-18.98-19.815c0.043,5.792-1.014,21.051-1.447,20.522
				c-2.705-3.287-13.016-14.736-15.674-19.301c-5.172-0.006-44.991,32.641-45.568,32.601c-7.006-17.963-4.298-9.493-6.967-24.683
				c-2.949,9.373-4.967,17.232-6.188,23.8c-0.074-0.004-0.143-0.009-0.217-0.014c-0.299,1.593-0.579,3.193-0.844,4.798
				c-0.021,0.124-0.042,0.247-0.062,0.371c-0.244,1.492-0.471,2.99-0.685,4.491c-0.04,0.28-0.08,0.56-0.119,0.84
				c-0.191,1.381-0.37,2.766-0.536,4.154c-0.052,0.433-0.101,0.866-0.149,1.3c-0.144,1.267-0.279,2.535-0.402,3.808
				c-0.057,0.593-0.107,1.188-0.16,1.783c-0.011,0.128-0.021,0.256-0.031,0.384c32.239,2.012,45.342,4.439,73.221,0.844
				c92.91-11.979,120.256,23.654,271.153,8.698c68.54-6.794,38.296-11.062,103.434-11.32c-0.027-0.311-0.052-0.622-0.083-0.932
				C551.674,163.499,551.495,161.906,551.304,160.316z M103.767,172.254c0.091-1.367,0.195-2.731,0.31-4.092
				c-0.078,0.896-0.156,1.792-0.221,2.691C103.823,171.319,103.796,171.787,103.767,172.254z"/>
		</g>
	</g>
	<g id="herb_1_" clip-path="url(#SVGID_2_)">
		<g>
			<path fill="#3B6B5F" d="M952.404,172.162c-0.016-0.234-0.03-0.469-0.045-0.705c0.114,1.625,0.212,3.255,0.292,4.89
				c-0.007-0.141-0.01-0.283-0.017-0.424C952.572,174.665,952.488,173.414,952.404,172.162z M952.843,181.448
				c-0.023-0.935-0.068-1.864-0.104-2.796c-0.01-0.278-0.022-0.556-0.032-0.835c0.054,1.268,0.106,2.536,0.138,3.809
				C952.844,181.567,952.844,181.507,952.843,181.448z M951.304,160.316c-0.021-0.18-0.04-0.361-0.063-0.541
				c-0.206-1.677-0.433-3.348-0.676-5.013c-0.014-0.092-0.025-0.184-0.039-0.276c-0.252-1.71-0.524-3.414-0.815-5.111
				c-0.009-0.05-0.017-0.101-0.025-0.152c-0.291-1.691-0.602-3.376-0.931-5.056c-0.01-0.047-0.019-0.095-0.027-0.143h-0.05
				c-0.715-3.904-1.652-7.976-2.895-11.965c-1.949-6.258-6.109-9.612-6.109-9.612s-12.508,11.042-13.5,16.958
				s-10.564-71.294-64.918-87.947c41.955,46.938,42.781,77.446,39.486,95.748c-0.596,0.123-1.195,0.249-1.807,0.378
				c-0.857-5.746-3.473-13.187-13.07-30.593c-14.035-25.452-21.484-27.214-31.369-33.904c21.74,24.518,15.453,43.36,13.857,55.92
				c-15.068-11.168-35.207-35.919-18.857-79.471c-5.941,10.604-20.998,14.095-23.338,47.951
				c-1.457,21.084-1.094,30.837,0.084,37.702c-13.492-6.486-52.215-30.042-58.57-86.213c-1.662,12.024-12.025,23.746-1.832,56.138
				c4.354,13.838,7.555,22.389,10.301,28.329l-3.697-0.227c-15.07-6.624-63.443-34.592-43.406-114.634
				c-20.027,21.075-16.826,73.208-16.826,73.208s-5.211-0.296-30.82-30.319c11.316,28.396,15.885,54.92,13.697,65.962
				c-0.068,0.349-14.035,0.177-14.035,0.177c-9.969-9.065-36.443-37.128-21.828-81.719c-6.629,9.33-17.012,15.282-18.039,41.947
				c-0.957,24.855,0.664,28.986,4.17,35.507c-15.1-11.04-35.68-35.832-19.201-79.726c-5.943,10.604-21,14.095-23.338,47.952
				c-1.057,15.283-1.154,24.604-0.682,31.196c0,0-18.992-21.323-18.98-19.815c0.043,5.792-1.014,21.051-1.447,20.522
				c-2.705-3.287-13.016-14.736-15.674-19.301c-5.172-0.006-44.992,32.641-45.568,32.601c-7.006-17.963-4.299-9.493-6.967-24.683
				c-2.949,9.373-4.967,17.232-6.188,23.8c-0.074-0.004-0.143-0.009-0.217-0.014c-0.299,1.593-0.579,3.193-0.844,4.798
				c-0.021,0.124-0.042,0.247-0.063,0.371c-0.244,1.492-0.47,2.99-0.685,4.491c-0.04,0.28-0.079,0.56-0.118,0.84
				c-0.191,1.381-0.369,2.766-0.535,4.154c-0.052,0.433-0.101,0.866-0.15,1.3c-0.144,1.267-0.279,2.535-0.401,3.808
				c-0.057,0.593-0.107,1.188-0.159,1.783c-0.012,0.128-0.021,0.256-0.031,0.384c32.239,2.012,45.341,4.439,73.221,0.844
				c92.91-11.979,120.256,23.654,271.152,8.698c68.54-6.794,38.296-11.062,103.434-11.32c-0.027-0.311-0.052-0.622-0.083-0.932
				C951.674,163.499,951.495,161.906,951.304,160.316z M951.948,166.417c0.146,1.587,0.28,3.178,0.395,4.774
				c-0.015-0.238-0.028-0.477-0.046-0.715C952.196,169.119,952.074,167.768,951.948,166.417z M503.334,181.562
				c-0.002,0.093-0.001,0.188-0.004,0.281c0.023-0.972,0.062-1.94,0.098-2.908c-0.004,0.117-0.01,0.233-0.014,0.349
				C503.388,180.043,503.353,180.801,503.334,181.562z M503.769,172.236c0.087-1.3,0.187-2.597,0.294-3.892
				c-0.071,0.835-0.145,1.67-0.206,2.509C503.823,171.313,503.797,171.775,503.769,172.236z M503.533,176.163
				c-0.013,0.256-0.019,0.513-0.029,0.769c0.06-1.294,0.131-2.586,0.213-3.875c-0.003,0.043-0.006,0.087-0.009,0.131
				C503.646,174.179,503.582,175.168,503.533,176.163z"/>
		</g>
	</g>
	
		<circle id="limit" clip-path="url(#SVGID_2_)" fill-rule="evenodd" clip-rule="evenodd" fill="none" stroke="#FFFFFF" stroke-width="28" stroke-miterlimit="9" stroke-dasharray="50" cx="412.14" cy="879.444" r="536"/>
</g>
<g id="drops">
	<path id="drop_5_" fill-rule="evenodd" clip-rule="evenodd" fill="#FFFFFF" d="M509.226,423.499
		c9.307,33.895,22.096,45.907,38.189,78.697c15.626,31.831-7.523,63.814-38.189,63.814c-30.665,0-53.813-31.984-38.191-63.814
		C487.132,469.406,499.924,457.393,509.226,423.499z"/>
	<path id="drop_8_" fill-rule="evenodd" clip-rule="evenodd" fill="#FFFFFF" d="M389.592,502.127
		c9.31,33.894,22.098,45.906,38.192,78.696c15.626,31.831-7.524,63.815-38.192,63.815c-30.664,0-53.812-31.985-38.19-63.815
		C367.498,548.033,380.291,536.021,389.592,502.127z"/>
	<path id="drop_6_" fill-rule="evenodd" clip-rule="evenodd" fill="#FFFFFF" d="M262.419,423.499
		c9.31,33.895,22.098,45.907,38.191,78.697c15.626,31.831-7.524,63.814-38.191,63.814c-30.663,0-53.811-31.984-38.19-63.814
		C240.325,469.406,253.117,457.393,262.419,423.499z"/>
</g>
</svg>
