<?xml version="1.0" encoding="utf-8"?>
<!-- Generator: Adobe Illustrator 14.0.0, SVG Export Plug-In . SVG Version: 6.00 Build 43363)  -->
<!DOCTYPE svg PUBLIC "-//W3C//DTD SVG 1.1//EN" "http://www.w3.org/Graphics/SVG/1.1/DTD/svg11.dtd">
<svg version="1.1" xmlns="http://www.w3.org/2000/svg" xmlns:xlink="http://www.w3.org/1999/xlink" x="0px" y="0px"
	 width="505.883px" height="505.883px" viewBox="0 0 505.883 505.883" enable-background="new 0 0 505.883 505.883"
	 xml:space="preserve">
<g id="deafult">
	<g id="monocolor">
		<rect x="102.753" y="260.759" fill="#02A4BD" width="24.087" height="24.087"/>
		<rect x="94.188" y="198.536" fill="#02A4BD" width="24.086" height="24.086"/>
		<rect x="86.891" y="231.424" fill="#02A4BD" width="24.085" height="24.087"/>
		<rect x="106.957" y="166.138" fill="#02A4BD" width="24.085" height="24.087"/>
		<rect x="192.973" y="417.888" fill="#02A4BD" width="24.087" height="24.085"/>
		<rect x="207.052" y="364.616" fill="#02A4BD" width="24.088" height="24.087"/>
		<rect x="160.4" y="384.051" fill="#02A4BD" width="24.085" height="24.086"/>
		<rect x="195.356" y="331.882" fill="#02A4BD" width="24.087" height="24.088"/>
		<rect x="367.723" y="234.646" fill="#02A4BD" width="24.087" height="24.087"/>
		<rect x="239.575" y="123.02" fill="#02A4BD" width="24.086" height="24.087"/>
		<path fill="#02A4BD" d="M252.942,0C113.247,0,0,113.246,0,252.94c0,139.695,113.247,252.942,252.942,252.942
			c139.694,0,252.941-113.247,252.941-252.942C505.883,113.246,392.636,0,252.942,0z M204.269,75.142
			c0-8.869,7.189-16.059,16.059-16.059h115.845c8.868,0,16.058,7.19,16.058,16.059v76.274c0,8.868-7.189,16.058-16.058,16.058
			H220.327c-8.87,0-16.059-7.189-16.059-16.058V75.142z M109.568,320.605c-24.83,0-44.96-20.129-44.96-44.958v-95.022
			c0-24.829,20.13-44.958,44.96-44.958h1.841c24.829,0,44.958,20.129,44.958,44.958v95.022c0,24.829-20.129,44.958-44.958,44.958
			H109.568z M207.646,471.502c-44.574,0-80.708-36.134-80.708-80.708c0-44.575,36.134-80.71,80.708-80.71
			c44.575,0,80.71,36.135,80.71,80.71C288.356,435.368,252.222,471.502,207.646,471.502z M441.166,319.562
			c0.044,0.017,0.065,0.032,0.057,0.044C441.214,319.62,441.193,319.602,441.166,319.562c-1.318-0.498-25.245-2.735-37.081-10.406
			c6.311,8.898,9.295,38.537,9.79,39.736c0.031,0.024,0.047,0.042,0.035,0.052c-0.011,0.006-0.021-0.021-0.035-0.052
			c-0.947-0.703-20.527-7.956-31.318-25.056c1.785,18.8-7.247,38.293-7.443,39.504c-0.414-1.222-17.487-25.023-17.541-34.628
			c-1.282,10.158-22.231,33.989-23.022,35.431c0.058-1.627-5.495-29.086-2.339-41.493c-5.566,9.842-33.75,22.861-35.031,23.863
			c0.609-1.444,5.059-28.317,14.306-37.911c-16.604,6.275-39.895,6.174-41.301,6.525c-0.039,0.037-0.065,0.052-0.072,0.039
			c-0.008-0.014,0.021-0.028,0.072-0.039c1.2-1.146,16.874-24.734,28.103-29.24c-14.954-0.063-38.496-10.183-40.058-10.459
			c-0.058,0.018-0.086,0.021-0.089,0.007c-0.001-0.017,0.033-0.016,0.089-0.007c1.709-0.548,28.188-15.813,38.275-15.624
			c-10.434-2.786-31.624-24.515-33.129-25.526c-0.058-0.007-0.092-0.018-0.086-0.032c0.005-0.016,0.035-0.002,0.086,0.032
			c1.694,0.22,29.293-2.388,40.981,0.687c-9.019-7.139-18.732-34.742-19.631-36.187c-0.047-0.026-0.072-0.045-0.062-0.057
			c0.01-0.011,0.031,0.01,0.062,0.057c1.4,0.776,27.205,8.043,35.76,16.994c-4.027-12.316-1.656-39.066-1.879-40.687
			c-0.033-0.045-0.047-0.076-0.033-0.082c0.016-0.006,0.025,0.025,0.033,0.082c0.926,1.292,20.335,18.084,26.293,30.408
			c1.108-16.186,12.908-37.023,13.305-38.451c-0.014-0.052-0.016-0.084,0.002-0.083c0.016,0.001,0.012,0.032-0.002,0.083
			c0.374,1.503,12.185,24.253,13.22,41.303c8.338-15.467,30.141-30.007,31.227-31.154c0.015-0.051,0.027-0.081,0.043-0.073
			c0.012,0.007-0.003,0.033-0.043,0.073c-0.387,1.485-0.629,26.398-6.258,41.847c11.084-11.487,38.384-14.191,39.872-14.675
			c0.03-0.036,0.053-0.054,0.065-0.042c0.009,0.011-0.016,0.025-0.065,0.042c-0.876,1.026-9.906,20.934-21.386,32.626
			c20.394-1.779,38.154,4.114,39.409,4.187c0.044-0.024,0.075-0.034,0.079-0.018c0.006,0.018-0.028,0.021-0.079,0.018
			c-1.209,0.645-16.701,15.362-32.002,20.716c17.163,6.388,31.526,19.116,32.652,19.67c0.049-0.005,0.08-0.003,0.078,0.015
			c-0.004,0.018-0.035,0.008-0.078-0.015c-1.242,0.142-18.803,7.489-37.292,6.313C431.352,296.625,440.353,318.446,441.166,319.562z
			"/>
		<rect x="386.083" y="269.571" fill="#02A4BD" width="24.088" height="24.086"/>
		<rect x="291.159" y="79.53" fill="#02A4BD" width="24.086" height="24.087"/>
		<rect x="239.899" y="377.385" fill="#02A4BD" width="24.087" height="24.087"/>
		<rect x="344.792" y="295.021" fill="#02A4BD" width="24.085" height="24.086"/>
		<rect x="279.888" y="113.186" fill="#02A4BD" width="24.087" height="24.087"/>
		<rect x="255.698" y="77.159" fill="#02A4BD" width="24.086" height="24.087"/>
		<rect x="325.971" y="234.782" fill="#02A4BD" width="24.086" height="24.088"/>
	</g>
</g>
<g id="palette">
	<rect x="-220.154" y="426.667" fill-rule="evenodd" clip-rule="evenodd" fill="#02A4BD" width="75.871" height="75.874"/>
	<rect x="-217.834" y="330.85" fill-rule="evenodd" clip-rule="evenodd" fill="#B3DCDF" width="75.871" height="75.873"/>
	<rect x="-217.834" y="238.864" fill-rule="evenodd" clip-rule="evenodd" fill="#7DC47A" width="75.871" height="75.873"/>
	<rect x="-121.689" y="426.667" fill="#FFFFFF" stroke="#010101" width="75.871" height="75.874"/>
	<rect x="-122.735" y="326.4" fill-rule="evenodd" clip-rule="evenodd" fill="#3B6B5F" width="75.872" height="75.874"/>
</g>
</svg>
