<?xml version="1.0" encoding="utf-8"?>
<!-- Generator: Adobe Illustrator 14.0.0, SVG Export Plug-In . SVG Version: 6.00 Build 43363)  -->
<!DOCTYPE svg PUBLIC "-//W3C//DTD SVG 1.1//EN" "http://www.w3.org/Graphics/SVG/1.1/DTD/svg11.dtd">
<svg version="1.1" id="marine" xmlns="http://www.w3.org/2000/svg" xmlns:xlink="http://www.w3.org/1999/xlink" x="0px" y="0px"
	 width="511.537px" height="512.416px" viewBox="0 0 511.537 512.416" enable-background="new 0 0 511.537 512.416"
	 xml:space="preserve">
<g id="sky">
	<g>
		<path fill-rule="evenodd" clip-rule="evenodd" fill="#B3DCDF" d="M255.877,0C114.679,0,0.215,114.462,0.215,255.658
			s117.46,256.745,258.659,256.745s252.663-115.549,252.663-256.745S397.075,0,255.877,0z"/>
	</g>
</g>
<g id="ocean">
	<g>
		<path fill-rule="evenodd" clip-rule="evenodd" fill="#02A4BD" d="M453.964,94.051c13.945,14.903-14.345,50.089-52.702,50.089
			c-38.358,0-64.427-61.767-64.427-61.767s-24.408,62.187-73.229,62.187c-48.819,0-82.528-62.187-82.528-62.187
			s-25.572,62.187-74.391,62.187c-48.819,0-58.313-39.087-48.925-50.508C-79.005,260.426,42.583,512.416,260.281,512.416
			c94.172-1.031,187.506-51.031,232.619-159.503C539.12,235.051,488.713,131.186,453.964,94.051z"/>
	</g>
</g>
<g id="wave">
	<g>
		<path fill-rule="evenodd" clip-rule="evenodd" fill="#FFFFFF" d="M221.864,223.509c-0.02,0.105-12.98,26.374-37.83,8.467
			c-13.081-9.425-33.914-34.381-33.914-34.381s-18.5,24.622-32.376,34.381c-24.836,17.467-37.137-8.124-38.569-8.467
			c-0.121-0.028-2.956,33.433,27.898,33.433s40.269-26.241,43.046-31.817c2.2,5.577,11.667,31.817,44.585,31.817
			C225.454,256.942,221.885,223.388,221.864,223.509z"/>
	</g>
</g>
<g id="wave_2_">
	<g>
		<path fill="#FFFFFF" d="M450.864,281.509c-0.02,0.104-12.98,26.374-37.83,8.468c-13.08-9.426-33.914-34.381-33.914-34.381
			s-18.5,24.621-32.376,34.381c-24.837,17.467-37.137-8.124-38.569-8.468c-0.12-0.028-2.955,33.433,27.898,33.433
			c30.855,0,40.27-26.24,43.047-31.816c2.2,5.576,11.667,31.816,44.585,31.816C454.454,314.941,450.886,281.388,450.864,281.509z"/>
	</g>
</g>
<g id="wave_4_">
	<g>
		<path fill-rule="evenodd" clip-rule="evenodd" fill="#FFFFFF" d="M283.864,381.509c-0.02,0.104-12.98,26.374-37.83,8.468
			c-13.08-9.426-33.914-34.381-33.914-34.381s-18.5,24.621-32.376,34.381c-24.837,17.467-37.137-8.124-38.569-8.468
			c-0.12-0.028-2.955,33.433,27.898,33.433c30.855,0,40.27-26.24,43.047-31.816c2.2,5.576,11.667,31.816,44.585,31.816
			C287.454,414.941,283.886,381.388,283.864,381.509z"/>
	</g>
</g>
</svg>
