<?xml version="1.0" encoding="utf-8"?>
<!-- Generator: Adobe Illustrator 14.0.0, SVG Export Plug-In . SVG Version: 6.00 Build 43363)  -->
<!DOCTYPE svg PUBLIC "-//W3C//DTD SVG 1.1//EN" "http://www.w3.org/Graphics/SVG/1.1/DTD/svg11.dtd">
<svg version="1.1" id="Fish" xmlns="http://www.w3.org/2000/svg" xmlns:xlink="http://www.w3.org/1999/xlink" x="0px" y="0px"
	 width="389.391px" height="389.387px" viewBox="0 0 389.391 389.387" enable-background="new 0 0 389.391 389.387"
	 xml:space="preserve">
<g id="Shape_64_copy_29">
	<g>
		<circle fill-rule="evenodd" clip-rule="evenodd" fill="#B3DCDF" cx="194.695" cy="194.693" r="194.693"/>
	</g>
</g>
<g>
	<path fill="#02A4BD" d="M231.039,165.732c0.986,0,1.641,0.169,1.973,0.493c1.641,0.663,2.787,2.796,3.449,6.409
		c0.656,3.621,0.494,6.902-0.492,9.859c-0.33,1.648-0.662,2.634-0.986,2.958c-1.648,0.986-1.479,1.81,0.494,2.465
		c10.182,1.648,20.373,3.127,30.564,4.437c2.295,0.331,7.555-0.493,15.775-2.465c1.641-0.655,4.436-1.802,8.379-3.451
		c3.945-1.972,6.24-3.12,6.902-3.451c5.254-2.295,9.613-3.281,13.064-2.958c3.449,0.332,5.914,0.986,7.395,1.972
		c1.479,0.986,2.541,1.972,3.203,2.958c0.986,2.958-0.662,6.579-4.93,10.845c-2.633,2.634-4.684,4.684-6.162,6.162
		c-1.479,1.479-2.549,2.55-3.203,3.204c-0.986,0.986-1.564,1.564-1.727,1.726c-0.17,0.169-0.33,0.578-0.492,1.232
		c-0.17,0.663-0.17,1.317,0,1.972c0.162,0.662,0.408,1.402,0.738,2.219c0.324,0.824,1.064,1.811,2.219,2.958
		c1.148,1.155,2.543,2.388,4.191,3.697c3.943,3.62,5.746,7.479,5.422,11.585c-0.33,4.113-1.811,6.493-4.438,7.147
		c-3.289,0.986-7.725-0.161-13.309-3.45c-0.332,0-1.402-0.57-3.205-1.726c-1.811-1.147-3.373-2.049-4.684-2.712
		c-3.619-2.295-6.246-3.773-7.887-4.437c-0.986-0.654-4.113-2.295-9.367-4.93c-6.246-2.958-11.832-4.437-16.762-4.437
		c-1.971,0-2.957-0.162-2.957-0.493c0.324,0.331,0.408,0.909,0.246,1.726c-0.17,0.824-0.416,1.479-0.738,1.972
		c-0.332,0.493-0.494,1.071-0.494,1.726c0,1.648-1.316,3.451-3.943,5.423c-0.332,0-2.957,2.057-7.887,6.162
		c-4.932,4.113-7.727,6.331-8.381,6.655c-1.648,0.662-3.289,1.479-4.93,2.465c-1.973,0.985-3.129,1.479-3.451,1.479l-0.494,0.493
		c-3.289,0.662-6.738-0.655-10.352-3.944c0-0.323-1.725-2.38-5.176-6.162c-3.451-3.773-5.508-5.83-6.162-6.162
		c-0.662-0.654-1.479-0.816-2.465-0.492c-4.93,0.985-7.564,1.648-7.889,1.972c-0.662,0.662-0.824,0.985-0.492,0.985
		c0.654,0,0.654,2.142,0,6.409c-0.332,3.289-2.303,4.437-5.916,3.45l-13.803-6.408h-8.38c-13.803,0-25.142-1.479-34.015-4.437
		c-0.663,0-2.881-0.57-6.655-1.726c-3.782-1.147-8.38-2.465-13.803-3.943c-5.423-1.479-10.275-3.035-14.543-4.684
		c-7.564-2.295-13.148-5.092-16.761-8.381c-2.958-2.626-4.768-5.091-5.423-7.395c-0.663-1.641-1.155-2.541-1.479-2.711
		c-0.331-0.162-0.493-0.901-0.493-2.219c0-1.309,0.324-2.295,0.986-2.957c0.986-1.31,4.105-3.12,9.366-5.423
		c2.958-1.31,7.718-2.789,14.296-4.437c5.584-0.986,11.338-2.295,17.254-3.944c0.324,0,1.479-0.162,3.451-0.493
		c1.972-0.324,3.943-0.74,5.916-1.232c1.972-0.493,3.281-0.74,3.944-0.74c19.056-3.612,37.79-4.437,56.199-2.465
		c8.542,1.648,14.79,1.317,18.733-0.986c0.986-0.323,4.191-1.479,9.613-3.451s8.295-2.958,8.627-2.958
		C222.658,166.718,226.763,165.732,231.039,165.732z M85.365,193.585c0.162-0.162,0.246-0.247,0.246-0.247s0.162,0,0.493,0
		c0.324,0,0.493,0.17,0.493,0.493h0.986h0.493c-0.331,0-0.662,0.17-0.986,0.493l-0.493,0.493c-0.332,0-0.663,0.169-0.986,0.492
		c-0.331,0.332-0.662,0.986-0.986,1.973c0.324,0.331,0.324,0.492,0,0.492v-0.492l-0.493-0.493c0-0.323,0-0.655,0-0.986
		c0-0.323,0.162-0.739,0.493-1.232C84.949,194.077,85.195,193.754,85.365,193.585z M87.09,201.226
		c0.324,0.331,1.148,0.662,2.465,0.986v0.985c0,0.331-0.416,0.578-1.232,0.739c-0.824,0.17-1.232,0.085-1.232-0.246
		c-0.331-0.324-0.493-0.739-0.493-1.232S86.759,201.557,87.09,201.226z M93.499,192.353c0,0-0.084,0-0.247,0
		c-0.169,0-0.416,0.169-0.739,0.492c-0.663,0.663-1.155,0.986-1.479,0.986l-0.986,0.493c0.655-0.323,1.232-0.077,1.725,0.739
		c0.493,0.824,0.901,1.726,1.232,2.711c0.324,0.986,0.324,1.648,0,1.973l0.986-2.958c0,0.331,0.323,0.331,0.986,0h0.493
		c0.323,0,0.493-0.247,0.493-0.739c0-0.493-0.169-0.901-0.493-1.232c-0.332-0.655-0.824-1.31-1.479-1.973
		C93.661,192.521,93.499,192.353,93.499,192.353z M94.978,198.761c0.986,0.986,1.31,1.811,0.986,2.465
		c-0.663,0.662-1.155,0.986-1.479,0.986v0.492c-0.986,0.332-1.725,0.578-2.218,0.74c-0.493,0.169-0.909-0.247-1.232-1.232
		c1.641,0,2.295-0.986,1.972-2.958L94.978,198.761z M160.543,183.972c-14.466,0-24.648,0.331-30.564,0.986
		c-2.303,0.332-4.606,0.493-6.901,0.493c-2.303,0-4.437,0.247-6.409,0.739c-1.972,0.493-3.621,0.74-4.93,0.74
		c-0.663,0-1.479-0.077-2.465-0.247c-0.986-0.162-1.648-0.247-1.972-0.247c-0.331,0-0.493,0.169-0.493,0.493
		c0.986,0.662,1.802,1.317,2.465,1.972c0.655,0.663,1.147,0.986,1.479,0.986c1.972-0.323,5.747-0.986,11.338-1.972
		c1.641-0.324,4.106-0.655,7.395-0.986c1.972-0.324,14.211-0.493,36.727-0.493c22.507,0,34.755,0.169,36.726,0.493
		c1.311,0,1.973-0.162,1.973-0.493c-1.648-0.986-7.232-1.479-16.762-1.479c-6.247-0.323-11.338-0.655-15.282-0.986
		C170.233,183.972,166.128,183.972,160.543,183.972z M163.994,192.845c-13.803,0-22.184,0.17-25.142,0.493
		c-7.888,0.663-14.134,0.824-18.733,0.493c-0.663,0-1.563-0.077-2.711-0.246c-1.155-0.162-1.972-0.324-2.465-0.493
		c-0.493-0.162-1.402-0.247-2.711-0.247c0,0.663,0.162,1.402,0.493,2.219c0.323,0.824,0.493,1.402,0.493,1.726
		c0.324,0,1.641-0.077,3.944-0.247c2.295-0.161,3.613-0.246,3.944-0.246c0.986,0,4.105-0.077,9.367-0.246
		c5.253-0.162,9.035-0.57,11.338-1.232c1.972-0.324,9.035-0.408,21.198-0.247c12.155,0.169,18.402,0.331,18.733,0.493
		c0.324,0.17,1.726,0.17,4.19,0c2.464-0.162,4.761-0.077,6.902,0.246c2.133,0.332,5.67,0.662,10.6,0.986
		c4.93,0.331,7.641,0.578,8.133,0.739c0.494,0.169,3.859,0.247,10.105,0.247c11.832,0.331,18.896,0.824,21.199,1.479
		c2.295,0.662,4.598,0.986,6.9,0.986c4.268,0.662,6.57,0.985,6.902,0.985c0.324,0,2.465,0.247,6.408,0.739
		c3.943,0.493,6.408,0.909,7.395,1.232c1.311,0.662,2.297,0.662,2.959,0c0.322-0.323,0.322-0.654,0-0.985
		c-1.648-0.986-3.621-1.31-5.916-0.986c-1.318,0-2.143-0.077-2.465-0.246c-0.332-0.162-1.156-0.323-2.465-0.493
		c-1.318-0.162-3.127-0.408-5.424-0.739c-1.971-0.655-3.781-0.986-5.422-0.986c-1.648,0-3.943-0.323-6.902-0.985
		c-7.887-1.311-13.803-1.973-17.746-1.973c-0.662,0-2.303-0.161-4.93-0.492c-9.537-0.986-21.861-1.641-36.973-1.973
		C178.614,192.845,171.551,192.845,163.994,192.845z M129.979,203.69c-2.958,0-4.521,0.17-4.683,0.493
		c-0.169,0.331-0.085,0.739,0.247,1.232c0.323,0.493,0.655,0.577,0.986,0.246c0.324,0,3.12-0.077,8.38-0.246
		c5.253-0.162,9.197-0.077,11.832,0.246c2.958,0,5.916,0.169,8.874,0.493c2.958,0,5.584,0.17,7.888,0.493
		c3.944,0.662,10.268,0.985,18.979,0.985c8.704,0,13.226-0.161,13.556-0.492c1.311-0.655,6.656-0.816,16.023-0.493
		c9.365,0.331,17.5,0.824,24.4,1.479c3.613,0.331,6.41,0.824,8.381,1.479c1.641,0.662,4.438,1.154,8.381,1.479
		c3.943,0.331,7.064,0.662,9.367,0.986c4.268,0.662,6.732,0.662,7.395,0c0.654-0.655,0.322-1.148-0.986-1.479
		c-0.662,0-1.811-0.161-3.451-0.493c-2.957-0.323-5.1-0.654-6.408-0.985c-1.316-0.323-4.113-0.655-8.381-0.986
		c-4.275-0.323-7.232-0.654-8.873-0.985c-6.578-1.641-25.635-2.296-57.185-1.973c-10.191,0-16.268,0-18.24,0
		c-6.901-0.985-17.423-1.479-31.55-1.479H129.979z M242.376,212.563c-0.984,0-2.141,0.17-3.449,0.493
		c-4.275,0-8.551,0.17-12.818,0.493c-16.762,0.986-25.635,1.811-26.621,2.465c-0.33,0-1.971,0.17-4.93,0.493
		c-10.521,0.985-17.253,1.317-20.211,0.985c-2.958-0.323-5.592-0.492-7.888-0.492c-2.958,0.331-5.176,0.246-6.655-0.247
		c-1.479-0.493-2.55-0.493-3.205,0c-0.662,0.493-0.986,0.824-0.986,0.986c0,0.169,0.324,0.416,0.986,0.739
		c1.31,0,2.465,0.17,3.451,0.493c1.641,0.662,7.395,0.985,17.254,0.985c9.859-0.323,15.775-0.492,17.748-0.492
		c2.627-0.324,4.105-0.655,4.436-0.986c1.311-0.323,3.451-0.654,6.41-0.986c0.984,0,3.611-0.323,7.887-0.985
		c3.943-0.323,6.902-0.655,8.873-0.986c3.281,0,6.408-0.161,9.367-0.493l9.859-0.492c2.295-0.324,3.613-0.655,3.943-0.986
		c0.324-0.323-0.17-0.654-1.479-0.986C244.017,212.563,243.363,212.563,242.376,212.563z M179.77,231.79
		c-0.663,0.662-0.331,1.648,0.986,2.957c3.281,1.973,4.93,2.304,4.93,0.986c0-0.323-0.824-0.986-2.465-1.972
		C181.572,232.775,180.424,232.121,179.77,231.79z M235.476,226.367h-2.959c-10.521,1.317-16.6,1.972-18.24,1.972
		c-1.648,0.331-1.316,0.662,0.986,0.986c1.311,0.331,2.627,0.492,3.943,0.492c4.268,0,9.035-0.985,14.297-2.957L235.476,226.367z
		 M246.814,222.423c-0.332,0-1.316,0.493-2.957,1.479c-2.305,0.662-3.945,1.155-4.93,1.479l-1.973,0.493h1.973
		c1.641-0.323,3.281-0.816,4.93-1.479c1.641-0.655,2.625-1.148,2.957-1.479V222.423z M280.583,209.113c0.492,0,1.232,0,2.217,0
		c4.268,0.331,8.211,1.479,11.832,3.45l1.479,0.986h-0.986c-1.316-0.323-2.465-0.654-3.449-0.986
		c-1.648-0.323-3.451-0.654-5.424-0.985c-4.275-0.655-6.408-1.31-6.408-1.972C279.843,209.282,280.089,209.113,280.583,209.113z
		 M282.308,217.986c0.654-0.323,1.973-0.161,3.943,0.493l1.973,1.479c-0.332,0.663-1.648,0.663-3.943,0
		c-1.973-0.654-2.959-1.309-2.959-1.972H282.308z M291.181,202.212c4.6,0,7.148,0.169,7.641,0.492c0.494,0.332,0.494,0.662,0,0.986
		c-0.492,0.331-0.984,0.416-1.479,0.246c-0.492-0.161-2.219-0.408-5.176-0.739c-4.275-0.323-6.332-0.569-6.162-0.739
		C286.167,202.296,287.892,202.212,291.181,202.212z M292.167,195.803c0.324,0,0.654,0,0.986,0c1.309,0.331,2.627,0.493,3.943,0.493
		c0.654,0,1.148,0,1.479,0c0.324,0,0.494,0.17,0.494,0.493c0,0.331-0.986,0.493-2.959,0.493c-1.971,0-3.289-0.162-3.943-0.493
		C290.519,196.134,290.519,195.803,292.167,195.803z"/>
</g>
</svg>
