<?xml version="1.0" encoding="utf-8"?>
<!-- Generator: Adobe Illustrator 14.0.0, SVG Export Plug-In . SVG Version: 6.00 Build 43363)  -->
<!DOCTYPE svg PUBLIC "-//W3C//DTD SVG 1.1//EN" "http://www.w3.org/Graphics/SVG/1.1/DTD/svg11.dtd">
<svg version="1.1" id="mammals" xmlns="http://www.w3.org/2000/svg" xmlns:xlink="http://www.w3.org/1999/xlink" x="0px" y="0px"
	 width="389.391px" height="389.387px" viewBox="0 0 389.391 389.387" enable-background="new 0 0 389.391 389.387"
	 xml:space="preserve">
<g id="Shape_64_copy_29">
	<g>
		<circle fill-rule="evenodd" clip-rule="evenodd" fill="#B3DCDF" cx="194.695" cy="194.693" r="194.693"/>
	</g>
</g>
<g id="cow">
	<g>
		<path fill="#02A4BD" d="M355.657,148.601c3.053,3.053,9.619,7.08,9.384,10.785c-0.165,2.566-2.652,2.87-4.218,4.697
			c-1.565,1.809-1.617,4.322-3.757,5.157c-11.846-2.2-19.5,5.906-30.023,7.036c-4.522,0.487-10.479-0.609-14.542,0.939
			c-7.836,2.992-15.585,15.02-19.229,21.578c-5.418,9.75-6.966,20.882-11.732,29.554c-3.062,5.583-7.627,10.558-15.473,8.444
			c-1.313,18.969-2.426,37.103,5.158,49.723c2.853,4.757,8.114,6.306,8.444,12.193c-8.818,2.688-11.958-1.992-15.95-5.627
			c-2.392-2.175-5.531-3.444-6.566-5.627c-2.375-5.027-0.252-13.081-2.349-20.169c-1.174-3.966-4.714-7.41-5.627-10.324
			c-0.887-2.844-0.139-6.496-1.879-8.914c-1.782,2.374-3.331,5.948-3.748,9.854c-0.913,8.428,0.766,23.979,2.809,28.614
			c1.923,4.34,8.02,3.349,7.506,8.444c-4.583,4.793-13.61,1.209-16.411-1.878c-0.714-0.783-0.748-2.627-1.879-4.219
			c-1.913-2.704-4.271-2.4-4.696-4.696c-0.252-1.383,1.252-4.296,1.409-6.566c0.348-4.87-0.548-10.976-2.34-15.012
			c-1.218-2.73-4.488-5.009-4.696-7.505c-0.253-3.053,2.887-6.793,3.287-10.785c0.539-5.444-0.974-11.515-4.227-13.142
			c-3.201-1.6-12.411,0.122-17.352,0.47c-13.515,0.975-25.387,1.018-37.998,0c-3.375,5.697-7.427,10.715-14.072,13.142
			c-0.209,2.914-0.583,5.671-2.349,7.036c-3.514-0.392-1.757-6.07-6.566-5.166c-4.601-0.844-2.661,4.853-6.097,5.166
			c-2.305-1.452-1.844-5.671-6.566-4.696c-7.436,19.551,8.063,30.953,13.603,43.625c-1.965,2.574-7.288,1.783-11.732,1.879
			c-5.94-3.905-8.323-11.376-14.533-15.012c-0.278-17.395-4.123-31.214-11.263-41.747c-7.393,9.906-12.142,36.79-5.627,49.253
			c1.818,3.47,7.167,5.627,6.566,10.323c-1.122,8.706-20.395,2.845-22.517-2.817c0.47-2.661,2.957-3.297,2.818-6.566
			c-4.992-3.384-3.331-6.897-2.818-14.542c0.409-6.105,0.104-14.359-0.939-22.048c-1.009-7.471-3.766-15.211-3.279-19.699
			c0.661-6.201,6.479-9.497,9.845-11.732c-0.469-4.001-3.835-6.427-5.157-10.784c-4.436-14.586,1.957-36.798-0.47-52.071
			c-2.792,11.785-3.566,26.005-4.688,38.468c-0.4,4.4-1.757,9.646-1.409,13.133c0.287,2.904,2.47,4.896,2.339,7.506
			c-0.252,5.34-6.097,8.419-7.497,13.603c-1.783,6.566,1.087,13.681-4.696,15.48c-0.174-8.271-3.383-13.507-4.218-21.107
			c0-1.097,0-2.192,0-3.288c0.079-9.071,6.506-7.749,8.915-12.663c2.531-5.184,0.783-12.95,0.931-19.238
			c0.131-5.07,1.644-11.776,2.349-18.291c0.722-6.645,1.052-13.48,2.818-17.829c0.609-1.496,2.513-2.54,3.749-4.688
			c1.148-1.992,1.217-4.575,2.348-6.097c10.028-13.542,37.024-7.828,56.289-6.097c13.167,1.174,27.135,3.487,41.286,2.339
			c9.324-0.748,18.456-2.417,27.674-3.279c19.213-1.792,38.512-3.009,57.698-4.227c9.314-0.583,18.829-0.713,27.674-3.279
			c-1.73-3.609-6.792-1.261-7.975-4.688c-1.427-4.157,2.374-7.523,6.566-7.506c5.062,0.009,6.861,5.297,11.732,4.688
			c0.113-3.401-2.592-3.983-1.879-7.976c7.566-8.767,19.343,2.192,29.084,1.879c3.688-0.122,5.122-2.696,8.914-1.879
			c-1.156,8.228-9.688,10.515-19.238,8.915C333.392,126.962,346.176,139.121,355.657,148.601z"/>
	</g>
	<g>
	</g>
</g>
<g>
	<path fill="#02A4BD" d="M196.168,262.727c0,0-1.612,0.884-2.028,5.617c0,0-0.781,4.162-2.238,5.567c0,0-1.352,3.954-0.779,5.619
		c0,0,0.104,3.068-0.053,3.433c0,0-4.109-5.67-7.959-7.595c0,0-4.475-2.913-5.15-3.435c-0.678-0.52-2.914-1.456-3.643-2.132
		c-0.728-0.677-3.121-2.289-3.798-1.769c0,0-0.935,0.573,2.132,4.317c0,0,0.783,1.145,2.551,2.341c0,0,1.561,1.041,3.434,3.694
		c1.873,2.652,3.797,5.462,5.931,6.19c0,0,1.561,2.394,2.914,3.381c0,0,0.155,0.834,0.468,1.094c0,0,0.209,0.208-0.26,0.885
		c-0.469,0.676-1.873,3.122-2.135,6.659c0,0,0.314,1.091-2.184,1.196c-2.498,0.104-2.445-0.417-2.705-0.468
		c-0.26-0.053-13.787-5.88-24.141,4.369c-10.352,10.249-12.017,17.532-12.017,24.712c0,7.179,1.456,9.26,1.456,9.26
		s-2.6,4.267,2.914,9.053c0,0,4.785,2.602,6.348,0.832l-0.104-1.561c0,0,0.935,1.249,3.121,1.873c0,0,4.16,1.04,6.449,0.104
		c0,0-0.415,1.457,4.893,1.146c0,0,12.381-1.665,15.711-1.249c0,0,0.103-1.457-1.249-2.914c0,0,2.185,1.249,2.393,2.811h2.601
		c0,0,0-0.729-0.625-1.249c0,0,0.365-0.209,0.521,0.052c0,0-0.468-2.55-3.849-3.798c-3.382-1.248,0.677,0.313,0.677,0.313
		s-2.76-1.249-5.725-0.261c0,0-1.872,1.04-2.393,1.301l-1.561,0.521c0,0,3.434-1.821,4.059-2.705c0,0,4.578-6.087,6.034-9.937
		c0,0-1.354,4.266-3.8,7.128c0,0,5.101-2.706,6.192-4.111c0,0-0.833-1.561-1.612-1.871c0,0,0.625-0.573,2.237,2.184
		c0,0,3.276,3.435,3.538,4.058c0,0,1.35,2.288,1.976,5.932c0,0,0.156,1.248,5.151,1.3c0,0,0.467-0.676-0.418-1.456
		c0,0,0.521-0.104,1.094,1.404l2.913,0.156c0,0-0.468-1.302-0.884-1.718c0,0,0.884,0.209,1.196,1.249l0.676-0.312
		c0,0-1.56-3.434-3.746-3.017l0.417,0.102c0,0-1.353,0.314-2.393-0.623c0,0-0.261-0.729-0.625-1.248c0,0-0.52-3.122-1.093-3.902
		c0,0,1.093,0.938,1.196,3.589c0,0,0.625,1.145,1.042,1.405l3.642-0.364c0,0-0.521-1.457-1.665-1.821c0,0,1.248-0.104,2.185,1.719
		l2.289,0.051c0,0-1.352-3.955-5.618-3.121c0,0-0.937-1.353-1.405-2.133c0,0-0.313-2.289-1.247-3.695v-1.248l0.415,0.417
		l-0.104-1.041l0.416,1.041c0,0,0.207-0.833,0.051-1.405c-0.156-0.571,0.313,0.832,0.313,0.832s0.363-0.312,0.052-1.248
		c-0.313-0.937,0.468,0.937,0.468,0.937s0.104-0.625-0.104-1.144c-0.207-0.521,0.416,0.728,0.416,0.728s0.157-0.937-0.103-1.405
		c-0.261-0.468,0.571,1.042,0.571,1.042s0.261-0.417-0.052-1.354c-0.313-0.938,0.571,0.676,0.571,0.676s0.261-0.156-0.051-1.353
		c-0.313-1.196,0.468,0.521,0.468,0.521s0-0.468-0.104-1.248c-0.104-0.781,0.521,0.208,0.469,0.572s0.155-0.572,0.052-1.404
		c-0.104-0.834,0.156,0.988,0.417,1.091c0.26,0.106,0.415-0.468,0.312-1.301c-0.104-0.832,0.364,0.365,0.364,0.365
		s0.052,0.572-0.051-0.677c-0.105-1.248,0.363,0.364,0.363,0.364l-0.313-1.457c0,0,0.313,0.677,0.676,1.146
		c0.365,0.469-0.363-1.354-0.156-1.978c0.209-0.625,0.469,1.302,0.469,1.302s0.729-0.833,0.676-1.979
		c-0.051-1.146,1.249-5.254,1.562-6.189c0.311-0.938,1.666-6.764-2.393-11.552c0,0,1.769-0.805,2.237-1.742
		c0,0-0.219,0.354,0.166,0.4c1.01,0.127,5.519,0.609,6.908-3.651c0,0,1.353-2.236-3.018-6.919c0,0-1.353-1.041-2.028-2.497
		c-0.676-1.457-5.983-4.059-11.446-3.953c0,0-0.676-0.157-0.623-2.81c0,0-0.26-4.163-0.105-4.684
		c0.156-0.52,0.209-2.912,1.248-6.242c1.042-3.33,0.625-5.358,0.625-5.565C197.052,266.056,196.949,263.558,196.168,262.727z"/>
</g>
<g id="XMLID_2_">
	<g>
		<path fill="#02A4BD" d="M264.041,79.187c0,0.163,0,0.321,0,0.484c-3.286-1.419-6.579,0.47-8.993,1.76
			c-0.987,1.572-2.494,2.363-3.74,3.53c-0.876,0.821-1.823,3.303-2.804,3.525c-0.403,0.089-1.128-0.336-1.751-0.479
			c-1.979-0.46-3.863-0.218-5.841,0.158c-4.605,0.87-8.803,2.833-12.385,5.448c-0.904,0.663-2.403,2.61-3.156,2.566
			c-0.804-0.049-2.371-2.833-3.152-3.688c-2.13-2.329-3.683-3.886-6.31-4.969c-1.578-0.647-3.744-1.335-5.373-1.443
			c-2.385-0.158-4.965,0.934-7.242,1.928c-4.709,2.046-8.425,4.979-11.801,8.494c-0.273,2.398,0.616,6.402-0.584,7.535
			c-0.291-1.523-1.146-2.447-1.401-4.168c-0.292-1.958-0.054-4.276-0.353-6.412c-0.296-2.151-1.694-3.812-2.569-5.132
			c-3.016-0.391-5.005,1.567-5.607,4.969c-0.742,0.475-0.912,1.849-1.521,2.729c-0.58,0.835-1.402,1.434-2.101,1.122
			c-0.62-2.62,2.227-3.347,1.985-6.091c-0.086-0.994-1.751-3.441-2.335-4.811c-0.8-1.869-1.488-3.634-2.22-4.969
			c-2.713-4.924-7.931-10.724-12.503-12.182c-5.722-1.83-9.397,0.939-12.849,3.204c-4.922-7.94-9.195-16.77-19.511-17.314
			c-2.494-4.741-4.544-9.483-9.697-10.575c-1.052-0.228-2.31,0.099-3.271-0.806c2.101-3.58,5.996-4.702,9.7-6.091
			c0.195,0,0.389,0,0.584,0c6.032,0.415,11.538,1.562,17.054,3.045c2.439,0.658,4.854,2.101,7.596,1.286
			c0.541,0.811,1.128,0.316,1.985,0.643c0.688,0.257,1.315,1.182,1.985,1.602c1.841,1.152,3.898,2.102,5.96,3.367
			c3.931,2.408,7.898,3.797,12.265,6.249c1.938,1.088,4.324,3.318,5.96,3.367c1.07,0.035,2.328-0.762,2.685-1.602
			c0.252-0.593,0.079-1.454,0.353-2.245c0.292-0.855,1.29-2.363,1.517-2.408c0.934-0.173,1.031,1.449,1.521,2.245
			c1.826-0.45,3.105,1.182,4.555,0.643c0.864-0.321,0.659-2.101,1.521-2.081c1.056,0.02,1.103,2.951,1.401,4.805
			c0.414,1.805,1.401,2.611,2.685,4.01c0.811,0.885,1.524,2.042,2.104,2.245c1.444,0.5,3.556-0.228,5.606,0
			c3.708,0.405,8.104,1.142,11.916,1.602c3.495,0.42,6.82,0.415,9.931,0c0.515-0.099,0.237-1.281,0.583-1.602
			c0.386-0.302,0.858,0.846,1.287,1.444c0.497,0.697,1.045,1.31,1.517,1.76c7.336,1.642,15.671,2.977,22.549,5.77
			c2.403,0.979,4.774,1.498,6.774,2.408C260.794,75.073,262.823,76.571,264.041,79.187z"/>
	</g>
	<g>
	</g>
</g>
</svg>
