<?xml version="1.0" encoding="utf-8"?>
<!-- Generator: Adobe Illustrator 14.0.0, SVG Export Plug-In . SVG Version: 6.00 Build 43363)  -->
<!DOCTYPE svg PUBLIC "-//W3C//DTD SVG 1.1//EN" "http://www.w3.org/Graphics/SVG/1.1/DTD/svg11.dtd">
<svg version="1.1" id="Amphibian" xmlns="http://www.w3.org/2000/svg" xmlns:xlink="http://www.w3.org/1999/xlink" x="0px" y="0px"
	 width="389.391px" height="389.387px" viewBox="0 0 389.391 389.387" enable-background="new 0 0 389.391 389.387"
	 xml:space="preserve">
<g id="Shape_64_copy_29">
	<g>
		<circle fill="#B3DCDF" cx="194.696" cy="194.693" r="194.693"/>
	</g>
</g>
<path display="none" fill="#02A4BD" d="M261.779,97.637c3.875,2.259,8.305,4.582,10.375,7.383c1.49,2.02,2.275,4.493,2.713,6.843
	c0.418,1.901,0.857,3.802,1.281,5.719c0.315,5.742-2.125,10.959-4.58,17.543c-0.99,2.675-2.598,6.342-4.441,8.933
	c-2.459,3.397-4.707,7.778-7.252,10.579c-0.912,1.49-1.836,2.972-2.752,4.441c-1.299,1.541-2.131,2.126-3.438,3.489
	c-0.705,0.956-1.41,1.913-2.123,2.879c-1.521,1.55-3.295,1.858-4.91,2.744c-1.104,0.598-1.578,1.877-2.646,2.836
	c-1.114,0.993-2.75,1.244-4.012,2.588c-1.313,1.408-1.318,3.231-1.199,4.379c0.291,2.993,1.463,6.42,1.521,9.729
	c0.096,2.552-0.703,7.522,0.615,9.458c2.018-4.813,7.666,3.393,10.434-0.867c-0.176-1.257-0.338-2.51-0.521-3.757
	c-0.758-1.385-1.781-1.239-1.771-2.842c0.099-0.082,0.189-0.153,0.271-0.244c0.297-0.107,0.584-0.202,0.895-0.3
	c1.58,0.888,3.06,1.607,4.099,2.83c2.295,2.712,3.746,7.44,8.283,3.665c0.853-0.887,1.688-1.747,2.541-2.634
	c0.489-1.146,2.079-2.936,2.411-4.079c0.173-0.633-0.133-1.356,0.451-1.947c0.576-0.659,1.109-0.608,1.847-0.563
	c0.493,0.434,0.728,0.835,0.69,1.392c-0.146,4.921-6.613,11.315-3.09,15.256c4.182,4.608,11.006-2.791,14.52,3.887
	c-0.155,0.314-0.293,0.654-0.454,0.979c-0.382,0.383-0.367,0.358-0.865,0.301c-0.897-0.219-1.354-0.876-1.92-1.398
	c-1.185,0.609-2.367-0.027-3.535,0.389c-0.914,0.599-1.834,1.228-2.729,1.819c-0.717,0.185-1.428,0.356-2.114,0.542
	c-1.281,0.899-2.547,1.803-3.812,2.728c-2.235,1.721-2.766,4.619-4.885,6.86c-4.502,4.764-14.596,14.007-19.338,14.058
	c-1.525,0.02-5.059-2.318-6.178-3.511c-0.758-0.775-0.395-1.841-0.947-2.621c-0.756-0.727-1.512-1.452-2.283-2.178
	c-1.705-3.581-3.387-7.148-5.092-10.729c-0.797-2.03-0.727-5.873-2.943-7.372c-3.641,1.701-5.928,5.622-8.805,10.487
	c-0.801,1.354-1.613,2.729-2.414,4.083c-1.586,1.494-3.16,2.998-4.725,4.505c-1.004,1.279-2.01,2.587-3.006,3.872
	c-2.506,2.309-6.273,5.68-7.953,9.072c2.643,2.263,6.762,1.705,9.465,2.146c10.387,1.696,21.42,4.88,22.924,15.769
	c0.285,2.185,1.301,5.686-0.957,8.373c-1.322,1.527-2.926,2.281-4.25,3.415c4.426,0.403,10.016,1.898,13.963,0.395
	c2.586-0.969,5.477-4.486,8.26-4.604c2.941-0.147,4.248,3.742,3.201,5.748c-0.793,0.495-1.475,0.593-2.307,0.833
	c-0.889-0.523-0.809-0.818-1.223-1.408c-1.174,1.43-2.728,5.269-1.961,6.563c1.213,2.433,5.551,2.299,7.617,2.288
	c5.168-0.035,10.114-0.011,15.44,0.188c1.854,0.053,2.854-1.32,5.104-0.009c0.246,0.35,0.33,0.447,0.318,0.861
	c0.074,0.399,0.025,0.56-0.258,1.097c-1.613,0.807-2.705,0.458-4.5,0.646c-2.693,0.278-5.564,0.859-8.32,1.272
	c-3.414,0.524-7.754,3.403-10.76,5.354c-0.785,0.534-2.303,1.991-2.346,3.277c-0.063,3.38,5.234,7.401,9.053,9.627
	c0.092,0.477,0.174,0.943,0.26,1.403c-0.189,0.744-0.49,0.831-1.012,1.054c-1.34-0.293-2.717-1.498-4.436-2.078
	c-2.101-0.692-4.324-1.571-6.736-2.327c-2.814-0.885-5.572-0.656-8.271-1.179c-1.795-0.343-4.086-2.273-5.854-2.212
	c-0.979,0.046-1.852,0.625-2.783,0.993c-1.775,0.308-3.578,0.613-5.361,0.934c-5.479,0.612-11.147,0.257-16.609,0.787
	c-4.211,0.443-7.663,1.771-12.194,2.023c-5.997,0.326-12.29,0.208-18.232-0.589c-3.483-0.783-6.976-1.551-10.466-2.32
	c-5.4-0.867-12.528-5.938-15.563-10.04c-0.899-0.752-1.778-1.505-2.675-2.255c-2.796-3.586-5.094-10.327-0.4-15.398
	c1.182-1.281,2.679-2.362,3.898-3.342c-0.152-0.09-0.324-0.19-0.5-0.295c-1.139-0.395-2.284-0.807-3.435-1.207
	c-1.179-1.038-2.732-2.395-4.559-2.976c-4.184-1.317-7.686-0.643-11.682-2.615c-0.658-0.342-0.733-1.135-1.003-1.578
	c-0.42-0.371-0.824-0.767-1.255-1.146c-0.249-1.43-0.492-2.865-0.75-4.299c-1.855-4.279-5.826-7.671-7.885-11.838
	c-0.134,0.017-0.279,0.023-0.436,0.025c-2.85,2.182-12.113,2.493-16.537-1.37c-2.083-1.809-3.001-3.709-4.489-5.681
	c-1.437-1.927-1.528-4.038-2.336-6.075c-0.865-1.807-1.728-3.597-2.6-5.394c-2.033-5.084-1.114-13.761-0.639-19.656
	c0.332-1.225,0.631-2.469,0.947-3.715c-0.034-1.159-0.071-2.336-0.127-3.509c0.945-5.37-0.548-9.31,0.231-14.322
	c0.338-2.313,2.862-3.178,4.613-1.549c3-5.339,4.576-7.293,8.834-9.113c1.693-3.257,2.219-6.285,2.501-9.112
	c1.194-0.963,3.075-0.741,3.873,0.917c-0.995,2.421-0.451,4.88-0.666,7.17c3.281,1.256,6.6,3.638,8.589,6.188
	c0.899,1.141,1.99,3.52,3.396,4.066c1.03-0.499,2.039-0.993,3.068-1.495c2.149-1.364,3.408-4.442,6.403-2.673
	c0.779,1.134,1.193,2.174,1.1,3.522c-0.217,0.151-0.449,0.278-0.67,0.444c-0.44-0.151-0.812-0.26-1.175-0.146
	c-1.399,2.15-2.815,4.309-4.213,6.462c2.174,2.049,3.171,4.636,4.873,6.876c0.09-0.044,0.153-0.098,0.229-0.146
	c1.349-1.466,4.59-8.346,4.635-9.926c0.646-0.727,1.288-1.438,1.951-2.141c0.276-1.1,0.537-2.176,0.811-3.248
	c0.938-0.74,1.881-1.463,2.81-2.192c0.85-0.933-0.07-3.205,0.72-3.986c1.156-1.19,2.454-2.514,3.656-3.626
	c1.017-0.928,0.413-2.175,0.992-2.863c1.142-0.666,2.253-1.333,3.39-1.989c1.298-1.323,0.057-3.101,1.304-4.313
	c0.48-0.263,0.971-0.537,1.44-0.805c0.281-0.475,0.566-0.958,0.847-1.433c0.69-0.402,1.712-0.283,2.361-0.96
	c0.929-0.935,0.623-1.629,1.566-2.648c0.026-0.356,0.044-0.706,0.062-1.053c2.278-1.557,5.07-1.979,6.999-3.442
	c0.985-0.745,1.297-2.619,2.393-3.549c0.835-0.755,1.952-0.639,2.848-2.046c-7.298-1.113-12.158-4.505-13.825-11.339
	c1.37-2.107,2.846-6.397,5.583-7.574c1.368-0.594,3.482,0.048,5.088,0.263c1.107-0.188,2.215-0.344,3.33-0.514
	c2.007-0.043,4.369,0.212,6.346,0.43c0.741,0.222,1.49,0.432,2.242,0.641c0.814-0.111,1.594-0.243,2.408-0.355
	c1.945,0.324,3.109,1.497,4.671,0.703c2.264-1.142,5.316-3.689,7.396-5.969c1.389-1.504,0.709-3.151,3.203-3.754
	c1.502,0.812,2.006,2.015,1.289,3.384c-1.949,0.845-2.508,3.93-2.48,5.834c0.646,0.382,0.828,0.365,1.307,0.35
	c0.813-1.11,1.615-2.258,2.412-3.396c0.854-0.68,1.803-0.539,2.729-1.552c1.649-1.896,1.933-4.114,3.653-5.969
	c2.593-2.804,4.607-5.37,7.232-7.563c1.102-0.94,2.494-0.63,3.857-1.169c1.23-0.659,2.439-1.304,3.641-1.963
	c1.652-0.552,3.309-1.085,4.955-1.626c0.506-0.621,1.008-1.229,1.51-1.868c1.519-1.536,3.312-2.91,5.158-3.13
	c1.109-0.137,2.641-0.062,3.807,0.316c0.646,0.382,1.293,0.765,1.931,1.142c0.627-0.192,1.235-0.377,1.868-0.548
	c1.72-0.139,3.443-0.258,5.162-0.397C251.998,95.786,256.417,97.023,261.779,97.637z"/>
<g>
	<path fill="#02A4BD" d="M319.582,262.386c1.582,0.319,1.262,1.901-0.951,4.754c-0.951,1.589-2.064,2.54-3.328,2.852
		c-3.803,0.951-7.295,2.696-10.459,5.229c-11.098,9.82-19.334,15.688-24.721,17.59c-6.654,2.533-14.105,4.754-22.344,6.655
		c-3.49,0.632-8.162,0.55-14.023-0.237c-5.869-0.795-10.064-2.935-12.598-6.418c-1.59-2.221-2.615-5.705-3.09-10.459
		c-0.478-4.754-0.716-9.032-0.716-12.835l0.478-5.705c-9.508-3.164-15.377-4.91-17.59-5.229l-9.033-3.328
		c-0.318,0.32-0.795,0.64-1.426,0.951c-0.639,0.318-1.664,0.558-3.09,0.713c-1.426,0.164-2.459-0.395-3.09-1.664
		c-0.951-1.263-4.123-1.188-9.508,0.238c-5.393,1.426-8.721,2.613-9.983,3.564c-0.951,0.319-1.27,1.901-0.951,4.754
		c0.312,2.854,0.787,4.754,1.426,5.705c1.263,0.95,2.058,3.885,2.377,8.794c0.312,4.91-0.476,9.107-2.377,12.6l-7.131,7.604
		c-4.754,2.854-9.508,4.91-14.262,6.181c-3.172,0.632-5.787,0.951-7.844,0.951c-2.065,0-4.442-0.237-7.131-0.714
		c-2.696-0.476-4.516-0.713-5.467-0.713c-5.705,0-12.205-1.271-19.492-3.803c-3.803-0.319-8.557-2.065-14.262-5.229
		c-1.59-0.639-3.41-1.271-5.467-1.9c-2.065-0.64-3.491-1.033-4.278-1.188c-0.795-0.164-1.033-0.558-0.713-1.188
		c0.312-0.641,1.902-0.951,4.754-0.951h-0.476c-3.803-1.59-5.787-2.614-5.942-3.09c-0.164-0.477,0.074-1.032,0.713-1.664
		c2.533-1.271,6.336-2.377,11.41-3.328c-5.705,0.64-8.245,0.318-7.606-0.95c1.263-0.951,3.008-1.738,5.229-2.377
		c2.213-0.632,4.115-1.107,5.705-1.427h2.377l13.312,1.901c2.852,1.901,6.655,3.491,11.409,4.754
		c1.902,0.313,3.877,0.395,5.942,0.237c2.058-0.163,4.041-0.557,5.943-1.188l2.852-0.477c-6.655-10.458-10.303-17.9-10.934-22.344
		c-0.319-0.631-0.795-2.532-1.426-5.704c-0.639-3.164-1.114-5.779-1.426-7.844c-0.319-2.059-0.082-4.673,0.713-7.845
		c0.787-3.164,2.295-6.181,4.516-9.032c2.853-3.483,5.705-6.336,8.557-8.558c2.853-2.214,4.91-3.64,6.18-4.277l2.377-0.477
		c-6.655-10.459-10.146-21.072-10.458-31.852c-0.319-7.606,0.55-16,2.615-25.196c2.058-9.188,4.197-16.319,6.417-21.393l3.328-8.082
		c-4.754-1.582-7.77-4.278-9.033-8.082l-6.18-16.64c-0.639-5.065-0.475-8.868,0.476-11.408c3.803-7.287,5.705-11.246,5.705-11.886
		c0-0.631-0.164-1.9-0.475-3.803c0-2.214,0.156-3.484,0.475-3.803c0.951,0.639,1.738,1.426,2.377,2.377
		c0.631,0.951,1.107,1.746,1.426,2.377v0.951c0.312,6.344,0.312,9.982,0,10.934c-2.221,6.976-2.377,10.935-0.476,11.885
		c0.951,0.64,2.533,1.983,4.754,4.041c2.213,2.065,3.803,3.328,4.754,3.804c0.951,0.476,2.213,0.237,3.803-0.713
		c6.017-10.458,9.344-17.114,9.983-19.967l0.475,0.476c1.902,2.221,3.803,1.426,5.705-2.377c2.214-4.115,1.902-6.813-0.951-8.082
		v0.476c3.803-4.754,8.238-7.287,13.311-7.605c6.969,0,12.361,2.064,16.164,6.18c-2.853,1.589-3.017,4.442-0.476,8.557
		c1.899,3.171,3.804,3.804,5.705,1.901v-0.475l0.476,0.475c1.262,4.123,2.615,7.605,4.041,10.458s2.614,4.754,3.563,5.705
		l0.951,1.426c1.901-1.901,3.483-3.328,4.754-4.278l5.705-4.277c-2.853-4.754-4.44-8.238-4.755-10.459
		c-0.639-4.115,0-7.287,1.902-9.509c5.064-6.017,8.236-8.868,9.508-8.557c0.631,0,0.549,0.951-0.237,2.854
		c-0.795,1.9-1.664,4.041-2.615,6.418c-0.95,2.377-1.112,4.041-0.476,4.99c0.313,0.951,1.427,2.459,3.328,4.518
		c1.9,2.064,2.853,4.041,2.853,5.941v9.509c-0.64,8.557-2.063,13.785-4.278,15.688l-8.08,6.18c1.899,2.853,4.041,6.655,6.418,11.409
		s5.385,12.681,9.03,23.771c3.642,11.098,4.828,19.811,3.565,26.146l-6.655,28.999c8.237,2.54,13.942,6.023,17.114,10.458
		c5.064,6.345,7.441,12.836,7.132,19.491l-3.806,27.098c3.484,1.271,6.97,0.951,10.459-0.95c0.951-0.313,4.675-3.164,11.172-8.558
		c6.492-5.386,11.484-8.558,14.978-9.508c9.509-2.533,15.522-3.164,18.063-1.901c0.631,0.319,0.156,0.795-1.426,1.427
		c-5.074,2.54-7.607,4.277-7.607,5.229c5.389-1.901,9.189-2.377,11.41-1.427c1.582,0.32,1.426,0.951-0.477,1.902
		c-2.539,0.949-3.803,1.9-3.803,2.853c0.633,0,1.346,0,2.141,0c0.787,0,1.426,0,1.9,0
		C318.869,262.386,319.262,262.386,319.582,262.386z"/>
</g>
</svg>
