<?xml version="1.0" encoding="utf-8"?>
<!-- Generator: Adobe Illustrator 14.0.0, SVG Export Plug-In . SVG Version: 6.00 Build 43363)  -->
<!DOCTYPE svg PUBLIC "-//W3C//DTD SVG 1.1//EN" "http://www.w3.org/Graphics/SVG/1.1/DTD/svg11.dtd">
<svg version="1.1" id="air" xmlns="http://www.w3.org/2000/svg" xmlns:xlink="http://www.w3.org/1999/xlink" x="0px" y="0px"
	 width="422.982px" height="422.978px" viewBox="0 0 422.982 422.978" enable-background="new 0 0 422.982 422.978"
	 xml:space="preserve">
<g id="bgd">
	<g>
		<circle fill-rule="evenodd" clip-rule="evenodd" fill="#B3DCDF" cx="211.491" cy="211.489" r="211.489"/>
	</g>
</g>
<g id="cloud_02">
	<g>
		<path fill-rule="evenodd" clip-rule="evenodd" fill="#FFFFFF" d="M341.313,176.204c14.173-25.51-7.797-50.312-45.351-34.721
			c4.959-28.347-49.604-44.643-66.612-5.672c-3.542-22.675-70.149-17.714-62.354,12.756c-22.678-15.588-60.942,14.882-37.558,44.644
			c-23.384,11.336-18.424,49.602,11.335,50.311c-4.957,17.007,12.758,39.681,51.021,24.802c0,12.044,30.47,46.059,55.982,2.124
			c5.669,21.257,53.853,38.263,60.941-2.124c13.46,8.502,55.269,2.83,41.805-38.266C362.569,225.807,383.83,181.164,341.313,176.204
			z"/>
	</g>
</g>
<g id="cloud_01">
	<g>
		<path fill-rule="evenodd" clip-rule="evenodd" fill="#02A4BD" d="M188.509,184.318c3.79-21.656-37.896-34.107-50.89-4.333
			c-2.244-14.362-85.378-18.957-76.33,35.474c-17.864,8.66-14.075,37.894,8.66,38.436c-6.013,11.701,19.522,37.901,33.489,13.849
			c0,28.923,89.401,35.954,94.817,5.1c10.284,6.495,42.224,2.162,31.938-29.234C260.349,212.274,219.338,171.52,188.509,184.318z"/>
	</g>
</g>
</svg>
