<?xml version="1.0" encoding="utf-8"?>
<!-- Generator: Adobe Illustrator 14.0.0, SVG Export Plug-In . SVG Version: 6.00 Build 43363)  -->
<!DOCTYPE svg PUBLIC "-//W3C//DTD SVG 1.1//EN" "http://www.w3.org/Graphics/SVG/1.1/DTD/svg11.dtd">
<svg version="1.1" id="porifera" xmlns="http://www.w3.org/2000/svg" xmlns:xlink="http://www.w3.org/1999/xlink" x="0px" y="0px"
	 width="389.391px" height="389.387px" viewBox="0 0 389.391 389.387" enable-background="new 0 0 389.391 389.387"
	 xml:space="preserve">
<g id="Shape_64_copy_29">
	<g>
		<circle fill-rule="evenodd" clip-rule="evenodd" fill="#B3DCDF" cx="194.695" cy="194.693" r="194.693"/>
	</g>
</g>
<path display="none" fill-rule="evenodd" clip-rule="evenodd" fill="#02A4BD" d="M261.779,97.637
	c3.875,2.259,8.305,4.582,10.375,7.383c1.49,2.019,2.275,4.493,2.713,6.843c0.418,1.901,0.857,3.801,1.281,5.718
	c0.316,5.743-2.125,10.959-4.58,17.543c-0.99,2.675-2.598,6.342-4.441,8.933c-2.459,3.397-4.707,7.778-7.252,10.579
	c-0.912,1.49-1.836,2.972-2.752,4.441c-1.299,1.541-2.131,2.126-3.438,3.49c-0.705,0.956-1.41,1.913-2.123,2.879
	c-1.521,1.549-3.295,1.858-4.91,2.744c-1.104,0.597-1.578,1.877-2.645,2.836c-1.115,0.993-2.75,1.244-4.012,2.588
	c-1.314,1.408-1.318,3.231-1.199,4.378c0.291,2.994,1.463,6.42,1.52,9.729c0.096,2.552-0.703,7.522,0.615,9.458
	c2.018-4.813,7.666,3.393,10.434-0.867c-0.176-1.257-0.338-2.51-0.521-3.757c-0.758-1.385-1.781-1.239-1.771-2.842
	c0.098-0.082,0.188-0.153,0.271-0.244c0.297-0.107,0.584-0.202,0.895-0.3c1.58,0.888,3.059,1.608,4.098,2.83
	c2.295,2.712,3.746,7.441,8.283,3.665c0.852-0.886,1.689-1.747,2.541-2.633c0.49-1.146,2.08-2.936,2.412-4.08
	c0.172-0.632-0.133-1.356,0.451-1.947c0.576-0.659,1.109-0.608,1.846-0.563c0.494,0.433,0.727,0.835,0.691,1.391
	c-0.146,4.921-6.613,11.316-3.09,15.256c4.182,4.609,11.006-2.791,14.52,3.887c-0.156,0.314-0.293,0.654-0.455,0.979
	c-0.381,0.383-0.367,0.359-0.865,0.301c-0.898-0.219-1.354-0.876-1.92-1.398c-1.184,0.609-2.367-0.028-3.535,0.388
	c-0.914,0.599-1.834,1.228-2.729,1.82c-0.717,0.184-1.428,0.356-2.115,0.542c-1.281,0.899-2.547,1.802-3.811,2.727
	c-2.236,1.721-2.766,4.619-4.885,6.861c-4.502,4.763-14.596,14.006-19.338,14.057c-1.525,0.02-5.059-2.318-6.178-3.511
	c-0.758-0.775-0.395-1.84-0.947-2.621c-0.756-0.726-1.512-1.452-2.283-2.177c-1.705-3.581-3.387-7.149-5.092-10.73
	c-0.797-2.03-0.727-5.873-2.943-7.372c-3.641,1.701-5.928,5.622-8.805,10.487c-0.801,1.354-1.613,2.729-2.414,4.083
	c-1.586,1.495-3.16,2.998-4.725,4.505c-1.004,1.28-2.01,2.587-3.006,3.872c-2.506,2.309-6.273,5.68-7.953,9.073
	c2.643,2.262,6.762,1.705,9.465,2.146c10.387,1.696,21.42,4.88,22.924,15.769c0.285,2.184,1.301,5.685-0.957,8.373
	c-1.322,1.527-2.926,2.281-4.25,3.415c4.426,0.403,10.016,1.898,13.963,0.394c2.586-0.968,5.477-4.486,8.26-4.603
	c2.941-0.148,4.248,3.742,3.201,5.748c-0.793,0.495-1.475,0.593-2.307,0.833c-0.889-0.524-0.809-0.819-1.223-1.408
	c-1.174,1.429-2.727,5.268-1.961,6.563c1.213,2.433,5.551,2.299,7.617,2.288c5.168-0.035,10.115-0.011,15.441,0.188
	c1.855,0.052,2.855-1.321,5.105-0.009c0.246,0.35,0.33,0.447,0.318,0.861c0.074,0.4,0.025,0.56-0.258,1.097
	c-1.613,0.807-2.705,0.458-4.5,0.646c-2.693,0.279-5.564,0.86-8.32,1.273c-3.414,0.524-7.754,3.403-10.76,5.354
	c-0.785,0.535-2.303,1.992-2.346,3.278c-0.063,3.38,5.234,7.401,9.053,9.627c0.092,0.476,0.174,0.943,0.26,1.403
	c-0.189,0.744-0.49,0.831-1.012,1.054c-1.34-0.293-2.717-1.498-4.436-2.078c-2.1-0.693-4.324-1.572-6.736-2.328
	c-2.814-0.884-5.572-0.656-8.271-1.178c-1.795-0.343-4.086-2.274-5.854-2.212c-0.979,0.046-1.852,0.625-2.783,0.993
	c-1.775,0.308-3.578,0.613-5.361,0.934c-5.479,0.612-11.148,0.256-16.609,0.787c-4.211,0.443-7.664,1.771-12.195,2.023
	c-5.997,0.326-12.29,0.208-18.232-0.589c-3.483-0.783-6.976-1.551-10.466-2.32c-5.4-0.867-12.528-5.938-15.563-10.04
	c-0.899-0.752-1.778-1.505-2.675-2.255c-2.796-3.586-5.094-10.327-0.4-15.398c1.182-1.282,2.679-2.363,3.898-3.342
	c-0.152-0.09-0.324-0.191-0.5-0.295c-1.139-0.395-2.284-0.807-3.435-1.207c-1.179-1.038-2.732-2.395-4.559-2.976
	c-4.184-1.317-7.686-0.642-11.682-2.615c-0.658-0.342-0.733-1.135-1.003-1.578c-0.42-0.371-0.824-0.767-1.255-1.146
	c-0.249-1.429-0.492-2.865-0.75-4.298c-1.855-4.28-5.826-7.671-7.885-11.838c-0.134,0.016-0.279,0.023-0.436,0.025
	c-2.85,2.182-12.113,2.493-16.537-1.37c-2.083-1.809-3.001-3.709-4.489-5.681c-1.437-1.926-1.528-4.038-2.336-6.075
	c-0.865-1.807-1.728-3.597-2.6-5.393c-2.033-5.084-1.114-13.761-0.639-19.657c0.332-1.224,0.631-2.468,0.947-3.715
	c-0.034-1.159-0.071-2.335-0.127-3.508c0.945-5.37-0.548-9.31,0.231-14.323c0.338-2.312,2.862-3.177,4.613-1.548
	c3-5.339,4.576-7.293,8.834-9.114c1.693-3.257,2.219-6.285,2.501-9.112c1.194-0.963,3.075-0.741,3.873,0.917
	c-0.995,2.421-0.451,4.88-0.666,7.17c3.281,1.256,6.6,3.638,8.589,6.188c0.899,1.141,1.99,3.52,3.396,4.067
	c1.03-0.499,2.039-0.993,3.068-1.495c2.149-1.365,3.408-4.443,6.403-2.673c0.779,1.134,1.193,2.174,1.1,3.522
	c-0.217,0.152-0.449,0.279-0.67,0.445c-0.44-0.152-0.812-0.26-1.175-0.146c-1.399,2.15-2.815,4.309-4.213,6.462
	c2.174,2.049,3.171,4.636,4.873,6.876c0.09-0.044,0.153-0.098,0.229-0.147c1.349-1.465,4.59-8.345,4.635-9.925
	c0.646-0.727,1.288-1.439,1.951-2.141c0.276-1.1,0.537-2.176,0.811-3.248c0.938-0.74,1.881-1.463,2.81-2.192
	c0.85-0.933-0.07-3.205,0.72-3.987c1.156-1.19,2.454-2.513,3.656-3.626c1.017-0.927,0.413-2.174,0.992-2.863
	c1.142-0.666,2.253-1.333,3.39-1.989c1.298-1.323,0.057-3.101,1.304-4.313c0.48-0.262,0.971-0.537,1.44-0.804
	c0.281-0.475,0.566-0.958,0.847-1.433c0.69-0.402,1.712-0.283,2.361-0.96c0.929-0.935,0.623-1.629,1.566-2.648
	c0.026-0.357,0.044-0.706,0.062-1.053c2.278-1.557,5.07-1.98,6.999-3.443c0.985-0.745,1.297-2.619,2.393-3.548
	c0.835-0.755,1.952-0.639,2.848-2.046c-7.298-1.114-12.158-4.505-13.825-11.339c1.37-2.108,2.846-6.398,5.583-7.574
	c1.368-0.594,3.482,0.048,5.088,0.262c1.107-0.187,2.215-0.343,3.33-0.513c2.007-0.043,4.369,0.212,6.346,0.429
	c0.741,0.222,1.49,0.432,2.242,0.641c0.814-0.111,1.594-0.243,2.408-0.355c1.945,0.324,3.109,1.497,4.671,0.703
	c2.264-1.142,5.316-3.69,7.396-5.969c1.389-1.504,0.709-3.151,3.203-3.754c1.502,0.812,2.006,2.015,1.289,3.384
	c-1.949,0.845-2.508,3.929-2.48,5.834c0.646,0.382,0.828,0.365,1.307,0.349c0.813-1.11,1.615-2.257,2.412-3.395
	c0.854-0.68,1.803-0.539,2.729-1.552c1.65-1.895,1.932-4.114,3.654-5.969c2.592-2.803,4.607-5.37,7.232-7.563
	c1.102-0.941,2.494-0.63,3.857-1.169c1.23-0.659,2.439-1.304,3.641-1.963c1.652-0.552,3.309-1.085,4.955-1.626
	c0.506-0.621,1.008-1.229,1.51-1.868c1.518-1.536,3.311-2.91,5.158-3.13c1.109-0.137,2.641-0.061,3.807,0.316
	c0.646,0.382,1.293,0.765,1.93,1.142c0.627-0.192,1.236-0.377,1.869-0.548c1.719-0.138,3.443-0.258,5.162-0.397
	C251.998,95.786,256.417,97.023,261.779,97.637z"/>
<g id="XMLID_2_">
	<path fill="#02A4BD" d="M273.9,120.663c4.657-0.607,3.675-6.861,9.879-5.928c-1.456,10.408-0.961,14.535-3.95,25.692
		c-3.229-0.89-3.229,10.776,0,9.886c0.608,7.193-0.317,12.86-1.979,17.785c-1.597-0.375-1.972-1.985-3.95-1.979
		c0.008-1.979-1.604-2.353-1.979-3.95c-1.632-5.589,2.784-5.123,1.979-9.886c0-0.657,0-1.314,0-1.971c0-1.322,0-2.636,0-3.957
		c4.417-0.848,0.799-9.737,1.979-13.829c1.393-9.921-18.032-5.427-17.792-1.979c0.516,0.389,1.018,0.678,1.505,0.897
		c2.854,3.066-4.663,10.79-1.505,20.838c0,1.979,0,3.957,0,5.929c-1.597,0.381-1.965,1.985-3.95,1.979c0-2.636,0-5.271,0-7.907
		c0-3.293,0-6.585,0-9.878c0-1.314,0-2.636,0-3.95c0-3.293,0-6.593,0-9.886c-1.046-1.59-2.063-3.208-1.979-5.929
		c1.59-1.045,3.208-2.063,5.929-1.979C258.969,123.928,273.024,123.928,273.9,120.663z"/>
	<path fill="#02A4BD" d="M279.829,140.427c0,3.293,0,6.593,0,9.886C276.6,151.203,276.6,139.537,279.829,140.427z"/>
	<path fill="#02A4BD" d="M277.85,168.098c-0.162,3.13,0.954,7.54-1.972,7.907c-0.226-2.417-0.593-4.685-3.957-3.957
		c0.113-2.522,2.537-2.735,1.979-5.929C275.878,166.113,276.253,167.724,277.85,168.098z"/>
	<path fill="#02A4BD" d="M258.086,130.549c-0.24-3.448,19.185-7.942,17.792,1.979c-0.664,0-1.321,0-1.979,0
		c-3.144-9.221-7.581,1.964-14.309-1.081C259.246,131.079,258.757,130.782,258.086,130.549z"/>
	<path fill="#02A4BD" d="M273.9,132.527c0.657,0,1.314,0,1.979,0c-1.18,4.091,2.438,12.98-1.979,13.829
		C273.9,141.749,273.9,137.134,273.9,132.527z"/>
	<path fill="#02A4BD" d="M275.878,176.005c-1.682-0.368-1.865,0.77-1.979,1.971c-4.289-0.332-0.896,7.01-1.979,9.886
		c-0.374,1.598-1.979,1.965-1.979,3.95c-1.674,0.367-1.858-0.771-1.971-1.979c0-3.293,0-6.586,0-9.879c0-2.635,0-5.271,0-7.907
		c0.657,0,1.314,0,1.971,0c0.665,0,1.322,0,1.979,0C275.286,171.32,275.653,173.589,275.878,176.005z"/>
	<path fill="#02A4BD" d="M273.9,166.12c0.559,3.194-1.865,3.406-1.979,5.929c-0.656,0-1.313,0-1.979,0
		c6.721-6.946-6.86-4.749-3.949-13.835c0.657,0,1.321,0,1.979,0s1.314,0,1.971,0c0.445,1.541,0.057,3.9,1.979,3.957
		C272.296,163.767,273.908,164.141,273.9,166.12z"/>
	<path fill="#02A4BD" d="M273.9,152.284c0.806,4.763-3.61,4.296-1.979,9.886c-1.922-0.057-1.533-2.417-1.979-3.957
		C271.646,156.623,271.124,152.8,273.9,152.284z"/>
	<path fill="#02A4BD" d="M273.9,150.313c0,0.657,0,1.314,0,1.971c-2.776,0.516-2.254,4.339-3.957,5.929c-0.656,0-1.313,0-1.971,0
		c0-0.657,0-1.314,0-1.972C271.703,156.022,269.342,149.705,273.9,150.313z"/>
	<path fill="#02A4BD" d="M273.9,146.356c0,1.321,0,2.635,0,3.957c-4.558-0.608-2.197,5.709-5.928,5.928
		c-1.555-4.543,7.737-12.606,3.949-25.692c-9.144,0.332-5.179,15.284-9.878,5.928c-5.71,0.876,1.752,14.931-3.957,15.807
		c-3.158-10.048,4.359-17.771,1.505-20.838c6.728,3.045,11.165-8.14,14.309,1.081C273.9,137.134,273.9,141.749,273.9,146.356z"/>
	<path fill="#02A4BD" d="M258.086,120.663c5.271,0,10.543,0,15.813,0C273.024,123.928,258.969,123.928,258.086,120.663z"/>
	<path fill="#02A4BD" d="M271.921,187.862c1.082-2.876-2.311-10.218,1.979-9.886C272.819,180.853,276.211,188.194,271.921,187.862z"
		/>
	<path fill="#02A4BD" d="M158.835,178.224c-0.035,0.155-0.063,0.304-0.092,0.445C158.771,178.521,158.8,178.373,158.835,178.224z
		 M159.478,174.995c0.007-0.05,0.021-0.099,0.028-0.142C159.5,174.896,159.485,174.938,159.478,174.995z M158.27,181.036
		c-0.007,0.043-0.014,0.078-0.021,0.106C158.256,181.114,158.263,181.079,158.27,181.036z M159.457,175.101
		c-0.014,0.07-0.035,0.155-0.049,0.247C159.422,175.256,159.443,175.171,159.457,175.101z M158.524,179.751
		c0.021-0.106,0.042-0.213,0.07-0.326C158.566,179.538,158.545,179.651,158.524,179.751z M159.344,175.659
		c-0.021,0.106-0.042,0.219-0.07,0.346C159.301,175.885,159.323,175.765,159.344,175.659z M277.85,108.806
		c-3.434-10.43-11.404-2.551-19.764-1.971c1.745-11.688,26.406-5.413,29.649,0c-5.01,95.124-34.511,165.751-86.956,213.433
		c-25.947-10.479-6.543-28.646,7.9-49.406c13.85-19.884,23.996-31.232,27.671-55.335c-13.518,35.239-38.956,58.543-53.363,92.885
		c1.18,8.705,11.659,8.104,9.885,19.764c-17.687,1.873-21.495-10.126-33.599-13.835c-0.403-12.26-0.148-23.863,3.957-31.621
		c-6.755-1.478-2.516,8.034-9.886,5.936c-12.677-17.673-7.292-37.225-9.878-57.313c-5.031-39.098-31.296-72.365-39.528-108.699
		c8.416-0.113,17.051-1.505,19.764-11.857c13.072,6.692,19.086,20.442,23.714,35.571c5.25-15.687-14.288-32.568-3.95-49.407
		c5.377,4.155,10.154,4.586,15.807,0c2.904-7.511-8.833-0.389-5.929-7.9c7.243-0.657,10.981,2.19,15.814,3.95
		c7.66,25.933,17.877,49.315,21.735,79.049c12.288-4.183,13.941-18.994,33.6-15.807c7.151,7.335,11.942,17.043,15.808,27.664
		c-0.432-6.593,4.593-11.928,9.885-17.786c3.555-21.233-7.723-45.972,3.95-57.313C259.259,114.169,272.537,113.964,277.85,108.806z
		 M283.779,114.735c-6.204-0.933-5.222,5.321-9.879,5.928c-5.271,0-10.542,0-15.813,0c-2.721-0.084-4.339,0.933-5.929,1.979
		c-0.085,2.721,0.933,4.339,1.979,5.929c-3.229-0.89-3.229,10.776,0,9.886c0,1.314,0,2.635,0,3.95c-3.229-0.89-3.229,10.769,0,9.878
		c0,2.636,0,5.271,0,7.907c0,3.957,0,7.907,0,11.857c-0.438,1.541-1.653,2.296-3.95,1.979c0,3.293,0,6.585,0,9.878
		c0.085,2.721-0.933,4.339-1.979,5.929c2.53,0.112,2.735,2.536,5.929,1.979c0.431,2.487,3.081,4.042-1.979,3.95
		c-1.979,0.007-2.353-1.598-3.95-1.972c-2.84,11.652-1.815,27.169-7.906,35.571c-2.926,0.367-1.81,4.776-1.972,7.906
		c-1.209,0.113-2.347,0.297-1.979,1.972c-4.325,0.297-4.247,4.981-3.95,9.886c-1.208,0.113-2.346,0.297-1.979,1.979
		c-2.487,0.806-4.042,2.544-3.957,5.929c-2.777,0.516-2.247,4.331-3.95,5.928c-3.477,0.474-4.501,3.399-3.95,7.9
		c-1.208,0.113-2.339,0.297-1.979,1.979c-4.141,5.745-10.365,9.398-11.856,17.785c-3.399-0.105-5.066,1.526-5.929,3.957
		c-0.007,7.236-9.25,5.243-5.929,15.808c3.548,1.999,12.133,7.561,13.836,0c2.212-0.417,3.073-2.19,3.95-3.95
		c6.938-4.918,12.429-11.292,15.807-19.764c2.219-0.417,3.081-2.19,3.957-3.957c4.529-6.664,10.189-12.204,9.879-23.715
		c1.208-0.105,2.339-0.289,1.979-1.971c1.208-0.113,2.339-0.297,1.979-1.979c0.105-2.53,2.529-2.735,1.971-5.929
		c2.777-0.516,2.255-4.339,3.957-5.929c2.19-3.738,2.516-9.334,3.95-13.835c2.219-0.417,3.074-2.191,3.95-3.95
		c0.771-11.752,9.193-15.85,7.907-29.649c2.219-0.418,3.08-2.191,3.949-3.95c0-1.985,1.604-2.353,1.979-3.95
		c4.29,0.332,0.897-7.01,1.979-9.886c0.113-1.201,0.297-2.339,1.979-1.971c2.926-0.368,1.81-4.777,1.972-7.907
		c1.661-4.925,2.587-10.592,1.979-17.785c0-3.293,0-6.593,0-9.886C282.818,129.27,282.323,125.143,283.779,114.735z
		 M236.351,209.598c8.479-2.579,7.08-20.725,1.979-21.735C239.856,197.288,235.234,200.582,236.351,209.598z M232.401,199.719
		c0-1.979,0-3.956,0-5.928c-1.088-2.876,2.304-10.218-1.979-9.886c-0.417,2.219-2.197,3.081-3.957,3.957
		c-1.201,0.113-2.339,0.297-1.972,1.972c-1.533,0.444-3.9,0.056-3.957,1.979c-2.324,0.311-5.604-0.339-5.929,1.979
		c-0.657,0-1.313,0-1.971,0c-0.834-4.438-10.486-0.057-11.857-3.957c-1.788-3.483-4.424-6.12-7.907-7.899
		c1.138,3.469-2.388,11.609,1.979,11.856c0,0.657,0,1.313,0,1.972c0.333,2.96-0.706,7.299,1.972,7.907
		c6.578-1.357,3.187,4.084,1.979,5.928c0,0.657,0,1.322,0,1.979c-2.777,0.516-2.254,4.332-3.95,5.929
		c0.438,3.738-2.232,4.359-1.979,7.907c-2.219,0.417-3.081,2.19-3.957,3.95c-14.358,21.212-18.273,52.868-25.685,81.027
		c7.313,4.543,13.934,9.779,21.735,13.835c2.877-4.938-11.433-9.581-9.878-19.764c-0.756-7.342,8.006-5.165,5.928-13.836
		c1.201-0.112,2.34-0.297,1.973-1.971c10.055-8.395,17.255-19.645,23.721-31.621c2.776-0.517,2.247-4.339,3.95-5.929
		c3.73-6.812,9.899-11.186,9.878-21.742c-0.105-1.209-0.29-2.339-1.972-1.979c0-0.657,0-1.314,0-1.972
		c-6.733-1.463-3.257,7.278-7.906,7.899c-1.646-6.338-1.683-4.091,1.979-7.899c-2.961-0.34-7.293,0.706-7.907-1.979
		c2.077-0.106,1.555-2.53-1.979-1.979c0,0.664,0,1.321,0,1.979c-1.979,0.007-2.354-1.604-3.95-1.979c0-0.657,0-1.314,0-1.972
		c1.314,0,2.636,0,3.95,0c2.876,1.081,10.218-2.311,9.886,1.972c-1.103-0.007-2.247,1.604,0,1.979c2.282-5.356,0.953-4.918,0-11.857
		c3.73-0.445,4.359,2.227,7.899,1.979c0.12,6.678-3.562,8.43,1.979,11.857c6.89-1.018,2.897-12.917,3.95-19.764
		C229.313,204.539,231.292,202.566,232.401,199.719z M200.78,177.977c5.307,9.306,28.074,7.25,25.686-7.9
		c-4.056-4.953-15.454-4.748-21.735-1.979C199.23,175.36,199.296,171.893,200.78,177.977z M182.988,223.434
		c13.291-8.211,1.264-40.087,3.956-51.385C181.595,185.149,188.245,210.24,182.988,223.434z M179.037,174.027
		c5.385-4.699,13.172-17.234,1.979-21.743c-0.338-2.954,0.707-7.292-1.979-7.9c0.199-6.126-0.897-10.967-3.949-13.835
		c-0.339-2.961,0.707-7.292-1.979-7.907c0.283-10.825-6.332-14.754-7.907-23.714c-2.021,7.857-8.628,11.136-19.764,9.878
		c3.583,12.889,7.031,25.919,13.836,35.578c1.081,2.869-2.311,10.21,1.979,9.878c7.695,19.312,10.316,43.704,19.763,61.264
		c2.262-14.118-6.218-17.503-3.957-31.621C175.426,178.323,179.85,178.79,179.037,174.027z M171.13,247.147
		c7.957-3.243,7.914-14.485,11.857-21.735C170.593,225.433,167.498,236.513,171.13,247.147z M171.13,249.126
		c-6.176-0.904-6.317,4.219-5.929,9.878C171.201,259.732,169.307,252.567,171.13,249.126z M161.252,245.176
		c3.477-0.48,4.501-3.406,3.95-7.907c-0.657,0-1.314,0-1.971,0c-2.763-9.758-1.929-23.106-1.979-35.577c-0.657,0-1.322,0-1.979,0
		c0.106-3.399-1.52-5.06-3.95-5.929c1.145-6.416-1.35-9.193-1.979-13.828c-3.823-2.106-2.756-9.109-5.929-11.858
		c0-2.635,0-5.271,0-7.907c0-0.657,0-1.321,0-1.979c-4.558,0.607-2.197-5.709-5.928-5.929c-0.021-5.25,0.749-11.285-1.979-13.835
		c0-0.657,0-1.314,0-1.971c-4.558,0.601-2.19-5.709-5.929-5.929c0.537-7.123,0.495-13.673-7.9-11.864c0,1.321,0,2.636,0,3.957
		c-2.339,0.961-4.48,2.106-5.928,3.95c-1.534,0.445-3.901,0.057-3.957,1.979c-2.325,0.311-5.611-0.339-5.929,1.979
		c1.986-0.007,2.353,1.597,3.957,1.971c-0.141,6.727-0.622,13.793,3.95,15.814c0.417,2.219,2.19,3.074,3.95,3.95
		c6.72,18.973,13.956,37.43,19.764,57.313c0,0.657,0,1.314,0,1.979c3.731,0.219,1.371,6.529,5.928,5.929
		c0.41,22.647-2.848,48.961,7.907,61.264c0-7.907,0-15.814,0-23.714c1.208-0.113,2.339-0.297,1.979-1.979
		C160.227,253.373,161.548,250.08,161.252,245.176z M155.323,162.17c-0.452-3.505,1.993-9.9-3.95-7.907
		C151.642,157.944,152.673,160.87,155.323,162.17z"/>
	<path fill="#02A4BD" d="M271.921,130.549c3.788,13.086-5.504,21.149-3.949,25.692c0,0.657,0,1.314,0,1.972
		c-0.657,0-1.321,0-1.979,0c-2.911,9.087,10.67,6.889,3.949,13.835c-0.656,0-1.313,0-1.971,0
		c-1.738,1.788-5.667,11.158-1.979,11.857c0,1.321,0,2.636,0,3.957c-4.946-2.614-6.184,7.809-7.907,1.972
		c2.289-5.356,0.961-4.919,0-11.857c-3.286-3.921,0.184-2.508,0-7.9c-1.604-6.84,3.695-8.345,0-11.864c0-1.972,0-3.95,0-5.929
		c5.709-0.876-1.753-14.931,3.957-15.807C266.743,145.833,262.778,130.881,271.921,130.549z M264.015,170.077
		c0.105-3.406-1.52-5.066-3.95-5.928C259.958,167.547,261.584,169.215,264.015,170.077z"/>
	<path fill="#02A4BD" d="M267.972,189.834c0.112,1.208,0.297,2.346,1.971,1.979c-0.869,1.759-1.73,3.532-3.949,3.95
		c0-1.314,0-2.629,0-3.95c-8.317-3.046-0.312,10.225-5.929,9.879c-2.339-2.572-0.933-12.543,5.929-11.857
		C266.651,189.834,267.315,189.834,267.972,189.834z"/>
	<path fill="#02A4BD" d="M267.972,179.955c0,3.293,0,6.586,0,9.879c-0.657,0-1.321,0-1.979,0c0-0.657,0-1.314,0-1.972
		c0-1.321,0-2.636,0-3.957C266.439,182.372,266.05,180.012,267.972,179.955z"/>
	<path fill="#02A4BD" d="M267.972,172.048c0,2.636,0,5.271,0,7.907c-1.922,0.057-1.533,2.417-1.979,3.95
		C262.305,183.206,266.234,173.836,267.972,172.048z"/>
	<path fill="#02A4BD" d="M265.994,195.763c1.286,13.8-7.137,17.897-7.907,29.649c-3.356,0.728-3.724-1.541-3.95-3.957
		c0-1.972,0-3.95,0-5.929c1.922-0.05,1.533-2.417,1.979-3.95c0.021-3.929,5.392-2.516,3.95-7.906c0-0.658,0-1.314,0-1.979
		c5.617,0.346-2.389-12.925,5.929-9.879C265.994,193.134,265.994,194.448,265.994,195.763z"/>
	<path fill="#02A4BD" d="M265.994,187.862c0,0.657,0,1.314,0,1.972c-6.861-0.686-8.268,9.285-5.929,11.857c0,0.664,0,1.32,0,1.979
		c-1.314,0-2.636,0-3.95,0c0.672-3.965-0.402-6.184-3.957-5.93c0-0.657,0-1.313,0-1.978c5.06,0.092,2.409-1.463,1.979-3.95
		c1.604-0.374,1.972-1.985,3.95-1.979C259.81,195.671,261.047,185.248,265.994,187.862z"/>
	<path fill="#02A4BD" d="M260.065,164.148c2.431,0.862,4.056,2.522,3.95,5.928C261.584,169.215,259.958,167.547,260.065,164.148z"/>
	<path fill="#02A4BD" d="M260.065,203.67c1.441,5.391-3.929,3.978-3.95,7.906c-1.321,0-2.636,0-3.957,0
		c-0.551-4.508,0.48-7.426,3.957-7.906C257.429,203.67,258.75,203.67,260.065,203.67z"/>
	<path fill="#02A4BD" d="M258.086,130.549c0.671,0.233,1.159,0.53,1.505,0.897C259.104,131.227,258.602,130.938,258.086,130.549z"/>
	<path fill="#02A4BD" d="M258.086,158.213c3.695,3.519-1.604,5.024,0,11.864c-1.979-0.007-2.346,1.597-3.95,1.972
		c0-3.95,0-7.9,0-11.857C256.122,160.198,256.49,158.594,258.086,158.213z"/>
	<path fill="#02A4BD" d="M258.086,177.977c0.961,6.938,2.289,6.501,0,11.857c-1.979-0.007-2.346,1.604-3.95,1.979
		c-3.193,0.558-3.398-1.866-5.929-1.979c1.046-1.59,2.063-3.208,1.979-5.929c0.657,0,1.314,0,1.972,0c0,1.321,0,2.636,0,3.957
		c6.077,3.024,6.077-12.91,0-9.886C252.673,174.903,256.497,176.606,258.086,177.977z"/>
	<path fill="#02A4BD" d="M258.086,170.077c0.184,5.392-3.286,3.979,0,7.9c-1.59-1.371-5.413-3.074-5.929,0c0,1.979,0,3.958,0,5.929
		c-0.657,0-1.314,0-1.972,0c0-3.293,0-6.585,0-9.878c2.297,0.318,3.512-0.438,3.95-1.979
		C255.741,171.674,256.108,170.07,258.086,170.077z"/>
	<path fill="#02A4BD" d="M254.136,221.455c0.227,2.416,0.594,4.685,3.95,3.957c-0.876,1.759-1.731,3.533-3.95,3.95
		c0.085-3.378-1.47-5.116-3.95-5.929c0.834,4.134-1.356,5.235-1.979,7.907c-6.677-0.806,5.258-7.667-3.949-5.929
		c1.929-2.021,3.9-4,5.928-5.929C250.236,221.405,252.603,221.017,254.136,221.455z"/>
	<path fill="#02A4BD" d="M252.158,197.74c3.555-0.254,4.629,1.965,3.957,5.93c-3.477,0.48-4.508,3.398-3.957,7.906
		c1.321,0,2.636,0,3.957,0c-0.445,1.533-0.057,3.9-1.979,3.95c-1.703-3.767-1.173,2.134-3.95,1.979
		c-0.961-7.547,0.559-12.613,3.95-15.813C253.762,200.094,252.151,199.727,252.158,197.74z"/>
	<path fill="#02A4BD" d="M250.186,223.434c2.48,0.813,4.035,2.551,3.95,5.929c-1.435,4.501-1.76,10.097-3.95,13.835
		c-1.208-0.113-2.339-0.297-1.979-1.979c0-3.293,0-6.586,0-9.878C248.83,228.669,251.02,227.567,250.186,223.434z"/>
	<path fill="#02A4BD" d="M254.136,215.526c0,1.979,0,3.957,0,5.929c-1.533-0.438-3.9-0.05-3.95-1.972c0-0.664,0-1.321,0-1.979
		C252.963,217.66,252.433,211.76,254.136,215.526z"/>
	<path fill="#02A4BD" d="M254.136,142.406c0,3.293,0,6.585,0,9.878C250.907,153.175,250.907,141.516,254.136,142.406z"/>
	<path fill="#02A4BD" d="M254.136,128.57c0,3.293,0,6.593,0,9.886C250.907,139.346,250.907,127.68,254.136,128.57z"/>
	<path fill="#02A4BD" d="M252.158,177.977c6.077-3.024,6.077,12.91,0,9.886c0-1.321,0-2.636,0-3.957
		C252.158,181.935,252.158,179.955,252.158,177.977z"/>
	<path fill="#02A4BD" d="M252.158,197.74c-0.007,1.986,1.604,2.354,1.979,3.951c-3.392,3.2-4.911,8.267-3.95,15.813
		c0,0.657,0,1.314,0,1.979c-2.027,1.929-3.999,3.907-5.928,5.929c0.254,4.868,0.296,9.518-1.979,11.856
		c-2.686-0.614-1.64-4.946-1.979-7.906c6.091-8.402,5.066-23.919,7.906-35.571c1.598,0.374,1.972,1.979,3.95,1.972
		C252.158,196.427,252.158,197.083,252.158,197.74z"/>
	<path fill="#02A4BD" d="M250.186,243.197c-1.702,1.59-1.18,5.413-3.957,5.929c-0.438-1.533-0.049-3.9-1.971-3.95
		c0.416-2.219,2.19-3.081,3.949-3.957C247.847,242.9,248.978,243.084,250.186,243.197z"/>
	<path fill="#02A4BD" d="M248.208,231.341c0,3.292,0,6.585,0,9.878c-1.759,0.876-3.533,1.738-3.949,3.957c-0.665,0-1.322,0-1.979,0
		c-3.583-0.014,3.44-5.505,3.949-7.907c-1.78-5.398-4.416,6.014-7.899,0c0.162-3.13-0.954-7.539,1.972-7.906
		c0.339,2.96-0.707,7.292,1.979,7.906c2.274-2.339,2.232-6.988,1.979-11.856C253.465,223.674,241.531,230.535,248.208,231.341z"/>
	<path fill="#02A4BD" d="M246.229,249.126c0.559,3.193-1.865,3.398-1.971,5.929c-2.933-0.368-1.816-4.777-1.979-7.907
		c0-0.657,0-1.314,0-1.972c0.656,0,1.313,0,1.979,0C246.18,245.226,245.792,247.593,246.229,249.126z"/>
	<path fill="#02A4BD" d="M238.33,237.269c3.483,6.014,6.119-5.398,7.899,0c-0.509,2.402-7.532,7.894-3.949,7.907
		c0,0.657,0,1.314,0,1.972c-2.297,0.325-3.52-0.438-3.95-1.972c-0.312-2.332,0.339-5.61-1.979-5.936
		C235.983,237.565,237.121,237.382,238.33,237.269z"/>
	<path fill="#02A4BD" d="M244.258,255.055c0.36,1.682-0.771,1.865-1.979,1.979c-1.683,0.36-1.866-0.771-1.979-1.979
		c-1.696-1.598-1.174-5.413-3.95-5.929c0.728,3.363-1.541,3.73-3.95,3.95c0,0.664,0,1.321,0,1.979
		c-1.922-0.057-1.54-2.417-1.979-3.95c-0.367-1.682,0.771-1.865,1.979-1.979c3.879,0.594,3.915-2.671,5.929-3.95
		c0.431,1.533,1.653,2.297,3.95,1.972C242.442,250.277,241.326,254.687,244.258,255.055z"/>
	<path fill="#02A4BD" d="M242.28,257.033c0.36,1.682-0.771,1.865-1.979,1.971c-0.877-2.868-1.731,0.205-3.95,0
		c-0.729-3.356,1.54-3.724,3.95-3.949C240.414,256.263,240.597,257.394,242.28,257.033z"/>
	<path fill="#02A4BD" d="M240.301,259.004c0.311,11.511-5.35,17.051-9.879,23.715c-1.208-0.106-2.339-0.29-1.979-1.972
		c0-1.979,0-3.957,0-5.929c0.445-1.533,0.057-3.9,1.979-3.957c2.933-1.675,2.861-6.359,3.95-9.879
		c-0.36-1.682,0.77-1.865,1.979-1.979C238.57,259.209,239.424,256.136,240.301,259.004z"/>
	<path fill="#02A4BD" d="M236.351,249.126c2.776,0.516,2.254,4.331,3.95,5.929c-2.41,0.226-4.679,0.593-3.95,3.949
		c-1.209,0.113-2.339,0.297-1.979,1.979c-1.541-0.438-2.297-1.653-1.972-3.949c0-0.664,0-1.321,0-1.979s0-1.314,0-1.979
		C234.81,252.856,237.079,252.489,236.351,249.126z"/>
	<path fill="#02A4BD" d="M238.33,187.862c5.102,1.011,6.501,19.156-1.979,21.735C235.234,200.582,239.856,197.288,238.33,187.862z"
		/>
	<path fill="#02A4BD" d="M236.351,239.24c2.317,0.325,1.667,3.604,1.979,5.936c-2.014,1.279-2.05,4.544-5.929,3.95
		C232.104,244.222,232.026,239.537,236.351,239.24z"/>
	<path fill="#02A4BD" d="M234.373,260.982c-1.089,3.52-1.018,8.204-3.95,9.879c-0.664-9.709-2.028,4.501-5.929-1.972
		c0-1.321,0-2.636,0-3.957c1.201-0.105,2.339-0.289,1.972-1.972c0.664,0,1.321,0,1.979,0c0.961-2.339,2.105-4.479,3.957-5.928
		C232.076,259.329,232.832,260.545,234.373,260.982z"/>
	<path fill="#02A4BD" d="M232.401,255.055c0,0.657,0,1.314,0,1.979c-1.852,1.448-2.996,3.589-3.957,5.928c-0.657,0-1.314,0-1.979,0
		c0-1.979,0-3.957,0-5.928c-0.085-3.385,1.47-5.123,3.957-5.929C230.861,252.638,230.479,254.998,232.401,255.055z"/>
	<path fill="#02A4BD" d="M232.401,193.791c0,1.972,0,3.949,0,5.928c-2.438,2.205-4.063,1.718-3.957-1.979
		c1.441-5.392-3.929-3.978-3.95-7.906c-0.367-1.675,0.771-1.858,1.972-1.972C226.112,192.173,228.083,194.151,232.401,193.791z"/>
	<path fill="#02A4BD" d="M230.422,183.905c4.282-0.332,0.891,7.01,1.979,9.886c-4.317,0.36-6.289-1.618-5.936-5.929
		C228.225,186.986,230.005,186.124,230.422,183.905z"/>
	<path fill="#02A4BD" d="M232.401,199.719c-1.109,2.848-3.088,4.82-5.936,5.93c0.367-1.682-0.771-1.866-1.972-1.979
		c0-0.658,0-1.314,0-1.979c7.038-5.59-8.72-7.293-1.979,0c-1.597,0.381-1.972,1.984-3.95,1.979c0.318-2.297-0.438-3.513-1.979-3.951
		c0.877-1.759,1.738-3.532,3.95-3.956c-0.049-1.922-2.416-1.533-3.95-1.972c-0.657,0-1.313,0-1.979,0
		c0.325-2.317,3.604-1.668,5.929-1.979c2.311,1.236,5.173,1.011,7.907,5.928C228.337,201.437,229.963,201.924,232.401,199.719z"/>
	<path fill="#02A4BD" d="M224.494,268.89c3.9,6.473,5.265-7.737,5.929,1.972c-1.922,0.057-1.533,2.424-1.979,3.957
		c-0.657,0-1.314,0-1.979,0c-1.922-0.057-1.533-2.424-1.972-3.957C224.494,270.204,224.494,269.547,224.494,268.89z"/>
	<path fill="#02A4BD" d="M230.422,282.719c-0.876,1.767-1.738,3.54-3.957,3.957c0-1.321,0-2.636,0-3.957
		c0.113-1.201,0.297-2.339,1.979-1.972C228.083,282.429,229.214,282.612,230.422,282.719z"/>
	<path fill="#02A4BD" d="M224.494,189.834c0.021,3.929,5.392,2.515,3.95,7.906c-2.734-4.917-5.597-4.691-7.907-5.928
		C220.593,189.89,222.96,190.278,224.494,189.834z"/>
	<path fill="#02A4BD" d="M228.444,274.818c0,1.972,0,3.95,0,5.929c-1.682-0.367-1.865,0.771-1.979,1.972c-0.657,0-1.314,0-1.972,0
		c0-0.657,0-1.314,0-1.972c2.317-0.318,1.668-3.604,1.972-5.929C227.129,274.818,227.787,274.818,228.444,274.818z"/>
	<path fill="none" stroke="#02A4BD" d="M226.465,170.077c2.389,15.15-20.379,17.206-25.686,7.9c-1.483-6.083-1.716-4.117,3.95-9.878
		C211.011,165.329,222.41,165.124,226.465,170.077z"/>
	<path fill="#02A4BD" d="M224.494,203.67c1.201,0.112,2.339,0.297,1.972,1.979c-1.053,6.847,2.939,18.746-3.95,19.764
		C225.398,216.057,216.629,205.959,224.494,203.67z"/>
	<path fill="#02A4BD" d="M226.465,262.961c0.367,1.683-0.771,1.866-1.972,1.972c0.36-1.682-0.771-1.858-1.979-1.972
		c1.703-1.597,1.173-5.412,3.95-5.928C226.465,259.004,226.465,260.982,226.465,262.961z"/>
	<path fill="#02A4BD" d="M226.465,282.719c0,1.321,0,2.636,0,3.957c-3.378,8.472-8.868,14.846-15.807,19.764
		c-1.541-0.438-2.297-1.66-1.979-3.957c0.586-4.027,5.349-3.872,5.928-7.9c3.393-2.543,7.773-4.091,7.907-9.885
		c0.113-1.201,0.297-2.339,1.979-1.979C225.151,282.719,225.808,282.719,226.465,282.719z"/>
	<path fill="#02A4BD" d="M226.465,274.818c-0.304,2.325,0.346,5.61-1.972,5.929c-2.529,0.105-2.741,2.529-5.929,1.972
		c0-0.657,0-1.314,0-1.972c4.282,0.332,0.891-7.01,1.972-9.886c1.321,0,2.636,0,3.957,0
		C224.932,272.395,224.543,274.762,226.465,274.818z"/>
	<path fill="#02A4BD" d="M222.515,201.691c-6.741-7.293,9.017-5.59,1.979,0C223.836,201.691,223.172,201.691,222.515,201.691z"/>
	<path fill="#02A4BD" d="M222.515,262.961c1.208,0.113,2.339,0.29,1.979,1.972c0,1.321,0,2.636,0,3.957c0,0.657,0,1.314,0,1.972
		c-1.321,0-2.636,0-3.957,0c-0.657,0-1.314,0-1.972,0C218.014,266.36,219.039,263.435,222.515,262.961z"/>
	<path fill="#02A4BD" d="M224.494,280.747c0,0.657,0,1.314,0,1.972c-1.682-0.36-1.865,0.777-1.979,1.979
		c-4.643,0.629-4.423,6.119-7.907,7.906c-0.876-2.876-1.73,0.198-3.949,0c0-0.657,0-1.321,0-1.979
		c1.59-1.045,3.208-2.063,5.928-1.971c-0.558-3.194,1.866-3.406,1.979-5.936C221.752,283.276,221.964,280.853,224.494,280.747z"/>
	<path fill="#02A4BD" d="M224.494,201.691c0,0.664,0,1.32,0,1.979c-7.864,2.289,0.904,12.387-1.979,21.742
		c-5.54-3.428-1.858-5.18-1.979-11.857c0-0.664,0-1.321,0-1.979c-0.622-2.671-2.813-3.773-1.972-7.906
		c1.979,0.006,2.354-1.598,3.95-1.979C223.172,201.691,223.836,201.691,224.494,201.691z"/>
	<path fill="#02A4BD" d="M220.537,229.362c0.021,10.557-6.147,14.931-9.878,21.742c-1.209-0.113-2.339-0.297-1.979-1.979
		c-2.015-8.6,4.091-9.087,5.928-13.836c0-0.657,0-1.314,0-1.979C217.724,233.135,216.156,228.273,220.537,229.362z"/>
	<path fill="#02A4BD" d="M220.537,211.576c0,0.657,0,1.314,0,1.979c-3.54,0.248-4.169-2.424-7.899-1.979
		c0.953,6.939,2.282,6.501,0,11.857c-2.247-0.375-1.103-1.985,0-1.979c0.332-4.282-7.01-0.891-9.886-1.972
		c0.374-1.604,1.985-1.972,1.979-3.957c0-0.657,0-1.314,0-1.972c2.494-2.777,10.43-0.113,7.907-7.906c1.313,0,2.636,0,3.949,0
		C216.502,209.025,218.056,210.764,220.537,211.576z"/>
	<path fill="#02A4BD" d="M218.565,270.861c0.657,0,1.314,0,1.972,0c-1.081,2.876,2.311,10.218-1.972,9.886c0-0.657,0-1.321,0-1.979
		c0.17-2.806,0.325-5.597-1.979-5.929C216.226,271.158,217.357,270.975,218.565,270.861z"/>
	<path fill="#02A4BD" d="M222.515,284.697c-0.134,5.794-4.515,7.342-7.907,9.885c0-0.664,0-1.321,0-1.979
		C218.092,290.816,217.873,285.326,222.515,284.697z"/>
	<path fill="#02A4BD" d="M220.537,229.362c-4.381-1.089-2.813,3.772-5.929,3.949c-0.105-3.398,1.526-5.066,3.957-5.928
		C220.247,227.023,220.431,228.153,220.537,229.362z"/>
	<path fill="#02A4BD" d="M216.586,193.791c1.534,0.438,3.901,0.05,3.95,1.972c-2.212,0.424-3.073,2.197-3.95,3.956
		c-0.657,0-1.313,0-1.979,0c-6.635,2.939-17.898-4.712-7.899-5.928c0,1.313,0,2.636,0,3.949c3.498-0.452,9.893,1.993,7.899-3.949
		C215.273,193.791,215.929,193.791,216.586,193.791z"/>
	<path fill="#02A4BD" d="M216.586,199.719c1.541,0.438,2.297,1.654,1.979,3.951c-1.208,0.112-2.339,0.297-1.979,1.979
		c-1.313,0-2.636,0-3.949,0c-0.665,0-1.321,0-1.979,0c-5.399-5.455,2.896-1.859,3.949-5.93
		C215.273,199.719,215.929,199.719,216.586,199.719z"/>
	<path fill="#02A4BD" d="M216.586,272.84c2.304,0.332,2.148,3.123,1.979,5.929c-3.61,2.975-4.649,8.528-7.906,11.856
		c-1.979,0-3.95,0-5.929,0C206.221,282.238,212.446,278.585,216.586,272.84z"/>
	<path fill="#02A4BD" d="M218.565,280.747c0,0.657,0,1.314,0,1.972c-0.112,2.529-2.536,2.741-1.979,5.936
		c-2.72-0.092-4.338,0.926-5.928,1.971c3.257-3.328,4.296-8.882,7.906-11.856C218.565,279.426,218.565,280.09,218.565,280.747z"/>
	<path fill="#02A4BD" d="M218.565,225.412c0,0.657,0,1.314,0,1.972c-2.431,0.861-4.063,2.529-3.957,5.928c0,0.664,0,1.321,0,1.979
		c-3.187,0.559-3.398-1.865-5.928-1.979c0-0.657,0-1.314,0-1.971c-0.58-4.035-5.343-3.88-5.929-7.907c0-0.657,0-1.314,0-1.979
		c3.533-0.552,4.056,1.872,1.979,1.979c0.614,2.685,4.946,1.639,7.907,1.979c-3.661,3.809-3.625,1.562-1.979,7.899
		C215.308,232.69,211.832,223.949,218.565,225.412z"/>
	<path fill="#02A4BD" d="M218.565,203.67c-0.841,4.133,1.35,5.235,1.972,7.906c-2.48-0.813-4.034-2.551-3.95-5.928
		C216.226,203.967,217.357,203.782,218.565,203.67z"/>
	<path fill="#02A4BD" d="M214.608,193.791c1.993,5.942-4.401,3.497-7.899,3.949c0-1.313,0-2.636,0-3.949c1.972,0,3.95,0,5.929,0
		C213.294,193.791,213.951,193.791,214.608,193.791z"/>
	<path fill="#02A4BD" d="M214.608,292.604c0,0.657,0,1.314,0,1.979c-3.483,1.781-6.119,4.417-7.899,7.9c0,1.321,0,2.636,0,3.957
		c-4.134,0.834-5.236-1.356-7.907-1.979c1.229-7.469,8.253,2.134,7.907-7.907c0.876-1.76,1.731-3.533,3.95-3.95
		C212.877,292.802,213.732,289.728,214.608,292.604z"/>
	<path fill="#02A4BD" d="M208.68,233.312c2.529,0.113,2.741,2.537,5.928,1.979c-1.837,4.749-7.942,5.236-5.928,13.836
		c-1.683-0.367-1.866,0.771-1.972,1.979c-2.876-0.876,0.197-1.738,0-3.957c0-1.972,0-3.95,0-5.929c0.657,0,1.314,0,1.972,0
		c0.254-3.547-1.958-4.621-5.929-3.95c0-0.657,0-1.321,0-1.979C205.556,235.46,208.348,235.615,208.68,233.312z"/>
	<path fill="#02A4BD" d="M212.637,205.648c2.522,7.793-5.413,5.129-7.907,7.906c0.028-3.929,5.392-2.516,3.95-7.906
		c-5.583-0.318-4.601,5.936-9.879,5.928c0-0.656,0-1.321,0-1.979c4.346-1.434,6.564-9.271,11.857-3.949
		C211.316,205.648,211.972,205.648,212.637,205.648z"/>
	<path fill="#02A4BD" d="M212.637,193.791c-1.979,0-3.957,0-5.929,0c-9.999,1.216,1.265,8.867,7.899,5.928
		c-1.053,4.07-9.349,0.475-3.949,5.93c-5.293-5.321-7.512,2.516-11.857,3.949c1.208-1.844,4.6-7.285-1.979-5.928
		c0.113-1.201,0.297-2.34,1.979-1.979c1.59,1.045,3.208,2.063,5.929,1.979c0.36-4.311-1.618-6.29-5.929-5.93
		c-0.085-2.72,0.933-4.338,1.979-5.928c0-0.657,0-1.314,0-1.979C202.151,193.734,211.803,189.354,212.637,193.791z"/>
	<path fill="#02A4BD" d="M214.608,294.582c-0.579,4.028-5.342,3.873-5.928,7.9c-0.657,0-1.314,0-1.972,0
		C208.489,298.999,211.125,296.363,214.608,294.582z"/>
	<path fill="#02A4BD" d="M210.659,290.625c0,0.657,0,1.321,0,1.979c-2.219,0.417-3.074,2.19-3.95,3.95
		c-2.643-2.487-3.887-5.936-7.907-1.972c0.862-2.431,2.529-4.063,5.929-3.957C206.708,290.625,208.68,290.625,210.659,290.625z"/>
	<path fill="#02A4BD" d="M210.659,306.439c-0.877,1.76-1.738,3.533-3.95,3.95c0.629-5.243-11.073,1.852-7.907-5.929
		c2.671,0.622,3.773,2.813,7.907,1.979c0-1.321,0-2.636,0-3.957c0.657,0,1.314,0,1.972,0
		C208.362,304.779,209.118,306.001,210.659,306.439z"/>
	<path fill="#02A4BD" d="M210.659,251.104c-1.703,1.59-1.174,5.412-3.95,5.929c0-1.979,0-3.957,0-5.929
		c0.105-1.208,0.289-2.346,1.972-1.979C208.32,250.808,209.45,250.991,210.659,251.104z"/>
	<path fill="#02A4BD" d="M208.68,205.648c1.441,5.391-3.922,3.978-3.95,7.906c-1.604-0.381-1.972-1.985-3.95-1.979
		c-0.382,1.598-1.985,1.972-1.979,3.95c2.594,2.374,3.109,0.771,5.929,0c0.007,1.985-1.604,2.353-1.979,3.957
		c-1.314,0-2.636,0-3.95,0c-0.057-1.922-2.417-1.533-3.95-1.979c1.696-1.597,1.173-5.413,3.95-5.929
		C204.08,211.584,203.097,205.33,208.68,205.648z"/>
	<path fill="#02A4BD" d="M202.751,237.269c3.971-0.671,6.183,0.403,5.929,3.95c-0.657,0-1.314,0-1.972,0
		c-6.981,0.078-3.173-6.438-7.907,0c-4.671-0.551,2.269-5.278,1.979-7.907c-2.304,0.325-3.519-0.431-3.957-1.971
		c1.321,0,2.636,0,3.957,0c0.375,1.597,1.979,1.971,1.972,3.949C202.751,235.947,202.751,236.611,202.751,237.269z"/>
	<path fill="#02A4BD" d="M208.68,231.341c0,0.656,0,1.313,0,1.971c-0.332,2.304-3.124,2.148-5.929,1.979
		c0.007-1.979-1.597-2.353-1.972-3.949C203.698,229.051,205.754,229.051,208.68,231.341z"/>
	<path fill="#02A4BD" d="M198.801,304.461c-3.166,7.78,8.536,0.686,7.907,5.929c-1.703,7.561-10.288,1.999-13.836,0
		c-3.321-10.564,5.922-8.571,5.929-15.808c4.021-3.964,5.265-0.516,7.907,1.972C207.054,306.595,200.031,296.992,198.801,304.461z"
		/>
	<path fill="#02A4BD" d="M206.708,247.147c0.197,2.219-2.876,3.081,0,3.957c0,1.972,0,3.95,0,5.929
		c-6.466,11.977-13.666,23.227-23.721,31.621c0-1.979,0-3.957,0-5.936c5.397-5.145,8.762-12.316,11.863-19.758
		c3.251-0.883,9.688-8.507,5.929-9.885C201.882,250.229,203.861,248.257,206.708,247.147z"/>
	<path fill="#02A4BD" d="M206.708,241.219c0,1.979,0,3.957,0,5.929c-2.848,1.109-4.826,3.081-5.929,5.929
		c0.36,1.682-0.771,1.865-1.979,1.979c-1.76-1.533-4.466-2.127-7.907-1.979c0.318,2.317,3.604,1.667,5.929,1.979
		c-1.145,6.098-7.145,7.349-11.857,9.878c1.047,1.59,2.064,3.208,1.979,5.929c0,0.664,0,1.321,0,1.979
		c-1.922,0.057-1.533,2.417-1.979,3.95c-3.193,0.558-3.398-1.865-5.929-1.972c0-3.293,0-6.586,0-9.886
		c2.318-0.317,1.668-3.604,1.979-5.929c3.541,0.255,4.17-2.416,7.9-1.971c-4.43-4.254,1.392-6.996,7.907-5.929
		c0.954-6.226-6.063-4.48-3.95-11.864c3.293-3.922-0.177-2.509,0-7.899c1.314,0,2.636,0,3.95,0c0.438,1.54,1.653,2.296,3.957,1.971
		c0.29,2.629-6.649,7.356-1.979,7.907C203.536,234.781,199.727,241.297,206.708,241.219z"/>
	<path fill="#02A4BD" d="M202.751,223.434c0.586,4.027,5.349,3.872,5.929,7.907c-2.926-2.29-4.982-2.29-7.9,0
		c-1.321,0-2.636,0-3.957,0c-1.314,0-2.636,0-3.95,0c0-0.657,0-1.322,0-1.979c2.636,0,5.271,0,7.907,0
		c0.318-2.297-0.438-3.52-1.979-3.95c0-1.321,0-2.636,0-3.957C200.398,221.829,200.773,223.44,202.751,223.434z"/>
	<path fill="#02A4BD" d="M198.801,197.74c4.311-0.36,6.289,1.619,5.929,5.93c-2.721,0.084-4.339-0.934-5.929-1.979
		C198.801,200.377,198.801,199.063,198.801,197.74z"/>
	<path fill="#02A4BD" d="M204.73,213.555c0,0.657,0,1.314,0,1.972c-2.819,0.771-3.335,2.374-5.929,0
		c-0.007-1.979,1.597-2.353,1.979-3.95C202.758,211.569,203.125,213.174,204.73,213.555z"/>
	<path fill="#02A4BD" d="M200.78,253.076c3.759,1.378-2.678,9.002-5.929,9.885c1.024-2.925,2.919-4.981,3.95-7.906
		C200.009,254.941,201.14,254.758,200.78,253.076z"/>
	<path fill="#02A4BD" d="M198.801,225.412c1.54,0.431,2.297,1.653,1.979,3.95c-2.636,0-5.271,0-7.907,0c-1.321,0-2.636,0-3.957,0
		c0.876-1.76,1.738-3.533,3.957-3.95C192.901,227.998,198.356,227.928,198.801,225.412z"/>
	<path fill="#02A4BD" d="M200.78,189.834c0,0.664,0,1.321,0,1.979c-2.826,0.474-3.335,3.257-5.929,3.95c0-0.658,0-1.314,0-1.972
		C193.784,184.23,196.526,186.272,200.78,189.834z"/>
	<path fill="#02A4BD" d="M200.78,191.813c-1.046,1.59-2.063,3.208-1.979,5.928c0,1.322,0,2.637,0,3.951
		c-1.682-0.361-1.865,0.777-1.979,1.979c-2.678-0.608-1.639-4.947-1.972-7.907C197.445,195.069,197.954,192.286,200.78,191.813z"/>
	<path fill="#02A4BD" d="M198.801,221.455c0,1.321,0,2.636,0,3.957c-0.445,2.516-5.9,2.586-5.929,0
		c-0.254-3.548,2.417-4.169,1.979-7.907c1.533,0.445,3.894,0.057,3.95,1.979C198.801,220.141,198.801,220.798,198.801,221.455z"/>
	<path fill="#02A4BD" d="M192.873,181.935c3.483,1.779,6.119,4.416,7.907,7.899c-4.254-3.562-6.996-5.604-5.929,3.957
		C190.485,193.544,194.01,185.403,192.873,181.935z"/>
	<path fill="#02A4BD" d="M198.801,255.055c-1.031,2.925-2.926,4.981-3.95,7.906c-1.759,1.534-4.466,2.12-7.907,1.972
		c1.371,1.598,3.074,5.413,0,5.929c0.086-2.721-0.932-4.339-1.979-5.929c4.713-2.529,10.713-3.78,11.857-9.878
		c-2.324-0.312-5.61,0.339-5.929-1.979C194.335,252.928,197.042,253.521,198.801,255.055z"/>
	<path fill="#02A4BD" d="M192.873,239.24c-2.112,7.384,4.904,5.639,3.95,11.864c-6.516-1.067-12.337,1.675-7.907,5.929
		c-3.73-0.445-4.359,2.226-7.9,1.971c-0.311,2.325,0.34,5.611-1.979,5.929c0-1.972,0-3.95,0-5.929
		c1.598-1.695,5.413-1.173,5.929-3.949c0-0.657,0-1.314,0-1.979c1.209-0.113,2.34-0.297,1.979-1.972
		c5.046-0.227,3.922-6.621,3.95-11.864C191.551,239.24,192.215,239.24,192.873,239.24z"/>
	<path fill="#02A4BD" d="M192.873,231.341c-0.177,5.391,3.293,3.978,0,7.899c-0.657,0-1.321,0-1.979,0
		c-1.54,0.438-2.296,1.66-1.979,3.957c-2.933,1.675-2.854,6.359-3.95,9.879c0,0.664,0,1.321,0,1.979
		c-3.102,0.19-6.854-0.269-5.929,3.949c0,1.979,0,3.957,0,5.929c-3.229-0.89-3.229,10.776,0,9.886c0,0.657,0,1.314,0,1.972
		c-2.685,0.614-1.639,4.953-1.978,7.907c-0.657,0-1.314,0-1.971,0c-0.841,3.772-5.646,3.575-3.957,9.885c1.979,0,3.957,0,5.928,0
		c-0.169-2.805-0.325-5.596,1.978-5.928c-0.36,1.674,0.771,1.858,1.979,1.971c2.078,8.671-6.684,6.494-5.928,13.836
		c-1.555,10.183,12.755,14.825,9.878,19.764c-7.801-4.056-14.421-9.292-21.735-13.835c7.412-28.159,11.327-59.815,25.685-81.027
		c1.321,0,2.636,0,3.957,0C192.873,230.019,192.873,230.684,192.873,231.341z"/>
	<path fill="#02A4BD" d="M190.894,239.24c-0.028,5.243,1.096,11.638-3.95,11.864c0.622-2.678,2.813-3.78,1.972-7.907
		C188.598,240.9,189.354,239.679,190.894,239.24z"/>
	<path fill="#02A4BD" d="M194.851,262.961c-3.102,7.441-6.466,14.613-11.863,19.758c-0.658,0-1.314,0-1.973,0
		c-1.483-6.749,8.028-2.509,5.929-9.879c0-0.657,0-1.314,0-1.979c3.074-0.516,1.371-4.331,0-5.929
		C190.385,265.081,193.092,264.495,194.851,262.961z"/>
	<path fill="#02A4BD" d="M188.916,243.197c0.841,4.127-1.35,5.229-1.972,7.907c0.361,1.675-0.77,1.858-1.979,1.972
		C186.061,249.557,185.983,244.872,188.916,243.197z"/>
	<path fill="#02A4BD" d="M186.944,272.84c2.1,7.37-7.412,3.13-5.929,9.879c1.089,4.056-3.772,4.72-3.957,1.979
		c2.685-0.608,1.64-4.946,1.978-7.907c0-0.657,0-1.314,0-1.972c2.53,0.106,2.735,2.529,5.929,1.972
		C185.411,275.257,185.022,272.896,186.944,272.84z"/>
	<path fill="none" stroke="#02A4BD" d="M186.944,172.048c-2.692,11.298,9.335,43.174-3.956,51.385
		C188.245,210.24,181.595,185.149,186.944,172.048z"/>
	<path fill="#02A4BD" d="M182.988,288.654c0.367,1.674-0.771,1.858-1.973,1.971c-1.207-0.112-2.338-0.297-1.979-1.971
		c-2.303,0.332-2.147,3.123-1.978,5.928c-1.971,0-3.95,0-5.928,0c-1.689-6.31,3.116-6.112,3.957-9.885c0.657,0,1.314,0,1.971,0
		c0.184,2.741,5.045,2.077,3.957-1.979c0.658,0,1.314,0,1.973,0C182.988,284.697,182.988,286.676,182.988,288.654z"/>
	<path fill="#02A4BD" d="M184.965,255.055c-0.516,2.776-4.331,2.254-5.929,3.949C178.112,254.786,181.864,255.245,184.965,255.055z"
		/>
	<path fill="#02A4BD" d="M181.015,152.284c11.193,4.508,3.406,17.043-1.979,21.743c-0.657,0-1.313,0-1.978,0
		c-1.879-9.49,8.006-12.974,0-17.786c-0.657,0-1.314,0-1.971,0c-1.229-5.363,2.508-15.687-1.979-17.785c-1.979,0-3.95,0-5.929,0
		c0-1.979,0-3.958,0-5.929c4.367-0.248,0.841-8.388,1.979-11.864c-1.541-3.858-8.932-11.97-13.835-5.928
		c3.286,3.964-0.169,14.662,3.95,17.792c0,0.657,0,1.314,0,1.971c0,0.665,0,1.322,0,1.979c4.678,12.451,11.412,22.845,11.857,39.528
		c0,0.657,0,1.314,0,1.971c4.558-0.601,2.197,5.71,5.928,5.929c-2.261,14.118,6.218,17.503,3.957,31.621
		c-9.447-17.56-12.068-41.952-19.763-61.264c-1.082-2.869,2.311-10.21-1.979-9.878c-6.805-9.659-10.253-22.689-13.836-35.578
		c11.136,1.258,17.743-2.021,19.764-9.878c1.576,8.96,8.19,12.889,7.907,23.714c0.163,3.13-0.947,7.54,1.979,7.907
		c3.052,2.869,4.148,7.709,3.949,13.835C179.2,147.515,178.09,151.917,181.015,152.284z"/>
	<path fill="#02A4BD" d="M179.037,144.384c2.686,0.608,1.641,4.946,1.979,7.9C178.09,151.917,179.2,147.515,179.037,144.384z"/>
	<path fill="#02A4BD" d="M179.037,174.027c0.813,4.763-3.61,4.296-1.978,9.878c-3.731-0.219-1.371-6.529-5.928-5.929
		c0-0.657,0-1.314,0-1.971c2.826-0.77,3.335-2.374,5.928,0c0-0.664,0-1.321,0-1.979C177.723,174.027,178.38,174.027,179.037,174.027
		z"/>
	<path fill="#02A4BD" d="M179.037,264.933c0,3.3,0,6.593,0,9.886C175.808,275.709,175.808,264.043,179.037,264.933z"/>
	<path fill="#02A4BD" d="M179.037,276.79c-0.338,2.961,0.707,7.299-1.978,7.907C177.398,281.743,176.352,277.404,179.037,276.79z"/>
	<path fill="#02A4BD" d="M182.988,225.412c-3.943,7.25-3.9,18.492-11.857,21.735C167.498,236.513,170.593,225.433,182.988,225.412z"
		/>
	<path fill="#02A4BD" d="M177.059,156.241c8.006,4.812-1.879,8.296,0,17.786c0,0.657,0,1.314,0,1.979
		c-2.593-2.374-3.102-0.77-5.928,0c-0.445-16.683-7.179-27.078-11.857-39.528c3.929,0.028,2.515,5.392,7.907,3.95
		c0,2.636,0,5.271,0,7.907c-0.29,4.904-0.367,9.588,3.95,9.878c0,0.664,0,1.321,0,1.979c3.9,1.371-0.488,11.03,3.957,11.857
		C174.649,165.689,178.578,163.689,177.059,156.241z"/>
	<path fill="#02A4BD" d="M177.059,156.241c1.52,7.448-2.409,9.448-1.971,15.807c-4.445-0.827-0.057-10.486-3.957-11.857
		c2.417-0.219,4.685-0.586,3.957-3.95C175.745,156.241,176.401,156.241,177.059,156.241z"/>
	<path fill="#02A4BD" d="M175.087,156.241c0.728,3.364-1.541,3.731-3.957,3.95c0-0.657,0-1.314,0-1.979
		c-3.413-1.194,0.155-9.37-3.95-9.878c0-2.636,0-5.271,0-7.907c2.325-0.304,5.611,0.339,5.929-1.971
		C177.596,140.555,173.858,150.878,175.087,156.241z"/>
	<path fill="#02A4BD" d="M173.109,122.642c2.685,0.615,1.639,4.946,1.979,7.907C172.162,130.181,173.271,125.772,173.109,122.642z"
		/>
	<path fill="#02A4BD" d="M167.18,138.456c1.979,0,3.95,0,5.929,0c-0.318,2.311-3.604,1.667-5.929,1.971
		c-5.392,1.441-3.978-3.922-7.907-3.95c0-0.657,0-1.314,0-1.979C163.202,134.527,161.789,139.89,167.18,138.456z"/>
	<path fill="#02A4BD" d="M165.202,259.004c-0.389-5.659-0.247-10.782,5.929-9.878C169.307,252.567,171.201,259.732,165.202,259.004z
		"/>
	<path fill="#02A4BD" d="M167.18,148.334c4.105,0.509,0.537,8.684,3.95,9.878C166.813,157.923,166.891,153.238,167.18,148.334z"/>
	<path fill="#02A4BD" d="M169.159,120.663c-0.664,0-1.321,0-1.979,0c-1.809-3.462-3.674-6.861-9.878-5.928c-0.664,0-1.321,0-1.979,0
		C160.227,108.693,167.618,116.805,169.159,120.663z"/>
	<path fill="#02A4BD" d="M167.18,120.663c0.657,0,1.314,0,1.979,0c-1.138,3.477,2.389,11.617-1.979,11.864
		C167.18,128.57,167.18,124.62,167.18,120.663z"/>
	<path fill="#02A4BD" d="M167.18,132.527c0,1.971,0,3.95,0,5.929c-5.392,1.434-3.978-3.929-7.907-3.958c0-0.657,0-1.314,0-1.971
		c0-3.3,0-6.593,0-9.886c0.657,0,1.321,0,1.979,0c-0.36-7.575,1.618-0.713,5.928-1.979C167.18,124.62,167.18,128.57,167.18,132.527z
		"/>
	<path fill="#02A4BD" d="M167.18,120.663c-4.31,1.265-6.289-5.596-5.928,1.979c-0.657,0-1.322,0-1.979,0
		c0.148-3.441-0.438-6.147-1.972-7.907C163.506,113.802,165.371,117.201,167.18,120.663z"/>
	<path fill="#02A4BD" d="M165.202,237.269c0.551,4.501-0.473,7.427-3.95,7.907c0.339-2.961-0.707-7.299,1.979-7.907
		C163.887,237.269,164.544,237.269,165.202,237.269z"/>
	<path fill="#02A4BD" d="M163.23,237.269c-2.686,0.608-1.64,4.946-1.979,7.907c0.296,4.904-1.025,8.197-3.95,9.879
		c-2.275-6.063-6.805-1.533-1.979,1.979c0,7.899,0,15.807,0,23.714c-10.755-12.303-7.497-38.616-7.907-61.264
		c0.339-4.946-3.038-6.19-5.928-7.907c-5.809-19.884-13.044-38.341-19.764-57.313c4.784-5.285,4.954,10.748,11.857,9.886
		c0,1.314,0,2.628,0,3.95c0,0.657,0,1.314,0,1.979c-0.629,6.558,4.396,7.462,5.929,11.858c0,2.635,0,5.271,0,7.899
		c0,0.664,0,1.321,0,1.979c0.226,5.052,3.625,6.918,5.928,9.879c-1.257,7.857,2.509,10.67,5.936,13.835
		c0.608,5.978-2.197,15.369,3.95,15.814c3.328-4.304-0.014-13.914,0-15.814c0-3.95,0-7.899,0-11.856
		c1.597-0.375,1.972-1.979,3.95-1.979c0.657,0,1.321,0,1.979,0C161.301,214.162,160.467,227.511,163.23,237.269z M155.323,247.147
		c5.738-0.347-0.558-14.712-1.979-7.907C153.083,241.841,153.048,253.542,155.323,247.147z"/>
	<path fill="#02A4BD" d="M161.252,154.263c-4.29,0.332-0.897-7.01-1.979-9.878C163.563,144.052,160.17,151.394,161.252,154.263z"/>
	<path fill="#02A4BD" d="M159.506,174.854c-0.007,0.042-0.021,0.092-0.028,0.142C159.485,174.938,159.5,174.896,159.506,174.854z"/>
	<path fill="#02A4BD" d="M159.457,175.101c-0.014,0.07-0.035,0.155-0.049,0.247C159.422,175.256,159.443,175.171,159.457,175.101z"
		/>
	<path fill="#02A4BD" d="M159.273,176.005c0.028-0.127,0.049-0.24,0.07-0.346C159.323,175.765,159.301,175.885,159.273,176.005z"/>
	<path fill="#02A4BD" d="M157.302,114.735c1.533,1.759,2.12,4.466,1.972,7.907c0,3.293,0,6.586,0,9.886
		c-4.12-3.13-0.665-13.829-3.95-17.792C155.98,114.735,156.638,114.735,157.302,114.735z"/>
	<path fill="#02A4BD" d="M155.323,195.763c2.431,0.869,4.056,2.529,3.95,5.929c-1.979,0-2.353,1.604-3.95,1.979
		c0-1.979,0-3.951,0-5.93c-2.325-0.311-5.61,0.34-5.929-1.978C151.373,195.763,153.345,195.763,155.323,195.763z"/>
	<path fill="#02A4BD" d="M158.743,178.669c0.028-0.142,0.057-0.29,0.092-0.445C158.8,178.373,158.771,178.521,158.743,178.669z"/>
	<path fill="#02A4BD" d="M158.524,179.751c0.021-0.1,0.042-0.213,0.07-0.326C158.566,179.538,158.545,179.645,158.524,179.751z"/>
	<path fill="#02A4BD" d="M158.27,181.036c-0.007,0.043-0.014,0.078-0.021,0.106C158.256,181.114,158.263,181.079,158.27,181.036z"/>
	<path fill="#02A4BD" d="M157.302,255.055c0.36,1.682-0.77,1.865-1.979,1.979C150.497,253.521,155.026,248.991,157.302,255.055z"/>
	<path fill="#02A4BD" d="M153.345,239.24c1.42-6.805,7.716,7.561,1.979,7.907C155.161,244.017,156.27,239.607,153.345,239.24z"/>
	<path fill="#02A4BD" d="M155.323,215.526c-0.014,1.9,3.328,11.511,0,15.814c-6.147-0.445-3.342-9.837-3.95-15.814
		C152.688,215.526,154.002,215.526,155.323,215.526z"/>
	<path fill="#02A4BD" d="M153.345,181.935c0.629,4.635,3.123,7.412,1.979,13.828c-1.979,0-3.95,0-5.929,0c0-4.607,0-9.222,0-13.828
		C150.709,181.935,152.03,181.935,153.345,181.935z"/>
	<path fill="#02A4BD" d="M155.323,203.67c0,3.957,0,7.906,0,11.856c-1.321,0-2.636,0-3.95,0c-3.427-3.165-7.193-5.978-5.936-13.835
		c0.665,0,1.322,0,1.979,0c0.163,3.13-0.947,7.539,1.979,7.906C153.125,209.379,150.766,203.068,155.323,203.67z"/>
	<path fill="#02A4BD" d="M155.323,197.74c0,1.979,0,3.951,0,5.93c-4.558-0.602-2.198,5.709-5.929,5.928
		c-1.47-6.084,5.427-3.795,3.95-9.879c-1.972,0-3.95,0-5.929,0c0,0.658,0,1.314,0,1.973c-0.657,0-1.314,0-1.979,0
		c2.375-2.594,0.771-3.103,0-5.929c-1.102-2.841-3.081-4.819-5.928-5.929c0-2.629,0-5.265,0-7.899
		c1.717-7.646-3.3-8.551-5.929-11.858c0-0.664,0-1.321,0-1.979c1.76,1.534,4.466,2.127,7.907,1.979
		c-0.304,4.911,3.102,6.112,3.95,9.878c-0.657,0-1.314,0-1.971,0c-5.201,3.435-0.707,13.723,3.95,13.836c0-4.614,0-9.222,0-13.836
		c1.682-0.36,1.866,0.771,1.979,1.979c0,4.606,0,9.221,0,13.828C149.713,198.08,152.999,197.43,155.323,197.74z"/>
	<path fill="#02A4BD" d="M153.345,239.24c2.925,0.367,1.816,4.776,1.979,7.907C153.048,253.542,153.083,241.841,153.345,239.24z"/>
	<path fill="#02A4BD" d="M151.373,154.263c5.943-1.993,3.498,4.402,3.95,7.907C152.673,160.87,151.642,157.944,151.373,154.263z"/>
	<path fill="#02A4BD" d="M153.345,199.719c1.477,6.084-5.42,3.795-3.95,9.879c-2.925-0.367-1.816-4.776-1.979-7.906
		c0-0.658,0-1.314,0-1.973C149.395,199.719,151.373,199.719,153.345,199.719z"/>
	<path fill="#02A4BD" d="M153.345,181.935c-1.314,0-2.636,0-3.95,0c-0.113-1.209-0.296-2.34-1.979-1.979c-0.657,0-1.314,0-1.979,0
		c-0.848-3.766-4.253-4.967-3.95-9.878c-2.29-2.925-2.29-4.981,0-7.907c2.388-0.417,1.215-2.198,0-3.957c0-0.657,0-1.314,0-1.972
		s0-1.321,0-1.979c3.731,0.219,1.371,6.536,5.928,5.929c0,0.657,0,1.321,0,1.979c-1.314,0-2.635,0-3.95,0
		c0.339,5.589-1.703,13.56,3.95,13.835c0-1.979,0-3.957,0-5.929C150.589,172.826,149.522,179.828,153.345,181.935z"/>
	<path fill="#02A4BD" d="M141.488,211.576c2.89,1.717,6.268,2.961,5.928,7.907c-4.558,0.601-2.197-5.71-5.928-5.929
		C141.488,212.891,141.488,212.233,141.488,211.576z"/>
	<path fill="#02A4BD" d="M147.416,179.955c0,4.614,0,9.222,0,13.836c-4.656-0.113-9.15-10.401-3.95-13.836c0.657,0,1.314,0,1.971,0
		C146.102,179.955,146.759,179.955,147.416,179.955z"/>
	<path fill="#02A4BD" d="M147.416,170.077c0,1.972,0,3.95,0,5.929c-5.653-0.275-3.61-8.246-3.95-13.835c1.314,0,2.636,0,3.95,0
		C147.416,164.806,147.416,167.441,147.416,170.077z"/>
	<path fill="#02A4BD" d="M145.438,195.763c0.771,2.826,2.375,3.335,0,5.929c-2.303-2.961-5.702-4.827-5.928-9.879
		C141.523,193.099,141.559,196.356,145.438,195.763z"/>
	<path fill="#02A4BD" d="M145.438,195.763c-3.879,0.594-3.915-2.664-5.928-3.95c0-0.657,0-1.314,0-1.979
		C142.357,190.943,144.335,192.922,145.438,195.763z"/>
	<path fill="#02A4BD" d="M141.488,158.213c1.215,1.759,2.388,3.54,0,3.957c-0.445-2.848-5.9-0.692-5.929-3.957
		C137.538,158.213,139.509,158.213,141.488,158.213z"/>
	<path fill="#02A4BD" d="M139.509,140.427c2.728,2.551,1.957,8.585,1.979,13.835c0,0.657,0,1.321,0,1.979
		c-3.886,0.594-3.922-2.671-5.929-3.957c0-1.314,0-2.636,0-3.95c0-1.314,0-2.636,0-3.95
		C135.976,142.166,137.75,141.304,139.509,140.427z"/>
	<path fill="#02A4BD" d="M141.488,156.241c0,0.657,0,1.314,0,1.972c-1.979,0-3.95,0-5.929,0c0-0.657,0-1.314,0-1.972
		c0-1.321,0-2.636,0-3.957C137.566,153.57,137.602,156.835,141.488,156.241z"/>
	<path fill="#02A4BD" d="M141.488,170.077c-3.441,0.148-6.147-0.445-7.907-1.979c0-1.321,0-2.636,0-3.95
		c0.94-6.211-5.313-5.222-5.928-9.886c-1.689-6.303,3.116-6.112,3.957-9.878c0-0.664,0-1.321,0-1.979
		c1.979-0.007,2.353,1.604,3.95,1.979c0,1.314,0,2.636,0,3.95c-3.201-1.414-3.201,9.32,0,7.907c0,0.657,0,1.314,0,1.972
		c0.028,3.265,5.483,1.109,5.929,3.957C139.198,165.095,139.198,167.151,141.488,170.077z"/>
	<path fill="#02A4BD" d="M133.581,170.077c2.629,3.307,7.646,4.211,5.929,11.858C137.976,177.539,132.952,176.634,133.581,170.077z"
		/>
	<path fill="#02A4BD" d="M139.509,138.456c0,0.657,0,1.314,0,1.971c-1.76,0.876-3.533,1.738-3.95,3.957
		c-1.597-0.375-1.971-1.985-3.95-1.979c-3.364-0.728-3.731,1.541-3.957,3.95c-3.102-0.848-1.689-6.211-7.9-3.95
		c0-0.657,0-1.314,0-1.979c2.296,0.325,3.512-0.431,3.95-1.971c1.682,0.36,1.866-0.771,1.979-1.979c0.657,0,1.314,0,1.972,0
		c0,1.314,0,2.636,0,3.95c5.208,0.601,6.487-2.734,5.928-7.9C137.319,132.747,134.952,139.057,139.509,138.456z"/>
	<path fill="#02A4BD" d="M135.559,152.284c0,1.321,0,2.636,0,3.957c-3.201,1.414-3.201-9.32,0-7.907
		C135.559,149.648,135.559,150.97,135.559,152.284z"/>
	<path fill="#02A4BD" d="M125.681,120.663c8.395-1.809,8.437,4.742,7.9,11.864c0.559,5.166-0.721,8.5-5.928,7.9
		c0-1.314,0-2.636,0-3.95c0-1.314,0-2.635,0-3.95c2.374-2.601,0.77-3.109,0-5.929c-0.113-1.208-0.297-2.346-1.972-1.979
		C125.681,123.299,125.681,121.984,125.681,120.663z"/>
	<path fill="#02A4BD" d="M127.652,154.263c0.615,4.664,6.868,3.674,5.928,9.886c-6.903,0.862-7.073-15.171-11.857-9.886
		c-1.759-0.876-3.533-1.731-3.95-3.95c2.317-0.318,1.667-3.604,1.979-5.929c2.819,0.474,3.328,3.25,5.928,3.95
		C125.984,150.659,125.342,153.945,127.652,154.263z"/>
	<path fill="#02A4BD" d="M131.609,142.406c0,0.657,0,1.314,0,1.979c-2.601,0.692-3.109,3.477-5.929,3.95
		c-2.6-0.7-3.109-3.477-5.928-3.95c0-0.664,0-1.321,0-1.979c6.211-2.261,4.798,3.102,7.9,3.95
		C127.878,143.946,128.246,141.678,131.609,142.406z"/>
	<path fill="#02A4BD" d="M125.681,148.334c2.819-0.474,3.328-3.258,5.929-3.95c-0.841,3.766-5.646,3.576-3.957,9.878
		C125.342,153.945,125.984,150.659,125.681,148.334z"/>
	<path fill="#02A4BD" d="M127.652,126.599c0.77,2.819,2.374,3.328,0,5.929c-0.657,0-1.314,0-1.972,0
		C125.984,130.195,125.342,126.917,127.652,126.599z"/>
	<path fill="#02A4BD" d="M127.652,132.527c0,1.314,0,2.636,0,3.95c-0.657,0-1.314,0-1.972,0c-0.325-2.317-3.604-1.667-5.928-1.979
		c0.431-1.54,1.653-2.296,3.95-1.971c0.657,0,1.314,0,1.979,0C126.338,132.527,126.995,132.527,127.652,132.527z"/>
	<path fill="#02A4BD" d="M125.681,124.62c1.675-0.367,1.858,0.771,1.972,1.979c-2.311,0.318-1.668,3.597-1.972,5.929
		c-0.664,0-1.321,0-1.979,0c0.728-3.363-1.541-3.731-3.95-3.957C121.201,126.726,123.342,125.581,125.681,124.62z"/>
	<path fill="#02A4BD" d="M125.681,136.477c-0.113,1.208-0.297,2.339-1.979,1.979c-0.057-1.922-2.417-1.534-3.95-1.979
		c0-0.657,0-1.314,0-1.979C122.077,134.81,125.356,134.16,125.681,136.477z"/>
	<path fill="#02A4BD" d="M119.752,128.57c2.409,0.226,4.678,0.594,3.95,3.957c-2.296-0.325-3.519,0.431-3.95,1.971
		c0,0.665,0,1.322,0,1.979c0,1.314,0,2.636,0,3.95c0,0.664,0,1.321,0,1.979s0,1.314,0,1.979c-0.311,2.325,0.339,5.61-1.979,5.929
		c-4.572-2.021-4.091-9.087-3.95-15.814c-0.007-1.979,1.597-2.353,1.972-3.95C115.852,128.627,118.219,129.016,119.752,128.57z"/>
	<path fill="#02A4BD" d="M119.752,136.477c1.533,0.445,3.893,0.057,3.95,1.979c-0.438,1.54-1.653,2.296-3.95,1.971
		C119.752,139.113,119.752,137.792,119.752,136.477z"/>
	<path fill="#02A4BD" d="M105.917,118.692c4.628-3.279,5.314-10.493,13.836-9.886C116.488,113.449,112.722,117.597,105.917,118.692z
		"/>
	<path fill="#02A4BD" d="M115.795,130.549c-0.375,1.597-1.979,1.971-1.972,3.95c-1.604-0.375-1.971-1.979-3.957-1.971
		C110.185,130.209,113.47,130.86,115.795,130.549z"/>
</g>
</svg>
