<?xml version="1.0" encoding="utf-8"?>
<!-- Generator: Adobe Illustrator 14.0.0, SVG Export Plug-In . SVG Version: 6.00 Build 43363)  -->
<!DOCTYPE svg PUBLIC "-//W3C//DTD SVG 1.1//EN" "http://www.w3.org/Graphics/SVG/1.1/DTD/svg11.dtd">
<svg version="1.1" xmlns="http://www.w3.org/2000/svg" xmlns:xlink="http://www.w3.org/1999/xlink" x="0px" y="0px"
	 width="428.876px" height="428.876px" viewBox="0 0 428.876 428.876" enable-background="new 0 0 428.876 428.876"
	 xml:space="preserve">
<g id="bgd">
	<circle id="bgd_1_" fill="#B3DCDF" cx="214.438" cy="214.438" r="214.438"/>
</g>
<g id="ground">
	<path id="bgd_2_" fill="#3B6B5F" d="M428.876,214.438c0,118.432-96.007,214.438-214.438,214.438C96.008,428.876,0,332.87,0,214.438
		"/>
</g>
<g id="root">
	<g>
		<path fill-rule="evenodd" clip-rule="evenodd" fill="#B3DCDF" d="M278.12,288.849c-12.539-1.769-23.531-4.701-33.123-9.926
			c-1.897,4.144-3.073,10.013-1.324,17.834c2.797,2.661,19.152,16.754,51.619,16.293c1.239,9.176,0.685,5.16,0.812,14.543
			c-12.923-0.678-28.633-3.322-41.429-7.378c10.258,20.11,7.687,39.294,0.113,41.957c3.695-19.97-36.569-55.75-26.658-94.769
			c-6.605-5.512-14.062-14.373-19.687-21.373c2.75,6.25,7.482,36.791,4.306,44.45c-1.559,3.757-3.365,7.241-5.358,10.537
			c-0.763,8.8,0.012,26.052,12.575,47.117c-7.327,5.661-4.125,3.173-12.19,7.975c-5.605-11-10.929-25.097-13.913-37.755
			c-15.96,16.731-36.471,30.239-52.619,53.878c3.073-15.243,0.618-19.029,25.515-45.604c14.383-12.392,25.585-33.551,25.629-33.546
			c3.717-9.278,3.368-15.199,3.368-15.199s-1.551-17.963-4.104-37.105c-1.842,0.986-17.262,17.97-24.44,23.24
			c20.745,63.039-68.718,57.799-73.688,57.789c-0.361-9.588-0.772-5.511,0.138-14.825c36.765,2.267,54.518-11.239,57.538-13.806
			c1.559-7.901-0.085-13.968-2.457-18.311c-10.574,4.813-39.941,6.619-54.033,7.734c-10.136,0.721-24.225-1.248-50.214,6.353
			c-1.962-7.979-1.929-8.593-1.807-10.417c27.79-20.095,101.446,7.733,144.648-63.707l0.143-0.463l20.58,0.026
			c46.341,70.201,64.03,60.737,125.125,47.751c5.662,7.327,3.173,4.125,7.975,12.189
			C305.458,288.536,287.132,290.042,278.12,288.849z"/>
	</g>
</g>
<g id="plants">
	<path fill-rule="evenodd" clip-rule="evenodd" fill="#02A4BD" d="M277.508,147.059c-30.526,4.432-48.745-6.4-48.745-6.4
		s-17.453,21.125-20.665,73.757c-11.512,0-12.498-0.022-20.383-0.022c-0.046-6.785,1.116-29.499,1.13-29.499
		c0.872-9.034,4.576-31.588,4.805-32.797c0.59-3.086-0.453-13.805-3.068-21.079c-0.988-10.629-4.523-29.654-16.484-32.55
		c-4.795-0.532-5.911-1.014-5.911-1.014s5.75,4.843,6.333,6.609c4.672,14.145,6.502,16.569,11.99,23.533
		c-5.979-0.044-16.902-1.505-33.758-8.746c-35.179-15.112-32.197-52.982-27.392-72.143c32.605,10.209,68.506,22.966,74.088,57.892
		c2.068,12.94-0.256,17.556-2.209,22.599c-6.388,41.261,14.041-84.354,120.644-44.639
		C317.39,101.023,304.341,144.351,277.508,147.059z"/>
	<path fill-rule="evenodd" clip-rule="evenodd" fill="#FFFFFF" d="M178.068,114.155c-2.25-5.75-3.75-11.917-10.167-16.833
		c20.75,1.833,21.25,22.167,22.75,33.583C186.985,127.905,182.401,124.155,178.068,114.155z"/>
	<path fill-rule="evenodd" clip-rule="evenodd" fill="#FFFFFF" d="M250.53,112.525c0,0,108.788-45.87-9.285-6.565
		c-16.707,5.562-22.759,14.23-26.759,22.875C229.459,122.142,250.53,112.525,250.53,112.525z"/>
</g>
</svg>
