<?xml version="1.0" encoding="UTF-8" standalone="no"?>
<!-- Generator: Adobe Illustrator 14.0.0, SVG Export Plug-In . SVG Version: 6.00 Build 43363)  -->

<svg
   xmlns:dc="http://purl.org/dc/elements/1.1/"
   xmlns:cc="http://creativecommons.org/ns#"
   xmlns:rdf="http://www.w3.org/1999/02/22-rdf-syntax-ns#"
   xmlns:svg="http://www.w3.org/2000/svg"
   xmlns="http://www.w3.org/2000/svg"
   xmlns:xlink="http://www.w3.org/1999/xlink"
   xmlns:sodipodi="http://sodipodi.sourceforge.net/DTD/sodipodi-0.dtd"
   xmlns:inkscape="http://www.inkscape.org/namespaces/inkscape"
   version="1.1"
   x="0px"
   y="0px"
   width="483.985px"
   height="480.733px"
   viewBox="0 0 483.985 480.733"
   enable-background="new 0 0 483.985 480.733"
   xml:space="preserve"
   id="svg2"
   inkscape:version="0.91 r13725"
   sodipodi:docname="biome_desert.svg"><metadata
     id="metadata66"><rdf:RDF><cc:Work
         rdf:about=""><dc:format>image/svg+xml</dc:format><dc:type
           rdf:resource="http://purl.org/dc/dcmitype/StillImage" /></cc:Work></rdf:RDF></metadata><defs
     id="defs64" /><sodipodi:namedview
     pagecolor="#ffffff"
     bordercolor="#666666"
     borderopacity="1"
     objecttolerance="10"
     gridtolerance="10"
     guidetolerance="10"
     inkscape:pageopacity="0"
     inkscape:pageshadow="2"
     inkscape:window-width="1096"
     inkscape:window-height="571"
     id="namedview62"
     showgrid="false"
     inkscape:zoom="0.49091699"
     inkscape:cx="-42.169599"
     inkscape:cy="240.3665"
     inkscape:window-x="0"
     inkscape:window-y="0"
     inkscape:window-maximized="0"
     inkscape:current-layer="svg2" /><g
     id="desert"><ellipse
       fill-rule="evenodd"
       clip-rule="evenodd"
       fill="#B3DCDF"
       cx="241.993"
       cy="240.367"
       rx="241.992"
       ry="240.367"
       id="ellipse5" /><g
       id="soil"><defs
         id="defs8"><ellipse
           id="SVGID_1_"
           cx="243.881"
           cy="240.367"
           rx="241.992"
           ry="240.367" /></defs><clipPath
         id="SVGID_2_"><use
           xlink:href="#SVGID_1_"
           overflow="visible"
           id="use12" /></clipPath><path
         id="flat"
         inkscape:connector-curvature="0"
         sodipodi:nodetypes="ccsscscsssssscsccc"
         clip-path="url(#SVGID_2_)"
         fill="#02A4BD"
         d="    M458.405,485.925c-0.474-8.087,45.385-292.721,44.419-294.566c-51.699-14.158-60.494-13.378-94.842-4.865    c-18.873,4.678-44.222,8.544-58.619,8.085c-12.827-0.409-20.349-3.446-31.81-3.333c-6.544-0.095-18.794,3.145-31.167,2.687    c-12.374-0.458-24.876-4.612-31.926-4.844c-11.52-0.769-25.449,4.272-38.637,4.102c-16.156-0.208-28.906-1.421-37.532-1.421    c-17.252,0-16.395-0.938-25.739-0.612c-6.093,0.213-22.921,2.388-34.517,2.753s-17.964-1.17-25.123-1.321    c-9.719-0.206-9.557,0.806-13.3,0.739c-4.915-0.086-28.568-4.038-37.538-4.417c-8.97-0.379-20.593,2.684-25.76,2.684    c-9.026,0-18.661,0.216-20.245,3.552c-8.334,23.653-1.996,10.075-4.498,16.602c-12.202,142.028,138.768,296.149,227.8,305.606" /><g
         id="d_blob"
         clip-path="url(#SVGID_2_)"><g
           id="g16"><path
             fill="#3B6B5F"
             d="M199.067,323.183c-2.781,0-5.036,2.239-5.036,5.001c0,2.763,2.255,5.002,5.036,5.002      s5.036-2.239,5.036-5.002C204.103,325.422,201.848,323.183,199.067,323.183z M222.764,346.131c-1.799,0-3.258,1.45-3.258,3.237      s1.459,3.235,3.258,3.235c1.799,0,3.258-1.448,3.258-3.235S224.563,346.131,222.764,346.131z M249.72,403.799      c-2.618,0-4.739,2.108-4.739,4.708s2.121,4.707,4.739,4.707c2.617,0,4.739-2.107,4.739-4.707S252.337,403.799,249.72,403.799z       M162.633,384.969c-1.309,0-2.37,1.054-2.37,2.354s1.062,2.354,2.37,2.354c1.309,0,2.37-1.054,2.37-2.354      S163.942,384.969,162.633,384.969z M185.441,398.503c-1.799,0-3.258,1.448-3.258,3.236c0,1.787,1.459,3.237,3.258,3.237      c1.801,0,3.259-1.45,3.259-3.237C188.7,399.951,187.242,398.503,185.441,398.503z M264.53,372.317      c0-2.438-1.99-4.414-4.444-4.414c-2.453,0-4.442,1.977-4.442,4.414c0,2.437,1.989,4.413,4.442,4.413      C262.54,376.73,264.53,374.754,264.53,372.317z M151.97,376.73c-1.309,0-2.371,1.053-2.371,2.354c0,1.3,1.062,2.354,2.371,2.354      s2.369-1.054,2.369-2.354C154.339,377.783,153.278,376.73,151.97,376.73z M146.933,360.254c-1.799,0-3.258,1.448-3.258,3.237      c0,1.787,1.458,3.235,3.258,3.235c1.8,0,3.259-1.448,3.259-3.235C150.192,361.702,148.733,360.254,146.933,360.254z       M130.938,317.887c-4.745,0-8.59,3.819-8.59,8.532c0,4.712,3.846,8.532,8.59,8.532c4.744,0,8.59-3.82,8.59-8.532      C139.528,321.706,135.683,317.887,130.938,317.887z M142.787,336.717c-0.164,0-0.296,0.132-0.296,0.293      c0,0.164,0.133,0.295,0.296,0.295s0.296-0.131,0.296-0.295C143.083,336.849,142.95,336.717,142.787,336.717z M293.262,357.312      c-1.473,0-2.666,1.186-2.666,2.648c0,1.462,1.193,2.647,2.666,2.647s2.666-1.186,2.666-2.647      C295.928,358.497,294.734,357.312,293.262,357.312z M301.261,375.554c-1.637,0-2.963,1.318-2.963,2.941      c0,1.625,1.326,2.942,2.963,2.942c1.636,0,2.962-1.317,2.962-2.942C304.223,376.872,302.896,375.554,301.261,375.554z       M311.035,370.846c-1.799,0-3.259,1.449-3.259,3.237c0,1.787,1.46,3.235,3.259,3.235s3.259-1.448,3.259-3.235      C314.294,372.295,312.834,370.846,311.035,370.846z M231.353,408.507c-1.307,0-2.368,1.053-2.368,2.354      c0,1.3,1.061,2.354,2.368,2.354c1.311,0,2.371-1.054,2.371-2.354C233.724,409.56,232.664,408.507,231.353,408.507z       M267.788,404.387c-2.126,0-3.851,1.714-3.851,3.824c0,2.114,1.725,3.826,3.851,3.826c2.127,0,3.852-1.712,3.852-3.826      C271.64,406.101,269.915,404.387,267.788,404.387z M260.975,390.853c-1.635,0-2.961,1.317-2.961,2.942s1.326,2.942,2.961,2.942      c1.637,0,2.963-1.317,2.963-2.942S262.611,390.853,260.975,390.853z M284.376,347.897c-1.8,0-3.258,1.449-3.258,3.235      c0,1.788,1.458,3.237,3.258,3.237s3.259-1.449,3.259-3.237C287.635,349.347,286.176,347.897,284.376,347.897z M184.257,335.539      c1.145,0,2.073-0.922,2.073-2.059c0-1.138-0.928-2.06-2.073-2.06c-1.146,0-2.074,0.922-2.074,2.06      C182.183,334.617,183.111,335.539,184.257,335.539z M232.835,336.717c-2.782,0-5.036,2.24-5.036,5.002s2.254,5.001,5.036,5.001      c2.781,0,5.036-2.239,5.036-5.001S235.616,336.717,232.835,336.717z"
             id="path18" /></g></g><g
         id="w_Blob"
         clip-path="url(#SVGID_2_)"><g
           id="g21"><path
             fill="#FFFFFF"
             d="M188.859,378.704c2.638,0,4.776-2.124,4.776-4.745c0-2.618-2.138-4.742-4.776-4.742      c-2.637,0-4.775,2.124-4.775,4.742C184.083,376.58,186.222,378.704,188.859,378.704z M285.484,348.38      c-2.639,0-4.775,2.122-4.775,4.743c0,2.62,2.138,4.744,4.775,4.744s4.775-2.124,4.775-4.744      C290.26,350.504,288.122,348.38,285.484,348.38z M112.577,363.534c-2.637,0-4.776,2.122-4.776,4.743      c0,2.62,2.139,4.743,4.776,4.743c2.638,0,4.776-2.123,4.776-4.743C117.353,365.656,115.214,363.534,112.577,363.534z       M197.062,381.868c-3.21,0-5.812,2.584-5.812,5.772c0,3.188,2.602,5.771,5.812,5.771c3.209,0,5.811-2.584,5.811-5.771      C202.873,384.452,200.271,381.868,197.062,381.868z M181.11,392.686c-4.892,0-8.858,3.938-8.858,8.797s3.967,8.798,8.858,8.798      c4.892,0,8.857-3.938,8.857-8.798S186.002,392.686,181.11,392.686z M143.007,376.988c-1.771-0.473-3.592,0.572-4.066,2.331      s0.577,3.567,2.348,4.039c1.771,0.472,3.592-0.573,4.066-2.332C145.83,379.267,144.778,377.458,143.007,376.988z       M156.775,378.202c0.579-2.141-0.702-4.341-2.856-4.915c-2.155-0.574-4.371,0.697-4.948,2.838s0.701,4.341,2.856,4.915      C153.982,381.613,156.198,380.344,156.775,378.202z M160.505,386.056c-3.285-0.875-6.662,1.062-7.543,4.324      c-0.88,3.263,1.069,6.616,4.354,7.49c3.285,0.875,6.662-1.061,7.542-4.324C165.739,390.284,163.789,386.93,160.505,386.056z       M299.936,346.802c1.588-0.911,2.132-2.929,1.214-4.506c-0.916-1.577-2.946-2.117-4.534-1.207      c-1.589,0.91-2.133,2.928-1.216,4.505C296.315,347.171,298.347,347.712,299.936,346.802z M305.98,345.875      c-1.933,1.108-2.595,3.562-1.479,5.481c1.115,1.92,3.587,2.577,5.52,1.469c1.933-1.107,2.594-3.562,1.478-5.481      C310.384,345.424,307.914,344.766,305.98,345.875z M298.655,358.758c-2.946,1.689-3.954,5.431-2.254,8.356      c1.701,2.925,5.466,3.928,8.412,2.237c2.945-1.688,3.954-5.429,2.253-8.354C305.367,358.072,301.6,357.069,298.655,358.758z       M243.808,353.626c-2.983-0.795-6.049,0.966-6.851,3.929c-0.798,2.965,0.973,6.012,3.958,6.807      c2.982,0.794,6.05-0.965,6.85-3.93S246.794,354.422,243.808,353.626z M334.011,301.404c2.638,0,4.775-2.123,4.775-4.743      s-2.138-4.743-4.775-4.743s-4.775,2.123-4.775,4.743S331.373,301.404,334.011,301.404z M370.243,310.64      c-1.7-2.925-5.467-3.929-8.411-2.239c-2.946,1.689-3.955,5.43-2.254,8.355c1.7,2.926,5.466,3.928,8.412,2.238      C370.936,317.306,371.943,313.564,370.243,310.64z M334.479,309.854c-4.549-1.21-9.224,1.471-10.442,5.988      c-1.218,4.518,1.48,9.161,6.028,10.371c4.548,1.211,9.224-1.47,10.442-5.987C341.726,315.707,339.027,311.064,334.479,309.854z"
             id="path23" /></g></g></g><g
       id="secondplan"
       inkscape:label="back"
       inkscape:groupmode="layer"
       display="none"><path
         id="path3454"
         inkscape:connector-curvature="0"
         sodipodi:nodetypes="ccscssscszssccc"
         fill="#F49F1E"
         d="M532.004,207.124    c-4.1-15.463-14.549-19.938-23.516-19.833c-24.666,5.109-20.342,5.236-35.756,4.735c-13.729-0.446-47.477,23.565-79.836,23.689    c-7.006-0.104-59.813-5.316-87.516-3.316c-13.223,0.955-54.339,10.237-63.333,11.71c-49.342,8.079-8.462,6.782-51.649,6.23    c-16.07-0.205-40.59-3.765-54.144-5.657c-10.403-0.225-15.491-10.678-26.489-10.192c-5.262-0.095-15.613-18.713-32.341-19.824    c-16.728-1.112-18.614,1.431-24.145,1.431c-9.663,0-8.392-10.081-36.863-11.121c-22.147-0.81-48.941,31.296-48.941,31.296    s150.783,229.895,218.88,244.548c199.123-5.687,349.967-146.229,347.324-194.3" /><path
         id="path3490"
         inkscape:connector-curvature="0"
         sodipodi:nodetypes="ccsc"
         fill="#F49F1E"
         d="M362.063,196.614    c18.857-6.314,62.951-20.859,70.701-17.859c-23.5,6.5-62.021,29.13-62.021,29.13c-13.852,5.049-45.039-4.796-57.613-9.443" /><path
         id="path3492"
         inkscape:connector-curvature="0"
         sodipodi:nodetypes="cccc"
         fill="#F49F1E"
         d="M282.563,195.364    c18.857-6.314,44.193-9.895,49.141-5.578c-11.84,6.817-16.961,7.599-16.961,7.599c-4.102,0.799-5.289,0.454-17.613-0.693" /><path
         id="path3494"
         inkscape:connector-curvature="0"
         sodipodi:nodetypes="ccc"
         fill="#00A3BC"
         d="M223.313,189.949    c11.757-3.851,27.555-6.034,30.641-3.401c-8.199,7.659-15.518,5.108-21.559,4.211" /><path
         id="path3496"
         inkscape:connector-curvature="0"
         sodipodi:nodetypes="ccc"
         fill="#F49F1E"
         d="M227.563,194.699    c11.758-3.851,43.055-4.034,46.139-1.401c-8.197,7.659-13.016,3.108-19.057,2.211" /><path
         id="path3498"
         inkscape:connector-curvature="0"
         sodipodi:nodetypes="cssscc"
         fill="#F49F1E"
         d="M101.563,200.449    c0,0,27.387-6.787,34.57-6.976c24.197-0.638,46.948,7.708,54.447,7.677c7.074-0.03,29.244-3.189,31.68-3.333    c9.742-0.573,35.15,6.164,41.193,9.48c-26.449,3.159-82.768,17.608-125.559,11.211" /></g><line
       display="none"
       fill="#FFFFFF"
       x1="422.873"
       y1="155.561"
       x2="28.873"
       y2="274.561"
       id="line32" /><circle
       opacity="0.44"
       fill-rule="evenodd"
       clip-rule="evenodd"
       fill="#FFFFFF"
       cx="197.601"
       cy="92.713"
       r="64.608"
       id="circle34" /><circle
       fill-rule="evenodd"
       clip-rule="evenodd"
       fill="#FFFFFF"
       cx="197.6"
       cy="92.713"
       r="42.399"
       id="circle36" /><g
       id="cactus"><g
         id="g39"><path
           fill="#3B6B5F"
           d="M261.472,322.653c0,12.494-41.129,12.494-41.129,0V124.716c0-12.494,9.207-22.623,20.564-22.623l0,0     c11.357,0,20.565,10.129,20.565,22.623V322.653z"
           id="path41" /><path
           fill="#3B6B5F"
           d="M220.453,250.514c6.134,0,11.108,7.48,11.108,16.709l0,0c0,9.229-4.974,16.709-11.108,16.709h-38.375     c-6.134,0-11.106-7.48-11.106-16.709l0,0c0-9.229,4.972-16.709,11.106-16.709H220.453z"
           id="path43" /><path
           fill="#3B6B5F"
           d="M199.281,271.454c0,6.134-7.482,11.108-16.708,11.108l0,0c-9.23,0-16.708-4.975-16.708-11.108v-38.375     c0-6.134,7.478-11.106,16.708-11.106l0,0c9.226,0,16.708,4.973,16.708,11.106V271.454z"
           id="path45" /><path
           fill="#3B6B5F"
           d="M256.714,246.775c-5.53,0-10.012-6.653-10.012-14.86l0,0c0-8.207,4.481-14.86,10.012-14.86h34.589     c5.53,0,10.013,6.653,10.013,14.86l0,0c0,8.207-4.482,14.86-10.013,14.86H256.714z"
           id="path47" /><path
           fill="#3B6B5F"
           d="M271.414,171.632c0-6.264,6.651-11.345,14.859-11.345l0,0c8.207,0,14.86,5.081,14.86,11.345v57.511     c0,6.269-6.653,11.348-14.86,11.348l0,0c-8.208,0-14.859-5.079-14.859-11.348V171.632z"
           id="path49" /></g></g></g></svg>