<?xml version="1.0" encoding="utf-8"?>
<!-- Generator: Adobe Illustrator 14.0.0, SVG Export Plug-In . SVG Version: 6.00 Build 43363)  -->
<!DOCTYPE svg PUBLIC "-//W3C//DTD SVG 1.1//EN" "http://www.w3.org/Graphics/SVG/1.1/DTD/svg11.dtd">
<svg version="1.1" id="skin" xmlns="http://www.w3.org/2000/svg" xmlns:xlink="http://www.w3.org/1999/xlink" x="0px" y="0px"
	 width="496.598px" height="493.264px" viewBox="16.002 14.719 496.598 493.264"
	 enable-background="new 16.002 14.719 496.598 493.264" xml:space="preserve">
<ellipse id="bgd" fill="#B3DCDF" cx="264.301" cy="261.351" rx="248.299" ry="246.632"/>
<g id="skin_epiderm">
	<path fill="#7DC47A" d="M254.582,246.729c9.982-8.69,74.917,13.291,142.87,6.556c75.698-7.503,42.294-12.216,114.236-12.502
		c0.413,4.399,0.701,6.955,0.885,11.416c0.007-0.187,0.021-0.372,0.027-0.559c-0.415-11.153-1.568-22.118-3.426-32.845
		c-74.963-11.545-127.935,4.035-180.89,2.178c-69.476-2.438-70.991-2.377-72.921,5.167
		C253.643,232.871,254.582,241.719,254.582,246.729z"/>
	<path fill="#7DC47A" d="M17.057,243.479c35.607,2.221,48.317,4.675,79.108,0.705c44.667-5.76,112.814-0.393,112.814-0.393
		s2.426-19.729,1.448-23.563c-7.986-12.213-96.055-13.967-142.446-7.985c-29.578,3.813-28.35,0.308-47.54,7.667
		c-1.719,10.285-2.797,20.783-3.193,31.456c0.006,0.163,0.018,0.324,0.024,0.487C17.429,248.078,16.736,247.209,17.057,243.479z"/>
</g>
<g>
	<g>
		<path id="skin_2_" fill="#02A4BD" d="M511.498,240.234c-71.94,0.286-38.537,4.999-114.234,12.502
			c-69.181,6.855-131.016-17.83-142.759-6.321c-0.626,29.671,4.024,68.328,10.492,80.481c9.297,17.472,21.647,24.885,28.967,43.527
			c14.17,27.089,5.948,56.917-27.401,68.425c-37.109,8.925-60.632-14.786-61.535-38.049c-1.644-33.938,12.683-40.983,5.989-77.506
			c-2.3-15.97-3.171-61.77-1.996-79.619c-15.736-8.455-64.83-6.525-111.221-0.545c-30.791,3.972-45.262,1.289-80.87-0.932
			C16.326,249.206,16,256.293,16,263.457C16,399.668,127.168,510.09,264.301,510.09c137.131,0,248.299-110.422,248.299-246.633
			C512.601,255.623,512.216,247.88,511.498,240.234z"/>
	</g>
	<g>
		<defs>
			<path id="SVGID_1_" d="M511.498,240.234c-71.94,0.286-38.537,4.999-114.234,12.502c-69.181,6.855-131.016-17.83-142.759-6.321
				c-0.626,29.671,4.024,68.328,10.492,80.481c9.297,17.472,21.647,24.885,28.967,43.527c14.17,27.089,5.948,56.917-27.401,68.425
				c-37.109,8.925-60.632-14.786-61.535-38.049c-1.644-33.938,12.683-40.983,5.989-77.506c-2.3-15.97-3.171-61.77-1.996-79.619
				c-15.736-8.455-64.83-6.525-111.221-0.545c-30.791,3.972-45.262,1.289-80.87-0.932C16.326,249.206,16,256.293,16,263.457
				C16,399.668,127.168,510.09,264.301,510.09c137.131,0,248.299-110.422,248.299-246.633
				C512.601,255.623,512.216,247.88,511.498,240.234z"/>
		</defs>
		<clipPath id="SVGID_2_">
			<use xlink:href="#SVGID_1_"  overflow="visible"/>
		</clipPath>
		<polygon id="nerves" display="none" clip-path="url(#SVGID_2_)" fill="#456876" points="260.219,469.068 260.219,433.845 
			243.309,433.845 243.309,469.068 7.959,469.068 7.959,485.978 569.316,485.978 569.316,469.068 		"/>
	</g>
	<g>
		<defs>
			<path id="SVGID_3_" d="M511.498,240.234c-71.94,0.286-38.537,4.999-114.234,12.502c-69.181,6.855-131.016-17.83-142.759-6.321
				c-0.626,29.671,4.024,68.328,10.492,80.481c9.297,17.472,21.647,24.885,28.967,43.527c14.17,27.089,5.948,56.917-27.401,68.425
				c-37.109,8.925-60.632-14.786-61.535-38.049c-1.644-33.938,12.683-40.983,5.989-77.506c-2.3-15.97-3.171-61.77-1.996-79.619
				c-15.736-8.455-64.83-6.525-111.221-0.545c-30.791,3.972-45.262,1.289-80.87-0.932C16.326,249.206,16,256.293,16,263.457
				C16,399.668,127.168,510.09,264.301,510.09c137.131,0,248.299-110.422,248.299-246.633
				C512.601,255.623,512.216,247.88,511.498,240.234z"/>
		</defs>
		<clipPath id="SVGID_4_">
			<use xlink:href="#SVGID_3_"  overflow="visible"/>
		</clipPath>
		<path id="waves" clip-path="url(#SVGID_4_)" fill="#3B6B5F" d="M652.993,210.249H-13.124l0.052,108.297
			c32.424,0,3.616-56.147,42.157-56.147c35.202,0,8.168,56.147,41.102,56.147c32.424,0,3.615-56.147,42.157-56.147
			c35.201,0,8.168,56.147,41.101,56.147c32.424,0,3.616-56.147,42.158-56.147c35.201,0,8.168,56.147,41.101,56.147
			c32.422,0,3.615-56.147,42.158-56.147c35.201,0,8.167,56.147,41.101,56.147c32.426,0,3.614-56.147,42.156-56.147
			c35.201,0,8.17,56.147,41.104,56.147c32.424,0,3.615-56.147,42.156-56.147c35.201,0,8.17,56.147,41.103,56.147
			c32.424,0,3.613-56.147,42.156-56.147c35.201,0,8.169,56.147,41.103,56.147c32.423,0,3.614-56.147,42.158-56.147
			c35.2,0,8.167,56.147,41.101,56.147L652.993,210.249z"/>
	</g>
</g>
<g id="fat">
	<circle fill="#FFFFFF" cx="202.677" cy="460.457" r="17.38"/>
	<circle fill="#FFFFFF" cx="380.235" cy="435.09" r="8.925"/>
	<circle fill="#FFFFFF" cx="342.187" cy="399.861" r="15.971"/>
	<circle fill="#FFFFFF" cx="327.156" cy="448.712" r="11.274"/>
	<circle fill="#FFFFFF" cx="100.276" cy="389.057" r="14.562"/>
	<circle fill="#FFFFFF" cx="148.188" cy="395.633" r="14.562"/>
</g>
<path id="poil_2_" fill="#3B6B5F" d="M283.191,387.023c3.674,15.359-1.775,32.007-19.169,36.65
	c-22.582,6.023-38.754-4.193-42.353-21.522c-2.551-25.464,6.843-23.585,8.225-55.841c-22.23-149.371,38.514-321.432,40.521-327.965
	c0,0-53.765,233.674-19.56,315.884C263.138,358.892,277.068,361.422,283.191,387.023z"/>
</svg>
