<?xml version="1.0" encoding="utf-8"?>
<!-- Generator: Adobe Illustrator 14.0.0, SVG Export Plug-In . SVG Version: 6.00 Build 43363)  -->
<!DOCTYPE svg PUBLIC "-//W3C//DTD SVG 1.1//EN" "http://www.w3.org/Graphics/SVG/1.1/DTD/svg11.dtd">
<svg version="1.1" id="Mollusca" xmlns="http://www.w3.org/2000/svg" xmlns:xlink="http://www.w3.org/1999/xlink" x="0px" y="0px"
	 width="389.391px" height="389.387px" viewBox="0 0 389.391 389.387" enable-background="new 0 0 389.391 389.387"
	 xml:space="preserve">
<g id="Shape_64_copy_29">
	<g>
		<circle fill-rule="evenodd" clip-rule="evenodd" fill="#B3DCDF" cx="194.695" cy="194.693" r="194.693"/>
	</g>
</g>
<g>
	<path fill="#02A4BD" d="M177.333,204.569c8.338-4.94,15.132-9.572,17.293-18.837l0,0c-27.792,3.396-97.274,12.97-113.023,29.027
		c-19.764,20.382-20.69,29.646-20.69,29.646s26.557-29.337,47.247-29.955C121.439,214.143,154.791,208.584,177.333,204.569z"/>
	<path fill="#02A4BD" d="M146.453,231.744l-2.161,1.236c0,0-21.308,11.116-29.337,25.013c-2.162,4.015,4.323,20.69,8.338,30.263
		c0.309,0.927,1.853,0.618,1.853-0.617c-1.235-8.646-2.162-22.852,0.927-29.646c0.618-1.235,6.176-4.015,12.353-6.794l0,0
		l0.926-2.779C141.512,241.627,143.673,236.377,146.453,231.744z"/>
	<path fill="#02A4BD" d="M172.084,207.657c-16.367,2.779-41.072,8.029-54.968,16.058c-22.234,13.279-24.087,39.837-20.072,45.396
		c1.853,2.471,4.014,4.94,5.867,6.793c0.618,0.618,1.544,0,1.235-0.926c-3.088-7.103-6.485-20.999,6.176-30.881
		c9.881-7.72,24.396-12.043,37.365-14.822C155.099,218.774,164.055,212.599,172.084,207.657z"/>
	<path fill="#02A4BD" d="M311.356,204.878c-20.998-7.411-40.454-11.117-40.762-22.852c-0.31-11.734-4.941-14.514-4.941-14.514
		s7.411,2.779,12.044,12.661c4.631,10.19,13.896,6.484,23.469,11.117c9.572,4.632,20.69,9.264,29.028,0
		c3.088-3.396,6.175-5.559,8.646-7.103c0-2.162-0.31-4.323-0.31-6.794c-0.618-5.867-1.544-11.735-3.396-17.293
		c-1.853,3.088-4.633,6.176-8.955,8.646c-9.574,5.867-9.883,14.822-17.293,11.426c-7.412-3.397-21.308-7.411-21.308-7.411
		c4.323-3.706,19.454-0.927,25.938-4.015c4.633-2.161,12.353-14.514,16.677-21.617c-3.089-6.176-6.795-12.043-11.426-17.602
		c-0.618,4.323-2.163,9.264-5.251,12.661c-8.028,9.573-12.969,16.367-17.91,18.22c-4.941,1.853-3.397-6.485,0-10.809
		c3.397-4.323,10.5-11.426,9.572-18.528c-0.309-3.396,0.31-8.646,1.235-12.969c-3.705-2.779-8.028-5.559-12.352-7.721
		c1.853,8.956,2.779,21.617-2.471,27.175c-6.176,6.177-9.572,12.043-11.116,15.132c-0.31,0.927-0.618,1.853-1.236,2.471
		c0,0,0.309-0.927,1.236-2.471c1.852-5.559,3.087-15.749,6.484-24.087c2.162-5.558-0.618-15.44-3.397-22.852
		c-5.866-2.162-12.352-3.397-19.146-4.323c12.661,13.278,6.484,24.704,4.94,29.645c-1.853,5.559,0,16.676,0,16.676
		c-8.338-12.661-5.249-16.676-4.015-27.792c0.618-5.559-8.337-13.279-17.293-19.146c-11.117,0.309-23.469,1.853-36.748,5.559
		c0,0-3.396-9.265-7.103-10.191c0,0,0,0-0.309,0c-5.25,0-70.099,33.352-77.511,34.895c-7.72,1.853-19.455,8.646-34.277,16.058
		c0,0-4.323,3.088-4.015,5.868c0.309,1.853,2.162,3.705,8.646,4.323c1.235,0,2.779,0.309,4.323,0.309
		c17.911,0,51.262-8.646,88.628-8.646c0,0,0,0,0.309,0c40.454,0,45.704,5.867,45.704,5.867s0,0-0.31,0l0.31,0.309
		c0,0-18.838,10.19-29.337,21.616v-0.309c-2.162,2.471-4.015,4.941-5.25,7.411c0,0,0,0,0.309,0c-0.309,0.31-0.309,0.927-0.617,1.236
		l0,0c-0.927,0.617-0.927,1.234-1.235,1.853c-1.544,7.103-5.25,11.734-9.882,15.439h0.309c-1.235,1.236-2.779,2.162-4.323,3.397
		c-0.309,0-0.309,0-0.618,0c-12.969,8.955-31.498,14.823-40.145,42.615l0,0c-0.309,0.618-0.309,0.927-0.617,1.544
		c1.544,1.854,30.571,33.969,80.907,33.969c17.911,0,38.601-4.014,61.762-15.132c29.954-14.205,46.938-41.38,50.952-69.48
		C331.738,204.261,322.782,208.584,311.356,204.878z"/>
	<circle fill="#02A4BD" cx="200.186" cy="160.719" r="4.632"/>
	<path fill="#02A4BD" d="M131.013,159.792c-6.794,3.088-12.661,5.867-22.852,8.956c-22.542,6.176-38.91,17.91-38.91,17.91
		c19.146-5.249,59.6-14.514,81.833-15.748c10.191-0.618,21.308-1.854,30.572-2.78c-0.927-2.161-1.235-4.632-1.235-7.103
		c0-2.162,0.309-4.323,0.927-6.484C162.82,155.161,145.527,157.631,131.013,159.792z"/>
	<path fill="#02A4BD" d="M194.935,184.806c0.31-1.544,0.927-2.779,1.854-4.323c-6.485-1.235-12.044-5.559-14.823-11.426
		c-17.602,2.779-45.395,7.72-67.319,15.749c-26.249,9.573-43.542,20.999-50.645,25.631c-0.309,0.31,0,0.927,0.309,0.618
		c7.72-3.706,26.866-12.044,43.542-15.75C126.072,191.6,168.069,187.895,194.935,184.806z"/>
</g>
</svg>
