<?xml version="1.0" encoding="utf-8"?>
<!-- Generator: Adobe Illustrator 14.0.0, SVG Export Plug-In . SVG Version: 6.00 Build 43363)  -->
<!DOCTYPE svg PUBLIC "-//W3C//DTD SVG 1.1//EN" "http://www.w3.org/Graphics/SVG/1.1/DTD/svg11.dtd">
<svg version="1.1" id="Lake" xmlns="http://www.w3.org/2000/svg" xmlns:xlink="http://www.w3.org/1999/xlink" x="0px" y="0px"
	 width="730.467px" height="730.462px" viewBox="0 0 730.467 730.462" enable-background="new 0 0 730.467 730.462"
	 xml:space="preserve">
<circle fill-rule="evenodd" clip-rule="evenodd" fill="#B3DCDF" cx="365.234" cy="365.231" r="365.231"/>
<path id="montain_3_" fill-rule="evenodd" clip-rule="evenodd" fill="#FFFFFF" d="M86.107,132.5c21,0,133.496-53.909,133.496-53.909
	l12.247,34.816c0,0,64.747-81.992,64.747-81.99l54.496,89.854c0,0,66.063-43.177,65.997-42.68c0,0,57.498,60.649,108.496,65.142
	c88.344,7.784,89.996,26.955,89.996,26.955l-560.696,13.48L86.107,132.5z"/>
<path id="Hill" fill-rule="evenodd" clip-rule="evenodd" fill="#7DC47A" d="M730.467,365.231
	c0-80.104-25.791-154.183-69.518-214.392c-31.105-37.332-80.008-53.517-141.809-58.738c-85.93-7.26-218.632,81.719-218.632,81.719
	s-62.794-1.635-135.127,3.777c-25.522-12.677-47.419-56.454-76.215-51.5C33.617,190.17,0,273.775,0,365.231
	c0,201.712,163.521,365.23,365.234,365.23C566.946,730.462,730.467,566.943,730.467,365.231z"/>
<g id="lac">
	<path fill-rule="evenodd" clip-rule="evenodd" fill="#02A4BD" d="M116.153,294.097c11.266,60.774,116,36,84,104c-16,28-62,22-66,62
		c-4,48,94.64,31.275,98,68c5.032,54.99-93.968,57.99-31,111c31.206,26.271,267.826,57.406,351.826-0.594
		c61.777-42.655,87.982-107.966,83.982-167.966c-8-56-288.518-69.38-300.776-84.45c-21.968-27.011,18.618-45.687,39-78
		c0.084-26.131-106.065-42.979-109.033-57.99s49.032-32.01,34.032-44.01c-20.728-16.582-122.185-20.429-162.032,31.01
		C138.153,237.097,113.186,278.086,116.153,294.097z"/>
</g>
<g id="tree_1_">
	<path display="none" fill="#3B6B5F" d="M578.854,237.42c-1.102-7.703-10.268-8.802-13.682-10.354
		c5.791,2.633,5.318-19.983-21.594-26.274c-16.871-3.943-23.631,3.121-23.498,3.26c0.139,0.136-26.109-10.954-28.369,13.855
		c-28.59-6.56-38.686,39.811-15.598,51.269c5.195,2.576,12.623,5.248,15.994-0.687l30.301,20.919
		c5.041,10.951-1.678,24.998-1.68,26.422c3.002,3.917,14.691,2.01,21.145,0.614c6.033-1.304-0.172-25.104-0.855-26.726
		c-1.986-4.716,7.652-5.977,0.055-9.421c-4.143-1.876-4.84,0.428-5.037,1.041c-0.371,1.169-4.559-10.997-4.559-10.997
		s2.746,0.991,3.627,1.07c15.096,5.328,25.365,3.195,33.748-6.988c3.602-4.375,4.199-13.247,0.604-17.895
		C572.629,247.461,579.954,245.126,578.854,237.42z M500.151,267.444c-2.064-5.051,8.977-1.896,8.977-1.896l12.707,18.068
		C521.834,283.616,501.842,271.579,500.151,267.444z"/>
	<path fill="#3B6B5F" d="M353.049,167.362c10.584-2.916,14.825,2.308,14.741,2.41c-0.086,0.101,21.934-16.016,23.352,2.329
		c41.553,5.751,14,56.334,4.23,45.824c-3.258,1.905-16.918,2.881-19.033-1.507l-0.008,16.468c-0.51,1.303,1.053,19.536,1.053,19.536
		s-8.217,1.485-12.266,0.454c0.024-1.774-0.891-18.563-0.462-19.762c1.246-3.486-10.802-6.418-6.034-8.965
		c2.599-1.388,5.036,0.315,5.158,0.77c0.233,0.864,0.861-10.132,0.861-10.132s-5.723,4.733-6.275,4.792
		c-9.47,3.939-15.913,2.362-21.172-5.167c-2.26-3.235-2.634-9.795-0.379-13.232C334.824,201.87,318.641,177.352,353.049,167.362z"/>
</g>
<g>
	<g>
		<path fill="#FFFFFF" d="M321.481,597.168c8.052-6.918,17.997-4.419,27.378-2.248c8.457,1.957,16.807,3.321,25.117,0.064
			c2.533-0.993-0.589-4.892-2.928-3.975c-17.795,6.977-36.956-11.204-53.325,2.859C315.76,595.556,319.484,598.884,321.481,597.168
			L321.481,597.168z"/>
	</g>
</g>
<g>
	<g>
		<path fill="#FFFFFF" d="M274.91,567.708c9.25-8.223,24.312-8.665,35.977-9.088c18.405-0.667,36.894,0.922,55.212,2.529
			c18.9,1.659,37.771,3.729,56.714,4.862c13.09,0.784,27.347,1.883,40.139-1.716c1.018-0.286,2.01-0.649,2.984-1.054
			c1.287-0.533-1.033-4.93-2.549-4.301c-11.625,4.821-26.233,3.437-38.472,2.851c-18.729-0.896-37.396-2.961-56.063-4.66
			c-18.602-1.692-37.292-3.291-55.988-3.047c-12.333,0.16-27.103,0.513-37.897,7.321c-0.928,0.586-1.787,1.272-2.606,2.001
			C271.111,564.518,273.91,568.597,274.91,567.708L274.91,567.708z"/>
	</g>
</g>
<g>
	<g>
		<path fill="#FFFFFF" d="M273.809,533.514c19.954-17.834,44.866-13.048,68.708-7.531c22.158,5.128,45.299,10.385,67.192,1.318
			c3.032-1.255-0.621-3.473-2.695-2.613c-44.611,18.473-96.47-29.338-136.878,6.779
			C267.871,533.492,272.262,534.896,273.809,533.514L273.809,533.514z"/>
	</g>
</g>
</svg>
