<?xml version="1.0" encoding="utf-8"?>
<!-- Generator: Adobe Illustrator 14.0.0, SVG Export Plug-In . SVG Version: 6.00 Build 43363)  -->
<!DOCTYPE svg PUBLIC "-//W3C//DTD SVG 1.1//EN" "http://www.w3.org/Graphics/SVG/1.1/DTD/svg11.dtd">
<svg version="1.1" xmlns="http://www.w3.org/2000/svg" xmlns:xlink="http://www.w3.org/1999/xlink" x="0px" y="0px"
	 width="389.391px" height="389.387px" viewBox="0 0 389.391 389.387" enable-background="new 0 0 389.391 389.387"
	 xml:space="preserve">
<g id="wetlands">
	<g id="Shape_64_copy_29">
		<g>
			<circle fill-rule="evenodd" clip-rule="evenodd" fill="#B3DCDF" cx="194.695" cy="194.693" r="194.693"/>
		</g>
	</g>
	<g id="ico_grassland_copy_3_2_">
		<g>
			<path fill-rule="evenodd" clip-rule="evenodd" fill="#3B6B5F" d="M52.823,87.145c19.262,63.127,9.511,100.964,9.511,100.964
				C74.137,177.479,91.401,138.185,52.823,87.145z M34.142,112.774c7.688,15.209,22.837,56.601,25.889,76.042
				C60.031,188.816,70.693,138.09,34.142,112.774z M20.764,130.147c30.312,28.674,24.379,45.972,28.175,60.878l3.16-9.517
				C52.099,181.508,55.855,152.322,20.764,130.147z M92.972,110.589c0.75,17.614-16.995,44.305-19.104,62.506
				C73.869,173.095,94.522,147,92.972,110.589z M98.112,147.209c-19.203,4.085-22.854,35.612-22.854,35.612
				C84.944,170.066,100.972,145.147,98.112,147.209z"/>
		</g>
	</g>
	<g id="ico_grassland_copy_3_5_">
		<g>
			<path fill-rule="evenodd" clip-rule="evenodd" fill="#3B6B5F" d="M306.708,87.145c19.263,63.127,9.512,100.964,9.512,100.964
				C328.023,177.479,345.287,138.185,306.708,87.145z M288.029,112.774c7.688,15.209,22.837,56.601,25.889,76.042
				C313.917,188.816,324.579,138.09,288.029,112.774z M274.65,130.147c30.312,28.674,24.38,45.972,28.175,60.878l3.16-9.517
				C305.985,181.508,309.743,152.322,274.65,130.147z M351.998,147.209c-19.202,4.085-22.854,35.612-22.854,35.612
				C338.831,170.066,354.858,145.147,351.998,147.209z M346.859,110.589c0.749,17.614-16.995,44.305-19.104,62.506
				C327.755,173.095,348.409,147,346.859,110.589z"/>
		</g>
	</g>
	<g id="ico_grassland_copy_3_1_">
		<g>
			<path fill-rule="evenodd" clip-rule="evenodd" fill="#3B6B5F" d="M159.936,101.735c9.148,18.1,27.178,67.36,30.809,90.498
				C190.745,192.232,203.434,131.864,159.936,101.735z M144.013,122.411c36.075,34.125,29.013,54.711,33.532,72.452l3.76-11.327
				C181.305,183.535,185.776,148.801,144.013,122.411z M236.065,142.717c-22.853,4.86-27.199,42.381-27.199,42.381
				C220.395,169.918,239.468,140.263,236.065,142.717z M229.949,99.134c0.892,20.962-20.226,52.728-22.735,74.389
				C207.213,173.523,231.793,142.467,229.949,99.134z M182.167,71.234c22.923,75.128,11.319,120.157,11.319,120.157
				C207.533,178.74,228.079,131.977,182.167,71.234z"/>
		</g>
	</g>
	<path fill-rule="evenodd" clip-rule="evenodd" fill="#02A4BD" d="M61.272,213.827c41.592,0,63.379-35.089,63.379-35.089
		s28.719,35.089,70.311,35.089c41.593,0,62.388-35.94,62.388-35.94s22.21,35.584,54.89,35.584c31.439,0,48.015-31.173,51.473-52.399
		c-4.31,11.428-19.021,17.752-50.904,17.752c-32.68,0-54.89-35.584-54.89-35.584s-20.795,35.941-62.388,35.941
		c-41.592,0-70.311-35.941-70.311-35.941s-21.787,35.941-63.379,35.941c-27.101,0-39.974-5.618-43.444-18.161
		C21.55,181.411,30.397,213.827,61.272,213.827z"/>
	<path fill-rule="evenodd" clip-rule="evenodd" fill="#02A4BD" d="M61.272,273.465c41.592,0,63.379-35.94,63.379-35.94
		s28.719,35.94,70.311,35.94c41.593,0,62.388-35.94,62.388-35.94s22.21,35.584,54.89,35.584c31.439,0,48.015-39.692,51.473-60.919
		c-4.31,11.429-19.021,26.272-50.904,26.272c-32.68,0-54.89-35.584-54.89-35.584s-20.795,35.941-62.388,35.941
		c-41.592,0-70.311-35.941-70.311-35.941s-21.787,35.941-63.379,35.941c-27.101,0-39.974-14.138-43.444-26.681
		C21.55,232.529,30.397,273.465,61.272,273.465z"/>
</g>
<g id="palette">
	
		<rect x="-115.791" y="206.216" display="none" fill-rule="evenodd" clip-rule="evenodd" fill="#3B6B5F" width="60.551" height="60.553"/>
</g>
<g id="model" display="none">
	
		<image display="inline" overflow="visible" width="100" height="130" id="coral_icon_xA0_Image_2_" xlink:href="AA91B5B4.png"  transform="matrix(1 0 0 1 394.73 166.416)">
	</image>
</g>
</svg>
