<?xml version="1.0" encoding="utf-8"?>
<!-- Generator: Adobe Illustrator 14.0.0, SVG Export Plug-In . SVG Version: 6.00 Build 43363)  -->
<!DOCTYPE svg PUBLIC "-//W3C//DTD SVG 1.1//EN" "http://www.w3.org/Graphics/SVG/1.1/DTD/svg11.dtd">
<svg version="1.1" id="Engineered" xmlns="http://www.w3.org/2000/svg" xmlns:xlink="http://www.w3.org/1999/xlink" x="0px" y="0px"
	 width="433.835px" height="433.83px" viewBox="0 0 433.835 433.83" enable-background="new 0 0 433.835 433.83"
	 xml:space="preserve">
<g id="Shape_64_copy_22">
	<g>
		<circle fill-rule="evenodd" clip-rule="evenodd" fill="#B3DCDF" cx="216.917" cy="216.915" r="216.915"/>
	</g>
</g>
<path fill="#02A4BD" d="M266.969,119.714l-4.79,8.297l9.204,5.313l-99.526,171.378c-11.516,19.944-2.214,46.872,20.775,60.146
	c22.989,13.272,50.962,7.864,62.477-12.081l99.526-171.377l9.178,5.299l4.791-8.297L266.969,119.714z M217.313,290.852
	c-4.527-2.613-6.078-8.401-3.464-12.928c2.613-4.525,8.401-6.077,12.927-3.464s6.077,8.401,3.464,12.929
	C227.628,291.914,221.839,293.465,217.313,290.852z M241.181,324.278c-3.049,5.28-9.802,7.089-15.082,4.041
	c-5.281-3.05-7.09-9.802-4.041-15.083c3.049-5.28,9.801-7.091,15.082-4.041C242.42,312.244,244.23,318.996,241.181,324.278z
	 M292.378,256.504c-5.638,9.766-18.125,13.111-27.891,7.473c-9.766-5.638-13.111-18.125-7.474-27.891
	c5.639-9.765,18.125-13.111,27.891-7.473C294.67,234.251,298.017,246.738,292.378,256.504z M330.75,215.088l-77.404-44.689
	l20.505-35.514l77.404,44.688L330.75,215.088z"/>
<g id="bublout_2_">
	<g>
		<circle fill-rule="evenodd" clip-rule="evenodd" fill="#FFFFFF" cx="197.485" cy="154.27" r="21.496"/>
	</g>
</g>
<g id="bublout_1_">
	<g>
		<circle fill-rule="evenodd" clip-rule="evenodd" fill="#FFFFFF" cx="143.256" cy="97.11" r="39.572"/>
	</g>
</g>
<g id="bublout">
	<g>
		<circle fill-rule="evenodd" clip-rule="evenodd" fill="#FFFFFF" cx="130.065" cy="180.653" r="26.381"/>
	</g>
</g>
<g id="bublin_3_">
	<g>
		<circle fill-rule="evenodd" clip-rule="evenodd" fill="#FFFFFF" cx="221.966" cy="282.674" r="9.695"/>
	</g>
</g>
<g id="bublin_2_">
	<g>
		<path fill-rule="evenodd" clip-rule="evenodd" fill="#FFFFFF" d="M231.625,307.715c-6.138,0-11.111,4.977-11.111,11.111
			c0,6.134,4.974,11.109,11.111,11.109c6.133,0,11.109-4.976,11.109-11.109C242.735,312.691,237.758,307.715,231.625,307.715z"/>
	</g>
</g>
<g id="bublin">
	<g>
		<circle fill-rule="evenodd" clip-rule="evenodd" fill="#FFFFFF" cx="274.848" cy="246.078" r="20.553"/>
	</g>
</g>
</svg>
