<?xml version="1.0" encoding="utf-8"?>
<!-- Generator: Adobe Illustrator 14.0.0, SVG Export Plug-In . SVG Version: 6.00 Build 43363)  -->
<!DOCTYPE svg PUBLIC "-//W3C//DTD SVG 1.1//EN" "http://www.w3.org/Graphics/SVG/1.1/DTD/svg11.dtd">
<svg version="1.1" id="mouth" xmlns="http://www.w3.org/2000/svg" xmlns:xlink="http://www.w3.org/1999/xlink" x="0px" y="0px"
	 width="284px" height="284px" viewBox="0 0 284 284" enable-background="new 0 0 284 284" xml:space="preserve">
<circle fill="#B1DBDE" cx="142" cy="142" r="142"/>
<polygon fill-rule="evenodd" clip-rule="evenodd" fill="#00A3BC" points="118.816,127.146 144.719,120.678 173.455,127.171 
	176.602,110.844 155.672,103.532 155.672,41.719 132.637,41.913 134.94,104.505 115.937,111.019 "/>
<g id="Layer_4">
	<path fill-rule="evenodd" clip-rule="evenodd" fill="#00A3BC" d="M118.904,200.414c-5.775,9.007-66.83,19.749-73.331,17.668
		c-12.472-10.393-14.018-18.286-8.135-42.788c0,0,20.727-107.914,55.502-107.914l0,0
		C119.365,74.655,124.679,191.407,118.904,200.414z"/>
</g>
<path fill-rule="evenodd" clip-rule="evenodd" fill="#00A3BC" d="M173.689,200.414c6.12,8.662,64.324,19.399,73.331,17.668
	c9.008-1.73,14.018-18.286,8.134-42.788c0,0-20.726-107.914-55.502-107.914l0,0C173.229,74.655,167.569,191.751,173.689,200.414z"/>
</svg>
