<?xml version="1.0" encoding="utf-8"?>
<!-- Generator: Adobe Illustrator 14.0.0, SVG Export Plug-In . SVG Version: 6.00 Build 43363)  -->
<!DOCTYPE svg PUBLIC "-//W3C//DTD SVG 1.1//EN" "http://www.w3.org/Graphics/SVG/1.1/DTD/svg11.dtd">
<svg version="1.1" id="soil" xmlns="http://www.w3.org/2000/svg" xmlns:xlink="http://www.w3.org/1999/xlink" x="0px" y="0px"
	 width="528.601px" height="525.048px" viewBox="0 0 528.601 525.048" enable-background="new 0 0 528.601 525.048"
	 xml:space="preserve">
<g id="skie_bgd">
	<g>
		<ellipse fill-rule="evenodd" clip-rule="evenodd" fill="#B3DCDF" cx="264.301" cy="262.524" rx="264.301" ry="262.524"/>
	</g>
</g>
<g id="ground">
	<g>
		<path fill-rule="evenodd" clip-rule="evenodd" fill="#3B6B5F" d="M527.427,237.806c-76.577,0.305-41.021,5.321-121.597,13.308
			c-177.392,17.582-209.537-24.308-318.761-10.225c-32.775,4.226-48.178,1.372-86.081-0.992C0.347,247.355,0,254.899,0,262.524
			c0,144.988,118.332,262.524,264.301,262.524c145.968,0,264.299-117.536,264.299-262.524
			C528.601,254.186,528.191,245.944,527.427,237.806z"/>
	</g>
</g>
<g id="herb">
	<g>
		<path fill="#7DC47A" d="M528.517,255.931c-0.027-1.093-0.079-2.18-0.12-3.269c-0.017-0.45-0.036-0.899-0.052-1.349
			c0.069,1.605,0.135,3.211,0.175,4.824C528.518,256.068,528.519,255.999,528.517,255.931z M528.004,245.056
			c-0.022-0.337-0.044-0.675-0.064-1.013c0.14,1.967,0.257,3.94,0.354,5.918c-0.008-0.176-0.012-0.353-0.021-0.528
			C528.2,247.97,528.102,246.513,528.004,245.056z M527.445,238.033c0.182,1.952,0.346,3.909,0.485,5.873
			c-0.018-0.293-0.034-0.586-0.056-0.879C527.75,241.357,527.602,239.694,527.445,238.033z M0.317,249.716
			c-0.015,0.307-0.022,0.617-0.035,0.924c0.071-1.544,0.156-3.085,0.253-4.622c-0.004,0.067-0.009,0.134-0.013,0.202
			C0.45,247.384,0.374,248.548,0.317,249.716z M526.713,231.134c-0.028-0.23-0.052-0.462-0.08-0.693
			c-0.241-1.962-0.507-3.917-0.792-5.867c-0.017-0.114-0.031-0.229-0.048-0.344c-0.297-2.009-0.616-4.011-0.958-6.006
			c-0.01-0.059-0.02-0.117-0.029-0.175c-0.344-2-0.712-3.992-1.101-5.976c-0.009-0.045-0.018-0.091-0.026-0.137
			c-0.021,0-0.038,0.001-0.058,0.001c-0.84-4.59-1.944-9.376-3.403-14.065c-2.291-7.357-7.183-11.301-7.183-11.301
			s-14.702,12.981-15.87,19.935c-1.166,6.955-12.419-83.812-76.315-103.389c49.321,55.179,50.291,91.044,46.418,112.56
			c-0.699,0.145-1.404,0.292-2.123,0.443c-1.007-6.755-4.081-15.501-15.364-35.964c-16.5-29.921-25.259-31.992-36.878-39.857
			c25.557,28.822,18.166,50.974,16.289,65.738c-17.713-13.129-41.389-42.226-22.166-93.424
			c-6.986,12.466-24.686,16.569-27.436,56.371c-1.713,24.785-1.288,36.25,0.097,44.321c-15.859-7.625-61.381-35.316-68.852-101.35
			c-1.955,14.135-14.138,27.916-2.156,65.994c5.119,16.267,8.883,26.319,12.11,33.303l-4.347-0.267
			c-17.716-7.786-74.582-40.665-51.027-134.761c-23.543,24.775-19.78,86.062-19.78,86.062s-6.126-0.348-36.232-35.643
			c13.303,33.382,18.672,64.562,16.103,77.543c-0.081,0.41-16.501,0.208-16.501,0.208c-11.717-10.657-42.841-43.647-25.659-96.067
			c-7.795,10.968-20,17.965-21.207,49.313c-1.125,29.22,0.781,34.076,4.903,41.741c-17.753-12.979-41.946-42.123-22.574-93.724
			c-6.986,12.467-24.686,16.57-27.436,56.372c-1.242,17.967-1.357,28.925-0.801,36.674c0,0-22.327-25.067-22.314-23.295
			c0.052,6.809-1.19,24.747-1.701,24.126c-3.18-3.865-15.3-17.324-18.425-22.69c-6.081-0.007-52.892,38.371-53.571,38.324
			c-8.235-21.116-5.051-11.16-8.188-29.016c-3.469,11.02-5.839,20.259-7.275,27.979c-0.087-0.005-0.167-0.011-0.255-0.017
			c-0.349,1.859-0.675,3.726-0.984,5.598c-0.028,0.167-0.057,0.335-0.084,0.503c-0.285,1.74-0.548,3.487-0.798,5.238
			c-0.048,0.339-0.097,0.679-0.144,1.018c-0.225,1.618-0.433,3.241-0.627,4.868c-0.061,0.51-0.119,1.02-0.176,1.531
			c-0.169,1.49-0.329,2.982-0.473,4.479c-0.066,0.694-0.125,1.39-0.187,2.085c-0.014,0.153-0.024,0.306-0.038,0.459
			c37.9,2.364,53.304,5.218,86.078,0.992c109.224-14.083,141.37,27.806,318.761,10.225c80.575-7.987,45.021-13.003,121.596-13.308
			c-0.033-0.368-0.063-0.737-0.099-1.104C527.144,234.839,526.936,232.984,526.713,231.134z M0.082,256.066
			c-0.003,0.12-0.002,0.24-0.004,0.36c0.028-1.175,0.073-2.345,0.117-3.516c-0.005,0.158-0.013,0.316-0.018,0.475
			C0.146,254.278,0.104,255.169,0.082,256.066z M0.592,245.13c0.107-1.599,0.228-3.193,0.362-4.783
			c-0.09,1.042-0.181,2.084-0.257,3.13C0.658,244.027,0.625,244.579,0.592,245.13z"/>
	</g>
</g>
<g id="d_blob">
	<g>
		<path fill="#B3DCDF" d="M214.517,276.982c-6.079,0-11.007,4.896-11.007,10.934c0,6.037,4.928,10.932,11.007,10.932
			s11.006-4.895,11.006-10.932C225.523,281.877,220.595,276.982,214.517,276.982z M266.312,327.143
			c-3.933,0-7.122,3.167-7.122,7.074s3.189,7.073,7.122,7.073c3.933,0,7.122-3.166,7.122-7.073S270.244,327.143,266.312,327.143z
			 M325.229,453.188c-5.722,0-10.359,4.607-10.359,10.29c0,5.682,4.638,10.289,10.359,10.289c5.721,0,10.359-4.607,10.359-10.289
			C335.588,457.795,330.949,453.188,325.229,453.188z M134.881,412.031c-2.86,0-5.18,2.303-5.18,5.145
			c0,2.841,2.319,5.145,5.18,5.145c2.861,0,5.18-2.304,5.18-5.145C140.061,414.333,137.742,412.031,134.881,412.031z
			 M184.734,441.613c-3.933,0-7.122,3.166-7.122,7.074c0,3.906,3.189,7.074,7.122,7.074c3.934,0,7.122-3.168,7.122-7.074
			C191.856,444.779,188.668,441.613,184.734,441.613z M357.601,384.378c0-5.328-4.348-9.647-9.713-9.647
			c-5.363,0-9.711,4.319-9.711,9.647c0,5.327,4.348,9.646,9.711,9.646C353.253,394.024,357.601,389.706,357.601,384.378z
			 M111.574,394.024c-2.86,0-5.18,2.304-5.18,5.145c0,2.842,2.319,5.145,5.18,5.145c2.861,0,5.18-2.303,5.18-5.145
			C116.753,396.328,114.435,394.024,111.574,394.024z M100.567,358.011c-3.933,0-7.122,3.167-7.122,7.074s3.188,7.074,7.122,7.074
			c3.934,0,7.123-3.167,7.123-7.074S104.5,358.011,100.567,358.011z M65.605,265.407c-10.369,0-18.776,8.35-18.776,18.649
			c0,10.301,8.407,18.649,18.776,18.649c10.37,0,18.776-8.349,18.776-18.649C84.381,273.756,75.975,265.407,65.605,265.407z
			 M91.503,306.565c-0.358,0-0.648,0.287-0.648,0.643s0.29,0.643,0.648,0.643c0.357,0,0.647-0.287,0.647-0.643
			S91.861,306.565,91.503,306.565z M420.401,351.58c-3.217,0-5.827,2.592-5.827,5.789c0,3.195,2.61,5.787,5.827,5.787
			c3.219,0,5.827-2.592,5.827-5.787C426.229,354.171,423.62,351.58,420.401,351.58z M437.883,391.452
			c-3.575,0-6.474,2.88-6.474,6.431c0,3.552,2.898,6.431,6.474,6.431c3.576,0,6.475-2.879,6.475-6.431
			C444.357,394.332,441.459,391.452,437.883,391.452z M459.248,381.162c-3.933,0-7.122,3.168-7.122,7.075
			c0,3.906,3.189,7.073,7.122,7.073c3.934,0,7.123-3.167,7.123-7.073C466.371,384.33,463.182,381.162,459.248,381.162z
			 M285.087,463.478c-2.859,0-5.179,2.303-5.179,5.145c0,2.841,2.319,5.145,5.179,5.145c2.861,0,5.18-2.304,5.18-5.145
			C290.267,465.781,287.948,463.478,285.087,463.478z M364.723,454.474c-4.648,0-8.417,3.743-8.417,8.359
			c0,4.618,3.769,8.361,8.417,8.361s8.416-3.743,8.416-8.361C373.139,458.217,369.371,454.474,364.723,454.474z M349.831,424.892
			c-3.575,0-6.474,2.88-6.474,6.432c0,3.551,2.898,6.431,6.474,6.431c3.576,0,6.475-2.88,6.475-6.431
			C356.306,427.772,353.407,424.892,349.831,424.892z M400.979,331.001c-3.935,0-7.122,3.168-7.122,7.074
			c0,3.907,3.188,7.073,7.122,7.073c3.933,0,7.121-3.166,7.121-7.073C408.101,334.169,404.912,331.001,400.979,331.001z
			 M182.145,303.992c2.503,0,4.532-2.015,4.532-4.501s-2.029-4.502-4.532-4.502s-4.532,2.016-4.532,4.502
			S179.642,303.992,182.145,303.992z M288.325,306.565c-6.079,0-11.008,4.895-11.008,10.933c0,6.037,4.929,10.932,11.008,10.932
			c6.078,0,11.006-4.895,11.006-10.932C299.331,311.459,294.403,306.565,288.325,306.565z"/>
	</g>
</g>
<g id="w_Blob">
	<g>
		<path fill="#FFFFFF" d="M232.229,358.313c5.766,0,10.439-4.643,10.439-10.37c0-5.726-4.673-10.367-10.439-10.367
			c-5.765,0-10.438,4.642-10.438,10.367C221.792,353.67,226.465,358.313,232.229,358.313z M443.425,292.032
			c-5.764,0-10.438,4.643-10.438,10.368c0,5.727,4.674,10.369,10.438,10.369c5.766,0,10.439-4.643,10.439-10.369
			C453.864,296.674,449.19,292.032,443.425,292.032z M65.497,325.155c-5.765,0-10.438,4.642-10.438,10.368
			c0,5.726,4.673,10.368,10.438,10.368c5.765,0,10.438-4.643,10.438-10.368C75.936,329.796,71.262,325.155,65.497,325.155z
			 M250.159,365.229c-7.016,0-12.704,5.648-12.704,12.617c0,6.968,5.688,12.616,12.704,12.616c7.015,0,12.702-5.648,12.702-12.616
			C262.86,370.877,257.174,365.229,250.159,365.229z M215.293,388.872c-10.693,0-19.36,8.608-19.36,19.229
			c0,10.621,8.667,19.23,19.36,19.23c10.691,0,19.359-8.609,19.359-19.23C234.652,397.48,225.984,388.872,215.293,388.872z
			 M132.01,354.561c-3.871-1.031-7.851,1.252-8.888,5.097c-1.038,3.846,1.26,7.798,5.131,8.829c3.872,1.03,7.851-1.252,8.888-5.098
			C138.179,359.543,135.881,355.591,132.01,354.561z M162.104,357.216c1.263-4.68-1.533-9.489-6.245-10.744
			c-4.711-1.254-9.554,1.524-10.816,6.203c-1.262,4.68,1.534,9.489,6.245,10.743S160.842,361.896,162.104,357.216z M170.254,374.38
			c-7.18-1.911-14.56,2.321-16.484,9.453c-1.924,7.132,2.337,14.463,9.517,16.373c7.18,1.911,14.561-2.321,16.484-9.453
			C181.695,383.623,177.434,376.292,170.254,374.38z M475.011,288.583c3.472-1.991,4.661-6.4,2.656-9.847
			c-2.004-3.448-6.441-4.629-9.912-2.64c-3.473,1.991-4.661,6.399-2.657,9.848C467.102,289.391,471.54,290.573,475.011,288.583z
			 M500.288,289.767c-2.438-4.196-7.838-5.633-12.063-3.211c-4.224,2.423-5.671,7.787-3.232,11.982s7.84,5.633,12.063,3.211
			C501.281,299.328,502.728,293.962,500.288,289.767z M472.215,314.717c-6.438,3.692-8.644,11.869-4.927,18.263
			s11.948,8.585,18.387,4.893c6.437-3.691,8.643-11.867,4.926-18.262S478.651,311.026,472.215,314.717z M352.336,303.5
			c-6.522-1.737-13.227,2.108-14.975,8.587c-1.748,6.479,2.123,13.139,8.646,14.874c6.521,1.736,13.227-2.108,14.975-8.587
			C362.729,311.895,358.859,305.237,352.336,303.5z M399.085,279.204c-9.941-2.646-20.159,3.214-22.823,13.089
			c-2.663,9.874,3.236,20.023,13.177,22.669c9.941,2.646,20.16-3.214,22.824-13.088C414.925,291.999,409.026,281.85,399.085,279.204
			z"/>
	</g>
</g>
</svg>
