<?xml version="1.0" encoding="utf-8"?>
<!-- Generator: Adobe Illustrator 14.0.0, SVG Export Plug-In . SVG Version: 6.00 Build 43363)  -->
<!DOCTYPE svg PUBLIC "-//W3C//DTD SVG 1.1//EN" "http://www.w3.org/Graphics/SVG/1.1/DTD/svg11.dtd">
<svg version="1.1" id="arthropoda" xmlns="http://www.w3.org/2000/svg" xmlns:xlink="http://www.w3.org/1999/xlink" x="0px" y="0px"
	 width="389.391px" height="389.387px" viewBox="0 0 389.391 389.387" enable-background="new 0 0 389.391 389.387"
	 xml:space="preserve">
<g id="Shape_64_copy_29">
	<g>
		<circle fill-rule="evenodd" clip-rule="evenodd" fill="#B3DCDF" cx="194.626" cy="194.693" r="194.693"/>
	</g>
</g>
<g>
	<path fill="#02A4BD" d="M306.312,191.708c-0.318,0.639-2.377,1.27-6.18,1.9c-1.9,0.32-3.016,0.795-3.328,1.427
		c0,0.319-0.795,0.639-2.377,0.951l-0.949,0.475c-0.32,0-1.271,0.401-2.854,1.188c-1.59,0.795-2.695,1.353-3.328,1.664
		c-1.9,1.271-4.121,2.377-6.654,3.328c-4.443,1.27-7.295,1.901-8.559,1.901c-5.393,0-8.721,0.319-9.982,0.951
		c-1.59,0.319-5.393,0.639-11.41,0.95c-0.639,0-1.27,0-1.9,0c-1.271,0-2.697,0-4.279,0l-3.803-0.95
		c0.311-0.313,1.5,0.639,3.564,2.852c2.059,2.222,3.246,3.491,3.566,3.804c1.262,1.901,2.533,4.754,3.803,8.557
		c1.264,4.442,1.107,7.926-0.475,10.459c-2.223,3.803-4.123,5.705-5.705,5.705c-1.902,0.639-3.648,1.113-5.23,1.426
		c-0.318,0.319-1.188,0.476-2.613,0.476c-1.428,0-2.303,0-2.615,0c-3.172,0-6.818-0.788-10.934-2.377
		c-1.59-0.632-4.6-2.689-9.033-6.181c-0.951-0.631-2.459-1.819-4.516-3.565c-2.066-1.738-2.936-2.771-2.615-3.09
		c-0.639,0.951,0,3.491,1.902,7.606c1.262,2.54,3.639,5.229,7.131,8.082c2.213,1.901,3.482,3.171,3.803,3.803
		c0.313,0.319,0.713,0.951,1.188,1.901c0.477,0.951,0.869,1.59,1.189,1.901l3.803,4.754c0.631,0.64,1.344,1.664,2.139,3.091
		c0.789,1.426,1.346,2.458,1.664,3.09c0.951,0.95,2.059,2.459,3.328,4.516c1.264,2.065,2.059,3.091,2.377,3.091
		c3.164,5.073,5.385,7.926,6.656,8.557c0.313,0.319,0.787,1.114,1.426,2.377c0,0.639,0.156,0.951,0.475,0.951
		c0.633,1.27,0.951,2.377,0.951,3.327c-0.318,0.951,0.074,2.303,1.189,4.041c1.105,1.746,1.818,2.778,2.139,3.09
		c0.313,1.271,0.951,2.935,1.902,4.992c0.949,2.064,1.582,3.565,1.9,4.516c1.582,4.115,2.854,7.131,3.803,9.033l6.182,7.605
		c3.482,4.115,5.229,6.812,5.229,8.082c-0.639,0.632-1.188,0.713-1.664,0.238c-0.475-0.476-1.031-1.188-1.664-2.14h-0.475
		c-2.852-4.123-4.598-6.5-5.23-7.131c-0.318-0.319-0.875-0.951-1.662-1.901c-0.795-0.951-1.354-1.59-1.664-1.902
		c0-0.319-0.32-0.794-0.951-1.426c-0.639-0.639-1.033-1.188-1.189-1.664c-0.162-0.476-0.557-1.032-1.188-1.664
		c-0.639-0.639-1.115-1.27-1.426-1.901c-0.951-1.59-1.902-3.327-2.854-5.229c-1.27-2.213-2.064-3.803-2.377-4.754
		c-1.27-2.532-2.064-4.114-2.377-4.754c-1.59-2.532-2.541-3.803-2.852-3.803c-1.271-0.632-2.377-1.582-3.328-2.853
		c-0.951-1.263-2.064-3.09-3.328-5.467c-1.27-2.377-2.064-3.722-2.377-4.041c-1.27-2.214-2.852-4.435-4.754-6.655
		c-0.318-0.313-0.639-0.869-0.951-1.664c-0.318-0.787-0.639-1.345-0.951-1.664c-0.318-0.312-0.713-0.55-1.188-0.713
		c-0.475-0.156-0.713-0.394-0.713-0.713c-1.902-1.901-3.492-3.959-4.754-6.181c-0.639-1.582-3.492-4.278-8.557-8.081
		c-1.902-1.263-4.443-4.278-7.607-9.032c-3.172-4.754-4.918-7.919-5.229-9.508c-0.32-1.583-0.639-3.165-0.951-4.755
		c-0.32-0.312-0.477-0.95-0.477-1.901c0-0.95-0.162-1.426-0.475-1.426c-0.951-0.313-1.426-0.55-1.426-0.713c0-0.156,0-0.394,0-0.714
		c0-0.312-0.082-0.549-0.238-0.713c-0.164-0.155-0.639-0.237-1.426-0.237c-0.795,0-1.189,0.163-1.189,0.476
		c-0.639,0.319-0.639,1.114,0,2.377l0.477,0.95c0,0.319,0,0.877,0,1.664c0,0.795,0,1.352,0,1.664c0,0.95,0,4.754,0,11.409
		c0,0.319,0.074,0.951,0.236,1.901c0.156,0.951,0.238,1.746,0.238,2.377c0,0.639-0.162,1.114-0.475,1.427c0,0.319,0,0.95,0,1.901
		c0,0.319-0.082,0.639-0.238,0.951c-0.164,0.319-0.238,0.557-0.238,0.713c0,0.163,0.156,1.827,0.477,4.991
		c0,0.951-0.164,2.377-0.477,4.278c-0.318,1.902-0.475,3.172-0.475,3.804c0,2.221-0.164,5.229-0.475,9.032
		c0,0.639-0.164,1.901-0.477,3.803c-0.318,0.64-0.713,1.509-1.188,2.615c-0.476,1.114-0.877,1.983-1.189,2.614
		c0,1.59-0.713,4.123-2.14,7.606c-1.426,3.491-1.983,6.344-1.664,8.558c0,1.27-0.163,2.934-0.475,4.991
		c-0.319,2.058-0.795,2.927-1.427,2.614c-0.95,0-1.271-3.016-0.95-9.032c0.631-5.704,1.263-10.295,1.901-13.786
		c0.631-2.214,0.95-3.483,0.95-3.804c-0.639-0.95-0.95-1.901-0.95-2.852c0-0.632,0-1.107,0-1.427
		c-0.319-0.631-0.164-2.058,0.476-4.278c0.631-2.214,0.95-3.483,0.95-3.803c0-0.951,0-3.64,0-8.082
		c-0.319-2.214-0.319-3.803,0-4.754c0.313-0.632,0.238-1.426-0.237-2.377s-0.713-1.582-0.713-1.901c0-0.951-0.401-2.377-1.188-4.278
		c-0.795-1.902-1.188-3.328-1.188-4.279c0-0.95,0-1.901,0-2.852c0-1.902,0.155-3.804,0.475-5.705
		c0.632-4.435,1.107-7.287,1.427-8.558c0.312-0.312,0.156-1.263-0.476-2.852c-0.319-0.313-0.476-0.788-0.476-1.427
		c0-1.582-0.639-2.058-1.901-1.426c-2.221,1.271-3.803,1.59-4.754,0.95c-1.902,0.951-3.172,1.746-3.803,2.377
		c-2.853,2.541-5.549,4.279-8.082,5.229c-4.754,2.222-10.778,3.647-18.065,4.278c-1.27,0.32-3.565,0.877-6.893,1.664
		c-3.328,0.795-5.787,1.188-7.369,1.188c-2.541,0-4.123,0.164-4.754,0.476c-2.852,0.951-5.548,1.746-8.082,2.377
		c-5.393,1.59-10.934,2.696-16.639,3.328c-0.32,0-0.877,0.163-1.664,0.476c-0.795,0.319-1.352,0.475-1.664,0.475
		c-0.319,0-0.876,0-1.664,0c-0.795,0-1.352,0.164-1.664,0.476c-2.221,1.271-4.754,2.221-7.606,2.853
		c-2.221,0-3.328-0.476-3.328-1.426c0.951-0.632,2.213-1.107,3.803-1.427c1.263,0,2.533-0.476,3.803-1.426
		c0.312-0.313,1.025-0.55,2.139-0.713c1.107-0.156,1.82-0.55,2.139-1.188c0.312,0,3.803-1.107,10.459-3.328
		c0.312-0.313,0.787-0.476,1.426-0.476c0.631,0,1.106-0.074,1.426-0.237c0.312-0.156,0.951-0.713,1.902-1.664
		c0.631-0.313,1.5-0.632,2.615-0.951c1.106-0.312,1.976-0.476,2.615-0.476c2.852-1.263,6.492-2.532,10.934-3.803
		c0.312,0,0.787-0.156,1.426-0.476c0.631-0.312,1.106-0.476,1.426-0.476l3.328-0.475c0.312,0,1.263,0,2.852,0
		c1.583,0,2.533,0,2.853,0c0.631-0.313,1.582-0.869,2.853-1.664c1.263-0.787,2.377-1.345,3.328-1.664c0.631,0,1.5-0.156,2.615-0.476
		c1.107-0.312,1.976-0.476,2.615-0.476c2.852-0.631,5.541-1.582,8.082-2.852c4.754-2.533,7.287-3.804,7.606-3.804
		c1.902-1.263,3.165-1.901,3.803-1.901c0.631,0,1.107-0.476,1.426-1.426c0.312-0.951,0.787-1.583,1.426-1.902
		c-3.803,0.319-6.024,0.319-6.656,0c-0.319,0-0.639-0.237-0.951-0.713c-0.319-0.476-0.795-0.713-1.426-0.713
		c-0.639,0-1.114,0-1.426,0c-1.589,0-3.172,0-4.754,0c-4.442-0.632-10.459-3.803-18.065-9.508c-3.491-2.853-5.705-4.754-6.656-5.705
		c-0.951-0.951-2.541-2.14-4.754-3.565c-2.221-1.426-3.647-2.452-4.279-3.09c-0.639-0.312-1.426-1.106-2.377-2.377
		c-0.951-1.263-1.901-2.058-2.852-2.377c-1.59-0.951-4.123-2.689-7.606-5.229c-2.221-1.902-7.131-6.18-14.737-12.836
		c-0.639-0.312-1.426-1.025-2.377-2.139c-0.951-1.107-1.746-1.976-2.377-2.615c-0.639-0.631-1.664-1.426-3.09-2.377
		s-2.615-1.82-3.565-2.615c-0.951-0.787-1.746-1.664-2.377-2.614l2.853,0.475l0.951,0.476c0.631,0.319,1.901,1.188,3.803,2.615
		c1.901,1.426,3.328,2.458,4.278,3.09c2.853,1.589,6.336,3.966,10.459,7.131c0.312,0.319,1.107,0.713,2.377,1.188
		c1.263,0.476,2.213,0.876,2.853,1.188c0.951,0.639,3.64,2.458,8.082,5.467c4.435,3.016,7.131,4.836,8.082,5.467
		c1.263,0.639,3.328,2.696,6.18,6.18c0.312,0.319,1.583,0.795,3.803,1.426c2.214,0.639,4.435,1.901,6.656,3.803
		c2.533,2.541,4.91,4.598,7.131,6.18c0.631,0.319,1.738,0.795,3.328,1.426c2.214,0.639,3.484,0.951,3.803,0.951
		c-0.319,0-0.713-0.156-1.188-0.475c-0.475-0.313-0.951-0.714-1.426-1.189c-0.476-0.476-0.877-0.788-1.189-0.951
		c-0.319-0.156-1.032-0.475-2.139-0.951c-1.114-0.475-1.827-0.869-2.139-1.188c-0.639-0.951-1.27-1.901-1.902-2.852
		c-0.639-1.583-0.639-2.533,0-2.853c0.951-0.631,1.664-0.951,2.14-0.951c0.475,0,1.106,0.401,1.901,1.188
		c0.788,0.795,1.345,1.352,1.664,1.664c1.263,0.32,2.451,1.271,3.565,2.853c1.107,1.59,2.295,2.541,3.565,2.853
		c1.263,0.639,2.377,1.114,3.328,1.426c0.631-0.312,0.788-0.788,0.476-1.426c-0.319-0.631-0.639-1.263-0.951-1.902
		c-2.221-2.533-2.853-4.59-1.902-6.18c1.583-2.213,3.008-3.328,4.279-3.328c0.951-0.312,1.582-1.106,1.901-2.377
		c0-0.312,0.312-1.107,0.951-2.377c0.631-0.312,1.263-0.631,1.901-0.951c0.631-0.312,1.426-0.631,2.377-0.951
		c2.213,0.319,4.59,0.794,7.131,1.426c0-4.115-1.901-6.968-5.705-8.557c-0.639,0-2.065-1.263-4.279-3.803
		c-2.54-2.214-3.647-3.803-3.328-4.754c0.312-1.263,0.788-1.976,1.426-2.139c0.631-0.156,1.263,0,1.901,0.475
		c0.631,0.476,1.263,0.951,1.902,1.426c0.631,0.476,1.263,1.114,1.901,1.901c0.631,0.795,1.107,1.188,1.426,1.188
		c1.582,1.59,3.008,3.172,4.278,4.754c2.853,3.491,4.279,5.393,4.279,5.705c0-0.312-0.238-1.107-0.714-2.377
		c-0.475-1.263-0.713-2.058-0.713-2.377c-0.319-2.214-0.639-3.64-0.95-4.279c-0.64-1.263-1.902-3.64-3.804-7.131
		c-0.319-0.631-1.589-1.738-3.803-3.328c-0.319-0.312-1.114-1.263-2.377-2.853c-0.319-0.312-0.557-0.713-0.713-1.188
		c-0.164-0.475-0.238-1.025-0.238-1.664c0-0.631,0-1.107,0-1.426c-0.319-0.312-1.746-1.902-4.279-4.754
		c-0.639-0.631-3.966-5.705-9.983-15.213c-0.32,0-0.951-0.713-1.902-2.139s-1.589-2.451-1.901-3.09
		c-1.271-2.533-2.065-4.115-2.377-4.754c0-1.263-0.639-2.689-1.902-4.279c-0.639-0.631-3.016-4.754-7.131-12.36
		c-0.639-1.583-2.065-4.115-4.279-7.606c-0.951-0.951-1.589-1.901-1.901-2.853c-0.319-0.951-0.164-1.738,0.476-2.377
		c0.312,0,1.263,0.951,2.852,2.853c0.312,0.319,1.107,1.426,2.377,3.328c2.214,3.803,4.279,6.819,6.18,9.033
		c0.631,0.639,1.426,1.746,2.377,3.328c0.951,1.589,1.583,2.696,1.902,3.328c0.631,0.951,1.664,2.303,3.09,4.041
		c1.426,1.746,2.615,3.09,3.565,4.041c0.631,0.639,1.976,2.541,4.041,5.705c2.058,3.171,3.246,4.754,3.565,4.754
		c1.263,1.901,1.902,3.171,1.902,3.803l2.377,2.377c1.263,1.27,2.377,2.696,3.328,4.278c0.631,0.319,1.345,1.27,2.139,2.853
		c0.788,1.589,1.5,2.696,2.14,3.328c6.336,6.655,10.615,12.204,12.836,16.639c0.313,1.27,0.631,2.853,0.951,4.754
		c0.311,2.221,0.475,3.647,0.475,4.278c0,0.639,0.238,1.114,0.713,1.426c0.475,0.319,0.713,0.639,0.713,0.951l1.426,2.377
		c-0.318-0.632-0.4-1.107-0.236-1.426c0.156-0.312,0.074-0.951-0.238-1.902c0-0.631,0-1.582,0-2.852c0-1.263,0-2.214,0-2.853
		c0-3.484-0.164-6.017-0.475-7.606c-0.32-1.582-0.639-3.164-0.951-4.754c-0.639-1.582-1.115-2.689-1.426-3.328
		c-0.32-0.631-0.32-0.951,0-0.951c0.949-1.582,0.631-3.64-0.951-6.18c-1.59-1.582-3.492-4.197-5.706-7.844
		c-2.221-3.64-3.803-6.254-4.754-7.844c-0.319,0-0.876-0.476-1.664-1.426c-0.795-0.951-1.352-1.738-1.664-2.377
		c-0.951-2.213-1.746-3.64-2.377-4.278c-2.852-2.533-4.917-4.91-6.18-7.131c-0.319-0.631-1.746-2.689-4.278-6.18
		c-1.59-1.582-2.377-2.853-2.377-3.803c0.312-0.631,0.787-0.713,1.426-0.238c0.631,0.476,1.263,1.033,1.901,1.664
		c0.312,0.319,1.188,1.426,2.615,3.328c1.426,1.902,2.615,3.253,3.565,4.041c0.951,0.794,2.295,1.901,4.041,3.328
		c1.738,1.426,3.09,2.458,4.041,3.09c1.263,1.271,2.377,2.541,3.327,3.803c0.951,1.271,2.058,2.778,3.328,4.516
		c1.263,1.746,2.377,2.934,3.328,3.565c1.583,2.221,2.532,3.491,2.852,3.803c1.582,1.59,2.377,2.541,2.377,2.853
		c0,0.319,0.238,0.876,0.713,1.664c0.477,0.794,0.869,1.188,1.189,1.188c0,0.639,0.311,1.664,0.949,3.09
		c0.633,1.426,1.107,2.458,1.428,3.09c3.482,8.876,5.385,15.213,5.703,19.016c0,1.901-0.162,3.647-0.475,5.229
		c-0.318,0.319-0.557,0.795-0.713,1.426c-0.164,0.639-0.238,1.188-0.238,1.664c0,0.475,0,0.876,0,1.188
		c-0.318,1.901-0.162,3.016,0.477,3.328c0.949,0.639,1.262,1.901,0.949,3.803c-0.318,0.319-0.475,1.032-0.475,2.139
		c0,1.114,0.475,1.352,1.426,0.713c1.264-0.951,2.377-1.426,3.328-1.426c0.313,0,0.951-0.788,1.902-2.377
		c0-0.312,0.393-0.713,1.188-1.188c0.787-0.476,1.346-0.869,1.664-1.188c3.484-4.115,8.713-6.656,15.688-7.606
		c3.805-0.631,6.018-1.426,6.656-2.377c3.484-3.484,5.861-5.861,7.131-7.131c0.631-0.631,1.582-1.902,2.854-3.803
		c1.262-1.901,2.451-3.484,3.564-4.754c1.107-1.263,2.451-2.058,4.041-2.377c0.631-1.902,1.189-3.402,1.664-4.516
		c0.475-1.107,0.869-1.82,1.188-2.14c0.951-1.582,1.902-3.008,2.854-4.278c0.313-0.312,0.631-0.55,0.951-0.713
		c0.311-0.156,0.549-0.476,0.713-0.951c0.156-0.475,1.344-1.82,3.564-4.041c1.902-2.533,3.484-4.353,4.754-5.467
		c1.264-1.106,2.059-1.344,2.377-0.713c1.264,0.639,0.156,2.377-3.326,5.229c-1.59,1.589-2.541,2.54-2.854,2.852
		c-0.639,1.59-1.113,2.377-1.426,2.377c-0.32,0.319-0.639,0.639-0.951,0.951c-0.318,0.32-0.557,0.795-0.713,1.426
		c-0.164,0.639-0.238,1.114-0.238,1.426c-2.539,4.442-4.441,8.557-5.705,12.36c-0.318,0.951-0.875,1.983-1.662,3.09
		c-0.795,1.114-1.746,2.377-2.854,3.803c-1.113,1.426-1.982,2.458-2.615,3.09c-1.27,1.59-3.016,3.647-5.229,6.18
		c-0.639,0.639-1.352,1.352-2.139,2.139c-0.795,0.795-1.664,1.59-2.615,2.377c-0.951,0.795-1.746,1.352-2.377,1.664
		c-0.951,0.951-2.615,1.983-4.992,3.09c-2.377,1.114-4.041,1.983-4.992,2.614c-1.27,0.951-3.803,2.221-7.605,3.803
		c-1.902,0.951-3.492,1.902-4.754,2.853c-0.639,0.319-0.795,0.951-0.475,1.901c0.311,0.319,0.154,0.951-0.477,1.902l-0.475,0.475
		c0.311,0.319,1.025,0.238,2.139-0.238c1.107-0.475,1.82-0.713,2.139-0.713l1.428,0.951c1.582-1.901,2.852-2.377,3.803-1.426
		c0.313,0.32,1.025,0.32,2.139,0c1.107-0.312,1.82-0.475,2.139-0.475c2.533,0.319,6.018,1.589,10.459,3.803
		c1.902,0.639,3.164,1.901,3.805,3.803c0.631,2.221,1.105,3.172,1.426,2.853l1.426,2.377c0.631,0,1.902,0,3.803,0
		c0.631,0,3.328,0.163,8.082,0.475c0.631,0,1.5-0.074,2.615-0.237c1.105-0.156,1.975-0.237,2.613-0.237
		c4.436,0,6.969-0.313,7.607-0.951c0.631-0.632,1.582-0.312,2.852,0.951c0.633-0.313,1.502-0.714,2.615-1.188
		c1.107-0.476,1.977-0.869,2.615-1.188c2.852-0.313,4.754-0.156,5.705,0.475c0.311,0.319,0.869,0.319,1.664,0
		c0.787-0.312,1.344-0.475,1.662-0.475c0.951,0,1.738,0,2.377,0c1.902-0.951,3.166-1.583,3.805-1.901
		c0.311-0.313,0.787-0.788,1.426-1.427c0.313-0.312,0.631-0.394,0.951-0.237c0.311,0.163,0.631,0.081,0.951-0.238l0.949-0.475
		l3.328-1.427c1.264-0.312,2.533-0.788,3.803-1.426c1.264-0.312,2.533-0.156,3.805,0.476c-0.32-0.951,1.426-1.263,5.229-0.951
		c5.385,0.32,9.033,0.476,10.934,0.476c1.582,0.951,2.689,1.746,3.328,2.376c-0.639,0.32-2.139,0.32-4.516,0
		c-2.377-0.312-3.885-0.312-4.516,0c-0.641,0-1.664-0.074-3.092-0.237c-1.426-0.155-2.852-0.237-4.277-0.237
		S306.312,191.076,306.312,191.708z M218.839,197.412c0.951,0.319,2.141,0.557,3.566,0.713c1.426,0.164,2.295,0.319,2.613,0.476
		c0.313,0.163,0.951,0.476,1.902,0.951c0.951,0.475,1.902,0.876,2.852,1.188c0.951,0.319,1.584,0.319,1.902,0
		c0.313-0.313-0.238-0.869-1.664-1.664c-1.426-0.787-2.852-1.427-4.277-1.901c-1.428-0.476-2.303-0.714-2.615-0.714
		c-2.221-0.312-3.648-0.312-4.279,0C216.619,196.78,216.619,197.101,218.839,197.412z"/>
</g>
</svg>
