<?xml version="1.0" encoding="utf-8"?>
<!-- Generator: Adobe Illustrator 14.0.0, SVG Export Plug-In . SVG Version: 6.00 Build 43363)  -->
<!DOCTYPE svg PUBLIC "-//W3C//DTD SVG 1.1//EN" "http://www.w3.org/Graphics/SVG/1.1/DTD/svg11.dtd">
<svg version="1.1" id="brain_1_" xmlns="http://www.w3.org/2000/svg" xmlns:xlink="http://www.w3.org/1999/xlink" x="0px" y="0px"
	 width="290.99px" height="290.987px" viewBox="0 0 290.99 290.987" enable-background="new 0 0 290.99 290.987"
	 xml:space="preserve">
<circle id="bgd" fill-rule="evenodd" clip-rule="evenodd" fill="#B1DCDF" cx="145.495" cy="145.493" r="145.493"/>
<path id="face" fill="#00A4BD" d="M93.657,42.711c-3.75,3.729-15.733,15-19,26.667c-4.667,16.667-7.917,27.083-0.667,42.333
	c3.441,7.238-20,37.667-17.333,43.667s18.491,6.356,18.491,6.356s2.342,7.227-0.37,14.981c-0.686,1.962-1.538,3.995,8.036,4.496
	c2.322,0.121-6.243,0.792-6.675,3.274c-0.342,1.96,4.479,5.98,4.427,7.976c-0.176,6.803-3.87,14.315-2.458,17.142
	c4.882,9.774,42.803,4,42.803,4s-3.839,8.538-1.42,13.107c4.5,8.5,14.42,24.319,14.42,24.319l79.062-22.129
	c0,0-11.449-26.399-11.903-36.707c-0.684-15.507,1.69-35.438,6.903-35.917C313.99,104.045,191.99-37.955,93.657,42.711z"/>
<polygon fill-rule="evenodd" clip-rule="evenodd" fill="#FFFFFF" points="180.319,100.243 187.726,170.386 197.603,238.063 
	185.215,243.01 176.59,188.376 165.74,103.522 "/>
<g id="brain">
	<path fill-rule="evenodd" clip-rule="evenodd" fill="#FAB715" d="M160.625,64.65c0,5.157-4.677,9.338-10.443,9.338l0,0
		c-5.768,0-10.443-4.181-9.206-9.338l-0.618-7.942c-1.238-5.155,4.056-9.956,9.824-9.956l0,0c5.767,0,10.443,4.181,10.443,9.337
		V64.65z"/>
	<path fill-rule="evenodd" clip-rule="evenodd" fill="#FAB715" d="M180.112,65.493c0,5.157-4.675,9.338-10.442,9.338l0,0
		c-5.769,0-10.443-4.181-9.206-9.338l-0.62-7.942c-1.236-5.156,4.058-9.957,9.826-9.957l0,0c5.768,0,10.442,4.181,10.442,9.338
		V65.493z"/>
	<g>
		<path fill-rule="evenodd" clip-rule="evenodd" fill="#FFFFFF" d="M223.308,76.867c0,5.563-4.508,10.073-10.072,10.073H104.753
			c-5.563,0-10.074-4.51-10.074-10.073l0,0c0-5.563,4.511-10.073,10.074-10.073h108.482C218.8,66.793,223.308,71.304,223.308,76.867
			L223.308,76.867z"/>
		<path fill-rule="evenodd" clip-rule="evenodd" fill="#FFFFFF" d="M214.785,60.594c0,3.424-2.775,6.2-6.198,6.2h-99.186
			c-3.423,0-6.199-2.775-6.199-6.2l0,0c0-3.423,2.776-6.199,6.199-6.199h99.186C212.01,54.395,214.785,57.17,214.785,60.594
			L214.785,60.594z"/>
		<path fill-rule="evenodd" clip-rule="evenodd" fill="#FFFFFF" d="M131.873,63.693c0,4.708-3.816,8.525-8.522,8.525l0,0
			c-4.709,0-8.524-3.817-8.524-8.525V51.296c0-4.708,3.815-8.523,8.524-8.523l0,0c4.706,0,8.522,3.815,8.522,8.523V63.693z"/>
		<path fill-rule="evenodd" clip-rule="evenodd" fill="#FFFFFF" d="M152.795,55.17c0,5.777-4.685,10.46-10.462,10.46l0,0
			c-5.776,0-10.46-4.683-10.46-10.46V43.547c0-5.778,4.684-10.461,10.46-10.461l0,0c5.777,0,10.462,4.684,10.462,10.461V55.17z"/>
		<path fill-rule="evenodd" clip-rule="evenodd" fill="#FFFFFF" d="M172.166,54.395c0,5.564-4.51,10.073-10.072,10.073l0,0
			c-5.563,0-10.073-4.509-10.073-10.073V39.672c0-5.563,4.51-10.073,10.073-10.073l0,0c5.563,0,10.072,4.51,10.072,10.073V54.395z"
			/>
		<path fill-rule="evenodd" clip-rule="evenodd" fill="#FFFFFF" d="M194.047,54.213c0,6.092-4.938,11.031-11.032,11.031l0,0
			c-6.092,0-11.031-4.939-11.031-11.031V42.179c0-6.092,4.939-11.031,11.031-11.031l0,0c6.094,0,11.032,4.939,11.032,11.031V54.213z
			"/>
		<path fill-rule="evenodd" clip-rule="evenodd" fill="#FFFFFF" d="M207.813,68.73c0,5.778-4.685,10.461-10.463,10.461l0,0
			c-5.776,0-10.461-4.684-10.461-10.461V56.332c0-5.777,4.685-10.46,10.461-10.46l0,0c5.778,0,10.463,4.683,10.463,10.46V68.73z"/>
		<path fill-rule="evenodd" clip-rule="evenodd" fill="#FFFFFF" d="M233.383,92.751c0,6.206-4.118,11.236-9.196,11.236H115.499
			c-5.078,0-9.196-5.03-9.196-11.236l0,0c0-6.205,4.118-11.235,9.196-11.235h108.688C229.265,81.516,233.383,86.546,233.383,92.751
			L233.383,92.751z"/>
		<path fill-rule="evenodd" clip-rule="evenodd" fill="#FFFFFF" d="M209.7,107.616c0,4.559-5.703,8.255-12.736,8.255h-57.088
			c-7.031,0-12.734-3.696-12.734-8.255l0,0c0-4.559,5.703-8.254,12.734-8.254h57.088C203.997,99.362,209.7,103.057,209.7,107.616
			L209.7,107.616z"/>
	</g>
</g>
</svg>
