<?xml version="1.0" encoding="utf-8"?>
<!-- Generator: Adobe Illustrator 14.0.0, SVG Export Plug-In . SVG Version: 6.00 Build 43363)  -->
<!DOCTYPE svg PUBLIC "-//W3C//DTD SVG 1.1//EN" "http://www.w3.org/Graphics/SVG/1.1/DTD/svg11.dtd">
<svg version="1.1" id="volcan_1_" xmlns="http://www.w3.org/2000/svg" xmlns:xlink="http://www.w3.org/1999/xlink" x="0px" y="0px"
	 width="428.876px" height="428.876px" viewBox="0 0 428.876 428.876" enable-background="new 0 0 428.876 428.876"
	 xml:space="preserve">
<circle id="bgd_1_" fill="#B3DCDF" cx="214.438" cy="214.438" r="214.438"/>
<path id="dome" fill-rule="evenodd" clip-rule="evenodd" fill="#3B6B5F" d="M214.438,428.876
	c84.716,0,157.948-49.13,192.784-120.446c-100.773-52.565-108.771-167.604-146.6-149.808c-70.359,33.098-82.883-11.767-92.879,3.975
	c-36.225,57.051-65.813,106.378-149.848,137.695C51.005,375.982,126.539,428.876,214.438,428.876z"/>
<g id="Lava">
	<path fill-rule="evenodd" clip-rule="evenodd" fill="#3B6B5F" d="M173.262,153.787c15.327-6.073,15.335,14.029,26.443,7.599
		c10.421-6.032,13.594-11.703,22.24-12.103c6.983-0.323,10.429,6.506,17.209,9.47c11.129,4.864,10.552-7.866,26.661-8.598
		c16.107-0.732,56.929,71.584,52.395,74.627c-4.535,3.042-19.938-38.352-37.944-39.364c-36.062-2.028,53.333,70.86,9.536,72.112
		c-25.627,0.732-29.085-57.378-48.122-60.307c-35.145-2.196-1.771,43.592-37.648,43.592s-25.227-39.802-25.227-39.802
		s-10.094,39.808-56.021,26.649C129.929,215.454,172.116,154.267,173.262,153.787z"/>
	<path fill-rule="evenodd" clip-rule="evenodd" fill="#3B6B5F" d="M153.25,99.797c-10.126-2.713-16.992-9.914-15.339-16.083
		c1.653-6.169,13.396-13.116,21.326-6.258c20.249,17.511,27.231,60.639,27.231,60.639S163.374,102.51,153.25,99.797z"/>
	<path fill-rule="evenodd" clip-rule="evenodd" fill="#3B6B5F" d="M290.48,99.797c16.606-2.713,27.867-9.914,25.155-16.083
		c-2.711-6.169-21.97-13.116-34.973-6.258c-33.208,17.511-44.659,60.639-44.659,60.639S273.877,102.51,290.48,99.797z"/>
	<path fill-rule="evenodd" clip-rule="evenodd" fill="#3B6B5F" d="M201.995,72.025c-7.389-9.691-10.146-21.751-6.161-26.939
		s16.797-4.283,20.595,8.151c9.695,31.752-2.551,80.677-2.551,80.677S209.381,81.713,201.995,72.025z"/>
</g>
</svg>
