<?xml version="1.0" encoding="utf-8"?>
<!-- Generator: Adobe Illustrator 14.0.0, SVG Export Plug-In . SVG Version: 6.00 Build 43363)  -->
<!DOCTYPE svg PUBLIC "-//W3C//DTD SVG 1.1//EN" "http://www.w3.org/Graphics/SVG/1.1/DTD/svg11.dtd">
<svg version="1.1" id="Montain_1_" xmlns="http://www.w3.org/2000/svg" xmlns:xlink="http://www.w3.org/1999/xlink" x="0px" y="0px"
	 width="655.189px" height="655.183px" viewBox="0 0 655.189 655.183" enable-background="new 0 0 655.189 655.183"
	 xml:space="preserve">
<g id="mask">
	<defs>
		<circle id="SVGID_1_" cx="325.283" cy="326.976" r="326.724"/>
	</defs>
	<clipPath id="SVGID_2_">
		<use xlink:href="#SVGID_1_"  overflow="visible"/>
	</clipPath>
	
		<circle clip-path="url(#SVGID_2_)" fill-rule="evenodd" clip-rule="evenodd" fill="#02A4BD" cx="327.595" cy="327.591" r="327.591"/>
	<path id="ground_10_" clip-path="url(#SVGID_2_)" fill-rule="evenodd" clip-rule="evenodd" fill="#FFFFFF" d="M-4.442,391.136
		c0,182.659,148.075,330.731,330.733,330.731c182.66,0,330.735-148.072,330.735-330.731c0-11.422-0.58-22.708-1.712-33.833H-2.733
		C-3.864,368.428-4.442,379.714-4.442,391.136z"/>
	<path id="montain_L2_6_" clip-path="url(#SVGID_2_)" fill-rule="evenodd" clip-rule="evenodd" fill="#FFFFFF" d="M-63.06,313.962
		c8.833,0,110.251-16.198,144.888-29.883c13.345-5.273,24.33,7.623,36.221,0.906c15.955-9.012,12.678-9.961,50.998-33.637
		c0,0,61.993,25.468,79.959,22.159c20.267-1.201,44.998-24.422,44.998-24.422s31.013,55.403,84.666,55.236
		c28.444-0.09,76.239-35.636,76.239-35.636l47.994,38.938l36.223-14.488l78.782,75.159L15.899,391.112L-63.06,313.962z"/>
	<path id="Montain" clip-path="url(#SVGID_2_)" fill-rule="evenodd" clip-rule="evenodd" fill="#FFFFFF" d="M49.126,361.16
		l71.072-71.565L236.368,171.17c0,0,12.877,58.917,15.705,67.93c6.199-19.542,15.277-60.068,28.59-90.021
		c2.697-6.067,14.462-12.008,17.3-17.771c21.84-44.35,37.143-78.154,37.143-78.154s30.414,108.585,68.607,140.468
		c7.414,6.188,30.773,0.92,30.773,0.92l86.684,116.422l43.479,14.497l51.479,99.194l46.83,31.688H25.129L49.126,361.16z"/>
	<g id="rockshadow" clip-path="url(#SVGID_2_)">
		<g>
			<g>
				<path fill="#B3DCDF" d="M586.307,407.821l-30.876-49.2l-59.985,66.108l-16.196,43.125c-7.401,1.758-14.555,3.439-20.895,4.899
					c-14.934-15.305-27.585-27.957-27.585-27.957l8.623,32.14c-1.884,0.376-3.309,0.631-4.169,0.738
					c-10.763,1.345-55.16,32.289-55.16,32.289l51.124,28.252l-4.973,29.214l-3.02,4.608l0.4-26.783l-53.817-19.732l21.527,17.938
					v57.986h-38.147l17.49,49.778l0.87-0.326l-55.156,84.168l-59.116,81.498l-14.49,47.089l346.174,14.488l98.98-262.321
					L586.307,407.821z"/>
				<g>
					<polygon fill-rule="evenodd" clip-rule="evenodd" fill="#B3DCDF" points="663.565,397.345 586.875,366.733 641.066,442.343 
											"/>
				</g>
			</g>
			<g>
				<path fill-rule="evenodd" clip-rule="evenodd" fill="#B3DCDF" d="M230.466,182.784c0,0-24.217,67.906-19.732,67.906
					c4.484,0,18.835-15.203,16.145,10.134c-2.691,25.339-21.527,34.459-21.527,34.459l30.496,32.433
					c0,0-31.393,11.148-34.084,10.134c-2.691-1.013-92.385,115.81-92.385,115.81l77.137-17.938l130.954,34.084L230.466,182.784z"/>
			</g>
			<g>
				<path fill-rule="evenodd" clip-rule="evenodd" fill="#B3DCDF" d="M375.402,390.504l-31.92,30.931
					c-0.897-6.862-37.672-104.989-37.672-104.989l23.321,17.646l-12.557-50.975l35.877,18.625l-8.969-73.521l-24.217-36.27
					c0,0,8.072-17.645,9.866-28.428c1.794-10.783,3.588-17.204-1.794-34.849c-5.382-17.646,7.77-65.652,7.77-65.652l45.15,149.368
					l51.126,175.47l34.083,45.779l-54.852-35.734l-25.873,6.425L375.402,390.504z"/>
			</g>
			<g>
				<polygon fill-rule="evenodd" clip-rule="evenodd" fill="#B3DCDF" points="426.473,204.156 420.619,256.333 464.569,361.275 
					464.569,384.596 581.172,433.928 556.082,334.661 511.907,319.413 				"/>
			</g>
			<path fill-rule="evenodd" clip-rule="evenodd" fill="#B3DCDF" d="M303.119,638.431l-102.252-73.549l32.29,50.229L107.458,510.074
				L78.117,406.225l-38.845-80.588l-20.151,67.799l-59.855-68.957l-81.873-121.551l-24.367,368.94h0.047l-23.274,12.929
				L-2.676,756.849l178.772,54.871l69.271-12.225l1.2-152.855l67.314,34.845L303.119,638.431z M48.005,566.912l-21.527-41.26
				l3.599-129.654l17.928,93.777C48.005,496.95,48.005,566.912,48.005,566.912z M92.853,627.274l-17.939-55.61l-19.733-96.869
				l-0.236-39.764c0,0,45.083,125.869,50.465,143.809C110.792,596.778,92.853,627.274,92.853,627.274z M115.242,537.622
				l-0.383-1.354l0.639,1.545L115.242,537.622z"/>
		</g>
	</g>
	<path id="ice" clip-path="url(#SVGID_2_)" fill-rule="evenodd" clip-rule="evenodd" fill="#FFFFFF" d="M562.336,407.02
		l20.63,120.19l-5.382,66.374c0,0,12.558-21.526,23.32-39.466c10.764-17.938,6.279-59.198,6.279-59.198L562.336,407.02z"/>
</g>
</svg>
