<?xml version="1.0" encoding="utf-8"?>
<!-- Generator: Adobe Illustrator 14.0.0, SVG Export Plug-In . SVG Version: 6.00 Build 43363)  -->
<!DOCTYPE svg PUBLIC "-//W3C//DTD SVG 1.1//EN" "http://www.w3.org/Graphics/SVG/1.1/DTD/svg11.dtd">
<svg version="1.1" id="Forest_soil" xmlns="http://www.w3.org/2000/svg" xmlns:xlink="http://www.w3.org/1999/xlink" x="0px"
	 y="0px" width="528.601px" height="525.048px" viewBox="0 0 528.601 525.048" enable-background="new 0 0 528.601 525.048"
	 xml:space="preserve">
<ellipse id="bgd" fill-rule="evenodd" clip-rule="evenodd" fill="#B3DCDF" cx="262.239" cy="262.524" rx="264.3" ry="262.524"/>
<g id="soil">
	<defs>
		<ellipse id="SVGID_1_" cx="264.301" cy="262.524" rx="264.3" ry="262.524"/>
	</defs>
	<clipPath id="SVGID_2_">
		<use xlink:href="#SVGID_1_"  overflow="visible"/>
	</clipPath>
	<path id="crust" clip-path="url(#SVGID_2_)" fill-rule="evenodd" clip-rule="evenodd" fill="#3B6B5F" d="M264.301,545.048
		C118.332,545.048,0,427.512,0,282.524c0-7.624,0.347-15.169,0.988-22.628c37.902,2.364,53.306,5.219,86.081,0.992
		c109.224-14.083,141.37,27.807,318.761,10.225c80.575-7.986,45.02-13.002,121.597-13.307c0.765,8.139,1.174,16.38,1.174,24.718
		C528.601,427.512,410.27,545.048,264.301,545.048z"/>
	<path id="soit" clip-path="url(#SVGID_2_)" fill-rule="evenodd" clip-rule="evenodd" fill="#02A4BD" d="M264.301,575.048
		C118.332,575.048,0,457.512,0,312.524c0-7.624,0.347-15.169,0.988-22.628c37.902,2.364,53.306,5.219,86.081,0.992
		c109.224-14.083,141.37,27.807,318.761,10.225c80.575-7.986,45.02-13.002,121.597-13.307c0.765,8.139,1.174,16.38,1.174,24.718
		C528.601,457.512,410.27,575.048,264.301,575.048z"/>
	<g id="d_blob" clip-path="url(#SVGID_2_)">
		<g>
			<path fill="#3B6B5F" d="M204.176,320.084c-5.196,0-9.409,4.186-9.409,9.347s4.213,9.346,9.409,9.346
				c5.197,0,9.409-4.185,9.409-9.346S209.374,320.084,204.176,320.084z M248.453,362.964c-3.362,0-6.087,2.708-6.087,6.047
				c0,3.341,2.726,6.047,6.087,6.047c3.362,0,6.089-2.706,6.089-6.047C254.542,365.672,251.815,362.964,248.453,362.964z
				 M298.818,470.713c-4.892,0-8.855,3.938-8.855,8.797c0,4.856,3.964,8.795,8.855,8.795c4.891,0,8.855-3.938,8.855-8.795
				C307.674,474.652,303.709,470.713,298.818,470.713z M136.101,435.531c-2.445,0-4.428,1.968-4.428,4.397
				c0,2.429,1.983,4.397,4.428,4.397c2.446,0,4.428-1.969,4.428-4.397C140.529,437.499,138.546,435.531,136.101,435.531z
				 M178.717,460.818c-3.362,0-6.088,2.706-6.088,6.048c0,3.34,2.726,6.047,6.088,6.047c3.363,0,6.088-2.707,6.088-6.047
				C184.806,463.524,182.08,460.818,178.717,460.818z M326.49,411.892c0-4.555-3.717-8.247-8.303-8.247
				c-4.584,0-8.302,3.692-8.302,8.247c0,4.553,3.718,8.245,8.302,8.245C322.773,420.137,326.49,416.445,326.49,411.892z
				 M116.177,420.137c-2.445,0-4.428,1.969-4.428,4.397c0,2.43,1.983,4.397,4.428,4.397c2.445,0,4.428-1.968,4.428-4.397
				C120.604,422.106,118.622,420.137,116.177,420.137z M106.767,389.352c-3.362,0-6.087,2.707-6.087,6.048
				c0,3.34,2.726,6.047,6.087,6.047c3.363,0,6.089-2.707,6.089-6.047C112.856,392.059,110.13,389.352,106.767,389.352z
				 M76.881,310.19c-8.865,0-16.051,7.138-16.051,15.942s7.186,15.941,16.051,15.941c8.864,0,16.05-7.137,16.05-15.941
				S85.746,310.19,76.881,310.19z M99.02,345.374c-0.306,0-0.554,0.246-0.554,0.549c0,0.305,0.248,0.55,0.554,0.55
				s0.554-0.245,0.554-0.55C99.573,345.62,99.325,345.374,99.02,345.374z M380.175,383.854c-2.75,0-4.98,2.216-4.98,4.949
				c0,2.731,2.23,4.946,4.98,4.946c2.752,0,4.981-2.215,4.981-4.946C385.156,386.07,382.927,383.854,380.175,383.854z
				 M395.119,417.939c-3.057,0-5.534,2.462-5.534,5.496c0,3.036,2.478,5.497,5.534,5.497c3.058,0,5.535-2.461,5.535-5.497
				C400.654,420.401,398.177,417.939,395.119,417.939z M413.384,409.142c-3.362,0-6.089,2.708-6.089,6.048s2.727,6.047,6.089,6.047
				c3.361,0,6.089-2.707,6.089-6.047S416.745,409.142,413.384,409.142z M264.502,479.51c-2.442,0-4.425,1.968-4.425,4.397
				c0,2.429,1.983,4.397,4.425,4.397c2.447,0,4.429-1.969,4.429-4.397C268.931,481.478,266.949,479.51,264.502,479.51z
				 M332.579,471.812c-3.973,0-7.195,3.201-7.195,7.146c0,3.948,3.223,7.147,7.195,7.147c3.974,0,7.194-3.199,7.194-7.147
				C339.773,475.013,336.553,471.812,332.579,471.812z M319.849,446.524c-3.056,0-5.533,2.462-5.533,5.498s2.478,5.498,5.533,5.498
				c3.057,0,5.535-2.462,5.535-5.498S322.905,446.524,319.849,446.524z M363.573,366.263c-3.363,0-6.089,2.708-6.089,6.047
				c0,3.341,2.726,6.047,6.089,6.047c3.362,0,6.088-2.706,6.088-6.047C369.661,368.971,366.936,366.263,363.573,366.263z
				 M176.503,343.174c2.14,0,3.875-1.723,3.875-3.848c0-2.126-1.735-3.849-3.875-3.849s-3.875,1.723-3.875,3.849
				C172.629,341.452,174.364,343.174,176.503,343.174z M267.271,345.374c-5.197,0-9.409,4.185-9.409,9.346s4.212,9.345,9.409,9.345
				c5.196,0,9.409-4.184,9.409-9.345S272.467,345.374,267.271,345.374z"/>
		</g>
	</g>
	<g id="w_Blob" clip-path="url(#SVGID_2_)">
		<g>
			<path fill="#FFFFFF" d="M219.318,389.61c4.929,0,8.923-3.969,8.923-8.865c0-4.894-3.995-8.861-8.923-8.861
				c-4.928,0-8.922,3.968-8.922,8.861C210.396,385.641,214.391,389.61,219.318,389.61z M399.857,332.951
				c-4.928,0-8.923,3.968-8.923,8.862c0,4.896,3.995,8.864,8.923,8.864c4.929,0,8.924-3.968,8.924-8.864
				C408.781,336.918,404.786,332.951,399.857,332.951z M76.788,361.265c-4.928,0-8.923,3.967-8.923,8.863
				c0,4.895,3.995,8.862,8.923,8.862c4.928,0,8.924-3.968,8.924-8.862C85.712,365.232,81.716,361.265,76.788,361.265z
				 M234.645,395.522c-5.998,0-10.859,4.828-10.859,10.785s4.861,10.785,10.859,10.785c5.997,0,10.858-4.828,10.858-10.785
				S240.642,395.522,234.645,395.522z M204.84,415.733c-9.141,0-16.55,7.358-16.55,16.437c0,9.08,7.41,16.439,16.55,16.439
				c9.139,0,16.549-7.359,16.549-16.439C221.39,423.091,213.979,415.733,204.84,415.733z M133.646,386.403
				c-3.309-0.882-6.711,1.069-7.597,4.356c-0.887,3.287,1.077,6.666,4.386,7.548c3.31,0.881,6.711-1.071,7.598-4.357
				C138.92,390.662,136.956,387.283,133.646,386.403z M159.372,388.672c1.08-4-1.311-8.111-5.338-9.184
				c-4.027-1.073-8.167,1.303-9.246,5.303c-1.079,3.999,1.311,8.11,5.338,9.184C154.153,395.046,158.293,392.673,159.372,388.672z
				 M166.339,403.345c-6.138-1.633-12.447,1.984-14.092,8.081c-1.645,6.097,1.998,12.362,8.136,13.996s12.447-1.984,14.091-8.081
				C176.119,411.246,172.477,404.979,166.339,403.345z M426.858,330.001c2.968-1.702,3.984-5.472,2.27-8.418
				c-1.712-2.947-5.506-3.956-8.473-2.256c-2.969,1.702-3.984,5.471-2.271,8.418S423.891,331.703,426.858,330.001z M448.466,331.014
				c-2.083-3.587-6.7-4.815-10.312-2.744c-3.61,2.071-4.848,6.655-2.763,10.242c2.084,3.587,6.701,4.815,10.313,2.745
				S450.551,334.601,448.466,331.014z M424.468,352.342c-5.504,3.156-7.389,10.146-4.211,15.612
				c3.177,5.466,10.213,7.339,15.717,4.182c5.503-3.154,7.389-10.144,4.211-15.61C437.008,351.06,429.97,349.187,424.468,352.342z
				 M321.989,342.753c-5.575-1.485-11.305,1.803-12.801,7.341c-1.493,5.54,1.816,11.231,7.394,12.716
				c5.573,1.483,11.305-1.803,12.8-7.342C330.875,349.929,327.566,344.239,321.989,342.753z M361.954,321.984
				c-8.498-2.262-17.234,2.747-19.512,11.189c-2.275,8.44,2.767,17.116,11.265,19.378s17.233-2.747,19.511-11.188
				C375.494,332.921,370.452,324.246,361.954,321.984z"/>
		</g>
	</g>
</g>
<polygon id="tree" fill-rule="evenodd" clip-rule="evenodd" fill="#3B6B5F" points="193.57,255.009 236.912,199.012 
	199.254,204.188 253.775,147.77 224.203,157.012 274.104,94.678 319.158,157.429 291.569,148.972 344.47,204.188 309.265,199.521 
	353.687,254.81 286.44,250.066 286.44,274.327 260.613,274.327 260.796,250.203 "/>
<polygon id="tree_1_" fill-rule="evenodd" clip-rule="evenodd" fill="#3B6B5F" points="26.017,241.57 69.359,185.573 31.701,190.75 
	86.222,134.332 56.649,143.573 106.55,81.239 151.605,143.99 124.016,135.533 176.917,190.75 141.712,186.082 186.134,241.371 
	118.887,236.627 118.887,260.888 93.06,260.888 93.243,236.763 "/>
<polygon id="tree_2_" fill-rule="evenodd" clip-rule="evenodd" fill="#3B6B5F" points="362.483,248.886 405.827,192.89 
	368.168,198.066 422.688,141.648 393.116,150.89 443.018,88.555 488.072,151.306 460.482,142.85 513.384,198.066 478.179,193.398 
	522.601,248.687 455.354,243.944 455.354,268.205 429.527,268.205 429.71,244.08 "/>
</svg>
