<?xml version="1.0" encoding="utf-8"?>
<!-- Generator: Adobe Illustrator 14.0.0, SVG Export Plug-In . SVG Version: 6.00 Build 43363)  -->
<!DOCTYPE svg PUBLIC "-//W3C//DTD SVG 1.1//EN" "http://www.w3.org/Graphics/SVG/1.1/DTD/svg11.dtd">
<svg version="1.1" id="Drinking_water" xmlns="http://www.w3.org/2000/svg" xmlns:xlink="http://www.w3.org/1999/xlink" x="0px"
	 y="0px" width="528.601px" height="525.048px" viewBox="0 0 528.601 525.048" enable-background="new 0 0 528.601 525.048"
	 xml:space="preserve">
<ellipse id="bgd" fill-rule="evenodd" clip-rule="evenodd" fill="#B3DCDF" cx="262.298" cy="262.524" rx="249.177" ry="247.503"/>
<g>
	<polygon fill-rule="evenodd" clip-rule="evenodd" fill="#FFFFFF" stroke="#02A4BD" stroke-width="8" points="181.011,211.792 
		368.881,262.131 288.435,464.207 149.643,427.017 	"/>
	<polygon fill-rule="evenodd" clip-rule="evenodd" fill="#02A4BD" points="349.098,278.172 278.661,452.848 163.608,422.02 
		184.582,278.11 	"/>
</g>
<g id="drop">
	<g id="drop_13_">
		<g>
			<path fill-rule="evenodd" clip-rule="evenodd" fill="#02A4BD" d="M291.479,125.423c-14.315-29.167-25.692-39.852-33.97-70
				c-8.277,30.148-19.655,40.832-33.97,70c-13.897,28.315,6.693,56.765,33.97,56.765
				C284.785,182.188,305.377,153.739,291.479,125.423z"/>
		</g>
	</g>
	<g id="reflection_7_">
		<g>
			<path fill-rule="evenodd" clip-rule="evenodd" fill="#FFFFFF" d="M275.544,131.691c-5.504-11.213-9.879-15.321-13.06-26.912
				c-3.183,11.591-7.556,15.698-13.062,26.912c-5.34,10.885,2.575,21.822,13.062,21.822
				C272.97,153.513,280.888,142.576,275.544,131.691z"/>
		</g>
	</g>
</g>
</svg>
